{
.appVersion = "1342";
DisplayStrings = (
"NUMBKERF\012HOH/Placeholder HOH/space OHO/Placeholder OHO",
ABCDEFGH
);
customParameters = (
{
name = "Enforce Compatibility Check";
value = 1;
},
{
name = Axes;
value = (
{
Name = Chaos;
Tag = chao;
},
{
Name = Weight;
Tag = wght;
}
);
},
{
name = "Variable Font Family Name";
value = "Kablammo v0.9 Variable";
}
);
date = "2020-02-28 19:06:25 +0000";
designer = "Scribble Tone";
familyName = "Kablammo v0.9";
featurePrefixes = (
{
automatic = 1;
code = "languagesystem DFLT dflt;\012\012languagesystem latn dflt;\012languagesystem latn ROM;\012languagesystem latn MOL;\012";
name = Languagesystems;
}
);
features = (
{
automatic = 1;
code = "feature locl;\012feature case;\012";
name = aalt;
},
{
automatic = 1;
code = "lookup locl_latn_0 {\012	script latn;\012	language ROM;\012	language MOL;\012	sub Scedilla by Scommaaccent;\012	sub Tcedilla by Tcommaaccent;\012} locl_latn_0;\012";
name = locl;
},
{
automatic = 1;
code = "sub dieresiscomb by dieresiscomb.case;\012sub dotaccentcomb by dotaccentcomb.case;\012sub gravecomb by gravecomb.case;\012sub acutecomb by acutecomb.case;\012sub hungarumlautcomb by hungarumlautcomb.case;\012sub circumflexcomb by circumflexcomb.case;\012sub caroncomb by caroncomb.case;\012sub brevecomb by brevecomb.case;\012sub ringcomb by ringcomb.case;\012sub tildecomb by tildecomb.case;\012sub macroncomb by macroncomb.case;\012sub commaturnedabovecomb by commaturnedabovecomb.case;\012sub commaaccentcomb by commaaccentcomb.case;\012sub cedillacomb by cedillacomb.case;\012sub ogonekcomb by ogonekcomb.case;\012";
name = case;
}
);
fontMaster = (
{
ascender = 800;
capHeight = 700;
custom = Wild;
customParameters = (
{
name = "Master Icon Glyph Name";
value = N;
}
);
descender = -200;
id = "DA12CC5E-F102-4B17-B99F-C66FBA9637B7";
name = "Wild Light";
weight = Light;
weightValue = 1000;
widthValue = 300;
xHeight = 550;
}
);
glyphs = (
{
glyphname = A;
lastChange = "2020-05-21 01:44:41 +0000";
layers = (
{
associatedMasterId = "DA12CC5E-F102-4B17-B99F-C66FBA9637B7";
layerId = "69CF34AB-D31A-4DBC-BB7E-380600636EBA";
name = "Feb 7 20, 14:07";
paths = (
{
closed = 1;
nodes = (
"454 427 LINE SMOOTH",
"448 445 OFFCURVE",
"431 464 OFFCURVE",
"416 464 CURVE SMOOTH",
"399 464 OFFCURVE",
"383 454 OFFCURVE",
"369 434 CURVE SMOOTH",
"81 4 LINE SMOOTH",
"60 -27 OFFCURVE",
"7 -18 OFFCURVE",
"23 28 CURVE SMOOTH",
"235 634 LINE SMOOTH",
"271 736 OFFCURVE",
"433 746 OFFCURVE",
"472 619 CURVE SMOOTH",
"654 29 LINE SMOOTH",
"667 -13 OFFCURVE",
"596 -33 OFFCURVE",
"581 17 CURVE SMOOTH"
);
},
{
closed = 1;
nodes = (
"97 103 LINE",
"142 162 LINE",
"555 180 LINE",
"574 118 LINE"
);
},
{
closed = 1;
nodes = (
"118 201 LINE",
"163 264 LINE",
"536 303 LINE",
"555 246 LINE"
);
},
{
closed = 1;
nodes = (
"244 424 LINE SMOOTH",
"266 415 OFFCURVE",
"287 462 OFFCURVE",
"265 471 CURVE SMOOTH",
"189 502 LINE",
"172 453 LINE"
);
},
{
closed = 1;
nodes = (
"289 514 LINE SMOOTH",
"311 505 OFFCURVE",
"332 553 OFFCURVE",
"310 562 CURVE SMOOTH",
"222 597 LINE",
"206 550 LINE"
);
}
);
width = 676;
},
{
anchors = (
{
name = ogonek;
position = "{540, -68}";
},
{
name = top;
position = "{348, 672}";
}
);
layerId = "DA12CC5E-F102-4B17-B99F-C66FBA9637B7";
paths = (
{
closed = 1;
nodes = (
"515 -55 OFFCURVE",
"537 -44 OFFCURVE",
"535 -25 CURVE SMOOTH",
"458 577 LINE SMOOTH",
"447 660 OFFCURVE",
"396 686 OFFCURVE",
"354 687 CURVE SMOOTH",
"302 688 OFFCURVE",
"258 662 OFFCURVE",
"237 606 CURVE SMOOTH",
"35 75 LINE SMOOTH",
"27 54 OFFCURVE",
"53 42 OFFCURVE",
"61 65 CURVE SMOOTH",
"231 542 LINE SMOOTH",
"250 594 OFFCURVE",
"276 614 OFFCURVE",
"305 614 CURVE SMOOTH",
"341 614 OFFCURVE",
"354 593 OFFCURVE",
"365 547 CURVE SMOOTH",
"510 -33 LINE SMOOTH"
);
},
{
closed = 1;
nodes = (
"410 387 LINE SMOOTH",
"424 386 OFFCURVE",
"427 410 OFFCURVE",
"410 411 CURVE SMOOTH",
"184 418 LINE",
"176 400 LINE"
);
},
{
closed = 1;
nodes = (
"428 337 LINE",
"149 339 LINE SMOOTH",
"130 339 OFFCURVE",
"129 315 OFFCURVE",
"147 315 CURVE SMOOTH",
"435 315 LINE"
);
},
{
closed = 1;
nodes = (
"462 221 LINE",
"457 246 LINE",
"126 271 LINE",
"117 250 LINE"
);
},
{
closed = 1;
nodes = (
"469 145 LINE SMOOTH",
"487 144 OFFCURVE",
"487 168 OFFCURVE",
"468 169 CURVE SMOOTH",
"95 188 LINE SMOOTH",
"82 189 OFFCURVE",
"81 167 OFFCURVE",
"94 166 CURVE SMOOTH"
);
},
{
closed = 1;
nodes = (
"217 522 LINE",
"126 562 LINE SMOOTH",
"102 572 OFFCURVE",
"88 542 OFFCURVE",
"110 531 CURVE SMOOTH",
"201 487 LINE"
);
},
{
closed = 1;
nodes = (
"187 444 LINE",
"115 467 LINE SMOOTH",
"90 475 OFFCURVE",
"79 432 OFFCURVE",
"107 428 CURVE SMOOTH",
"178 417 LINE"
);
},
{
closed = 1;
nodes = (
"154 369 LINE",
"82 389 LINE SMOOTH",
"56 396 OFFCURVE",
"49 363 OFFCURVE",
"75 356 CURVE SMOOTH",
"145 338 LINE"
);
},
{
closed = 1;
nodes = (
"444 435 OFFCURVE",
"427 429 OFFCURVE",
"423 453 CURVE SMOOTH",
"420 473 OFFCURVE",
"432 477 OFFCURVE",
"470 483 CURVE",
"475 445 LINE"
);
},
{
closed = 1;
nodes = (
"422 515 OFFCURVE",
"402 519 OFFCURVE",
"400 535 CURVE SMOOTH",
"398 551 OFFCURVE",
"414 557 OFFCURVE",
"460 560 CURVE",
"466 515 LINE"
);
}
);
width = 550;
},
{
associatedMasterId = "DA12CC5E-F102-4B17-B99F-C66FBA9637B7";
layerId = "71165027-C6A0-4128-A131-828B2EC63E49";
name = "Feb 7 20, 14:11";
paths = (
{
closed = 1;
nodes = (
"385 432 LINE SMOOTH",
"379 456 OFFCURVE",
"366 469 OFFCURVE",
"351 469 CURVE SMOOTH",
"337 469 OFFCURVE",
"322 459 OFFCURVE",
"317 439 CURVE SMOOTH",
"214 45 LINE SMOOTH",
"185 -65 OFFCURVE",
"-18 -33 OFFCURVE",
"20 105 CURVE SMOOTH",
"169 641 LINE SMOOTH",
"195 735 OFFCURVE",
"367 747 OFFCURVE",
"399 629 CURVE SMOOTH",
"559 29 LINE SMOOTH",
"570 -13 OFFCURVE",
"509 -33 OFFCURVE",
"496 17 CURVE SMOOTH"
);
},
{
closed = 1;
nodes = (
"152 131 LINE",
"188 180 LINE",
"477 182 LINE",
"497 133 LINE"
);
},
{
closed = 1;
nodes = (
"158 205 LINE",
"203 262 LINE",
"437 307 LINE SMOOTH",
"478 315 OFFCURVE",
"482 261 OFFCURVE",
"440 254 CURVE SMOOTH"
);
},
{
closed = 1;
nodes = (
"222 524 LINE SMOOTH",
"250 515 OFFCURVE",
"264 563 OFFCURVE",
"236 572 CURVE SMOOTH",
"157 597 LINE",
"144 550 LINE"
);
},
{
closed = 1;
nodes = (
"193 420 LINE SMOOTH",
"221 411 OFFCURVE",
"235 459 OFFCURVE",
"207 468 CURVE SMOOTH",
"128 493 LINE",
"115 446 LINE"
);
},
{
closed = 1;
nodes = (
"71 130 OFFCURVE",
"96 141 OFFCURVE",
"103 171 CURVE SMOOTH",
"113 208 OFFCURVE",
"99 236 OFFCURVE",
"59 245 CURVE",
"30 140 LINE"
);
},
{
closed = 1;
nodes = (
"471 608 LINE SMOOTH",
"510 619 OFFCURVE",
"526 559 OFFCURVE",
"487 549 CURVE SMOOTH",
"409 529 LINE",
"394 587 LINE"
);
},
{
closed = 1;
nodes = (
"502 495 LINE SMOOTH",
"540 505 OFFCURVE",
"556 446 OFFCURVE",
"518 436 CURVE SMOOTH",
"440 416 LINE",
"424 474 LINE"
);
}
);
width = 676;
},
{
associatedMasterId = "DA12CC5E-F102-4B17-B99F-C66FBA9637B7";
layerId = "F4FBC260-0119-4048-B6DE-902654D996E1";
name = "Feb 7 20, 14:17";
paths = (
{
closed = 1;
nodes = (
"491 275 OFFCURVE",
"485 262 OFFCURVE",
"468 259 CURVE SMOOTH",
"430 252 LINE",
"385 432 LINE SMOOTH",
"379 456 OFFCURVE",
"366 469 OFFCURVE",
"351 469 CURVE SMOOTH",
"336 469 OFFCURVE",
"320 453 OFFCURVE",
"310 435 CURVE SMOOTH",
"74 -5 LINE SMOOTH",
"50 -50 OFFCURVE",
"-18 -33 OFFCURVE",
"0 30 CURVE SMOOTH",
"169 641 LINE SMOOTH",
"195 735 OFFCURVE",
"368 748 OFFCURVE",
"399 629 CURVE SMOOTH",
"486 294 LINE SMOOTH"
);
},
{
closed = 1;
nodes = (
"122 131 LINE",
"158 180 LINE",
"477 182 LINE",
"497 133 LINE"
);
},
{
closed = 1;
nodes = (
"128 205 LINE",
"173 262 LINE",
"437 307 LINE SMOOTH",
"478 314 OFFCURVE",
"482 261 OFFCURVE",
"440 254 CURVE SMOOTH"
);
},
{
closed = 1;
nodes = (
"222 524 LINE SMOOTH",
"250 515 OFFCURVE",
"264 563 OFFCURVE",
"236 572 CURVE SMOOTH",
"157 597 LINE",
"144 550 LINE"
);
},
{
closed = 1;
nodes = (
"193 420 LINE SMOOTH",
"221 411 OFFCURVE",
"235 459 OFFCURVE",
"207 468 CURVE SMOOTH",
"128 493 LINE",
"115 446 LINE"
);
},
{
closed = 1;
nodes = (
"487 182 LINE SMOOTH",
"509 182 OFFCURVE",
"521 172 OFFCURVE",
"525 157 CURVE SMOOTH",
"559 29 LINE SMOOTH",
"570 -13 OFFCURVE",
"509 -33 OFFCURVE",
"496 17 CURVE SMOOTH",
"452 182 LINE"
);
}
);
width = 676;
},
{
associatedMasterId = "DA12CC5E-F102-4B17-B99F-C66FBA9637B7";
layerId = "7B0DE7B6-DA84-496F-B4CC-8BC67ABD3E5A";
name = "Feb 7 20, 14:17";
paths = (
{
closed = 1;
nodes = (
"385 432 LINE SMOOTH",
"379 456 OFFCURVE",
"366 469 OFFCURVE",
"351 469 CURVE SMOOTH",
"336 469 OFFCURVE",
"320 453 OFFCURVE",
"310 435 CURVE SMOOTH",
"74 -5 LINE SMOOTH",
"50 -50 OFFCURVE",
"-18 -33 OFFCURVE",
"0 30 CURVE SMOOTH",
"169 641 LINE SMOOTH",
"195 735 OFFCURVE",
"367 747 OFFCURVE",
"399 629 CURVE SMOOTH",
"559 29 LINE SMOOTH",
"570 -13 OFFCURVE",
"509 -33 OFFCURVE",
"496 17 CURVE SMOOTH"
);
},
{
closed = 1;
nodes = (
"122 131 LINE",
"158 180 LINE",
"477 182 LINE",
"497 133 LINE"
);
},
{
closed = 1;
nodes = (
"128 205 LINE",
"173 262 LINE",
"437 307 LINE SMOOTH",
"478 314 OFFCURVE",
"482 261 OFFCURVE",
"440 254 CURVE SMOOTH"
);
},
{
closed = 1;
nodes = (
"222 524 LINE SMOOTH",
"250 515 OFFCURVE",
"264 563 OFFCURVE",
"236 572 CURVE SMOOTH",
"157 597 LINE",
"144 550 LINE"
);
},
{
closed = 1;
nodes = (
"193 420 LINE SMOOTH",
"221 411 OFFCURVE",
"235 459 OFFCURVE",
"207 468 CURVE SMOOTH",
"128 493 LINE",
"115 446 LINE"
);
}
);
width = 676;
},
{
associatedMasterId = "DA12CC5E-F102-4B17-B99F-C66FBA9637B7";
layerId = "8963AD30-F282-42F4-B7D9-7F3A8ED4C296";
name = "Feb 7 20, 14:19";
paths = (
{
closed = 1;
nodes = (
"385 432 LINE SMOOTH",
"379 456 OFFCURVE",
"366 469 OFFCURVE",
"351 469 CURVE SMOOTH",
"337 469 OFFCURVE",
"322 459 OFFCURVE",
"317 439 CURVE SMOOTH",
"214 45 LINE SMOOTH",
"185 -65 OFFCURVE",
"-18 -33 OFFCURVE",
"20 105 CURVE SMOOTH",
"169 641 LINE SMOOTH",
"195 735 OFFCURVE",
"367 747 OFFCURVE",
"399 629 CURVE SMOOTH",
"559 29 LINE SMOOTH",
"570 -13 OFFCURVE",
"509 -33 OFFCURVE",
"496 17 CURVE SMOOTH"
);
},
{
closed = 1;
nodes = (
"152 131 LINE",
"188 180 LINE",
"477 182 LINE",
"497 133 LINE"
);
},
{
closed = 1;
nodes = (
"158 205 LINE",
"203 262 LINE",
"437 307 LINE SMOOTH",
"478 315 OFFCURVE",
"482 261 OFFCURVE",
"440 254 CURVE SMOOTH"
);
},
{
closed = 1;
nodes = (
"200 470 LINE SMOOTH",
"234 459 OFFCURVE",
"250 523 OFFCURVE",
"215 535 CURVE SMOOTH",
"146 558 LINE",
"128 494 LINE"
);
},
{
closed = 1;
nodes = (
"167 351 LINE SMOOTH",
"201 340 OFFCURVE",
"217 404 OFFCURVE",
"182 416 CURVE SMOOTH",
"113 439 LINE",
"95 375 LINE"
);
}
);
width = 676;
},
{
associatedMasterId = "DA12CC5E-F102-4B17-B99F-C66FBA9637B7";
layerId = "7BD08AA0-7A5E-461D-9AE1-1822C76DB3A4";
name = "Feb 10 20, 16:35";
paths = (
{
closed = 1;
nodes = (
"385 432 LINE SMOOTH",
"379 456 OFFCURVE",
"367 469 OFFCURVE",
"351 469 CURVE SMOOTH",
"335 469 OFFCURVE",
"322 459 OFFCURVE",
"317 439 CURVE SMOOTH",
"214 45 LINE SMOOTH",
"185 -65 OFFCURVE",
"-18 -33 OFFCURVE",
"20 105 CURVE SMOOTH",
"167 635 LINE SMOOTH",
"182 689 OFFCURVE",
"233 717 OFFCURVE",
"284 716 CURVE SMOOTH",
"333 715 OFFCURVE",
"383 686 OFFCURVE",
"399 627 CURVE SMOOTH",
"559 30 LINE SMOOTH",
"571 -14 OFFCURVE",
"508 -31 OFFCURVE",
"495 19 CURVE SMOOTH"
);
},
{
closed = 1;
nodes = (
"520 52 LINE SMOOTH",
"497 52 OFFCURVE",
"496 104 OFFCURVE",
"521 104 CURVE SMOOTH",
"529 104 LINE",
"543 52 LINE"
);
},
{
closed = 1;
nodes = (
"172 131 LINE",
"188 183 LINE",
"476 184 LINE",
"496 131 LINE"
);
},
{
closed = 1;
nodes = (
"193 239 LINE",
"212 293 LINE",
"437 307 LINE SMOOTH",
"476 309 OFFCURVE",
"483 255 OFFCURVE",
"443 253 CURVE SMOOTH"
);
},
{
closed = 1;
nodes = (
"443 337 LINE SMOOTH",
"422 337 OFFCURVE",
"415 389 OFFCURVE",
"437 389 CURVE SMOOTH",
"451 389 LINE",
"468 337 LINE"
);
},
{
closed = 1;
nodes = (
"192 444 LINE SMOOTH",
"226 435 OFFCURVE",
"242 499 OFFCURVE",
"207 509 CURVE SMOOTH",
"138 528 LINE",
"120 464 LINE"
);
},
{
closed = 1;
nodes = (
"157 326 LINE SMOOTH",
"191 317 OFFCURVE",
"211 381 OFFCURVE",
"172 391 CURVE SMOOTH",
"105 409 LINE",
"87 345 LINE"
);
},
{
closed = 1;
nodes = (
"144 543 LINE",
"150 563 OFFCURVE",
"156 584 OFFCURVE",
"162 604 CURVE",
"162 604 LINE",
"144 543 LINE"
);
},
{
closed = 1;
nodes = (
"119 456 LINE",
"125 476 OFFCURVE",
"131 497 OFFCURVE",
"137 517 CURVE",
"137 517 LINE",
"119 456 LINE"
);
},
{
closed = 1;
nodes = (
"387 548 OFFCURVE",
"387 548 OFFCURVE",
"387 548 CURVE SMOOTH",
"387 548 OFFCURVE",
"387 548 OFFCURVE",
"387 548 CURVE SMOOTH",
"387 548 OFFCURVE",
"387 548 OFFCURVE",
"387 548 CURVE SMOOTH",
"387 548 OFFCURVE",
"387 548 OFFCURVE",
"387 548 CURVE SMOOTH"
);
}
);
width = 575;
},
{
associatedMasterId = "DA12CC5E-F102-4B17-B99F-C66FBA9637B7";
layerId = "C50AB536-7FF6-46AB-A673-B30D66F35FAE";
name = "Mar 7 20, 15:00";
paths = (
{
closed = 1;
nodes = (
"369 430 LINE SMOOTH",
"363 459 OFFCURVE",
"347 477 OFFCURVE",
"323 477 CURVE SMOOTH",
"302 477 OFFCURVE",
"282 460 OFFCURVE",
"272 437 CURVE SMOOTH",
"109 61 LINE SMOOTH",
"77 -12 OFFCURVE",
"-22 18 OFFCURVE",
"4 104 CURVE SMOOTH",
"162 635 LINE SMOOTH",
"178 689 OFFCURVE",
"228 717 OFFCURVE",
"279 716 CURVE SMOOTH",
"328 715 OFFCURVE",
"372 686 OFFCURVE",
"386 627 CURVE SMOOTH",
"537 -29 LINE SMOOTH",
"547 -73 OFFCURVE",
"472 -88 OFFCURVE",
"462 -38 CURVE SMOOTH"
);
},
{
closed = 1;
nodes = (
"124 136 LINE",
"140 188 LINE",
"458 189 LINE",
"478 136 LINE"
);
},
{
closed = 1;
nodes = (
"145 244 LINE",
"164 292 LINE",
"414 321 LINE SMOOTH",
"453 326 OFFCURVE",
"460 265 OFFCURVE",
"420 262 CURVE SMOOTH"
);
},
{
closed = 1;
nodes = (
"172 448 LINE SMOOTH",
"221 430 OFFCURVE",
"235 504 OFFCURVE",
"194 513 CURVE SMOOTH",
"130 527 LINE",
"113 469 LINE"
);
},
{
closed = 1;
nodes = (
"136 336 LINE SMOOTH",
"173 325 OFFCURVE",
"193 379 OFFCURVE",
"158 395 CURVE SMOOTH",
"99 423 LINE",
"78 353 LINE"
);
}
);
width = 535;
},
{
associatedMasterId = "DA12CC5E-F102-4B17-B99F-C66FBA9637B7";
layerId = "495E6C8B-0187-4F91-A4E1-E3A76D4762EB";
name = "Mar 7 20, 15:08";
paths = (
{
closed = 1;
nodes = (
"289 428 LINE SMOOTH",
"279 455 OFFCURVE",
"267 475 OFFCURVE",
"243 475 CURVE SMOOTH",
"216 475 OFFCURVE",
"198 456 OFFCURVE",
"192 431 CURVE SMOOTH",
"102 65 LINE SMOOTH",
"83 -14 OFFCURVE",
"-21 25 OFFCURVE",
"3 97 CURVE SMOOTH",
"181 635 LINE SMOOTH",
"199 689 OFFCURVE",
"247 717 OFFCURVE",
"298 716 CURVE SMOOTH",
"347 715 OFFCURVE",
"393 686 OFFCURVE",
"405 627 CURVE SMOOTH",
"537 -29 LINE SMOOTH",
"546 -73 OFFCURVE",
"480 -87 OFFCURVE",
"462 -38 CURVE SMOOTH"
);
},
{
closed = 1;
nodes = (
"84 136 LINE",
"100 188 LINE",
"418 180 LINE",
"438 127 LINE"
);
},
{
closed = 1;
nodes = (
"105 243 LINE",
"124 291 LINE",
"355 317 LINE SMOOTH",
"394 321 OFFCURVE",
"401 260 OFFCURVE",
"361 258 CURVE SMOOTH"
);
},
{
closed = 1;
nodes = (
"382 476 LINE SMOOTH",
"331 470 OFFCURVE",
"354 397 OFFCURVE",
"396 409 CURVE SMOOTH",
"446 423 LINE",
"434 482 LINE"
);
},
{
closed = 1;
nodes = (
"329 574 LINE SMOOTH",
"293 562 OFFCURVE",
"307 504 OFFCURVE",
"345 512 CURVE SMOOTH",
"424 529 LINE",
"410 601 LINE"
);
}
);
width = 535;
}
);
unicode = 0041;
},
{
glyphname = B;
lastChange = "2020-05-25 22:30:25 +0000";
layers = (
{
anchors = (
{
name = bottom;
position = "{278, 0}";
},
{
name = top;
position = "{275, 733}";
}
);
layerId = "DA12CC5E-F102-4B17-B99F-C66FBA9637B7";
paths = (
{
closed = 1;
nodes = (
"102 30 OFFCURVE",
"138 -12 OFFCURVE",
"252 -12 CURVE SMOOTH",
"252 -12 LINE SMOOTH",
"400 -12 OFFCURVE",
"517 66 OFFCURVE",
"517 214 CURVE SMOOTH",
"517 340 OFFCURVE",
"425 390 OFFCURVE",
"332 402 CURVE SMOOTH",
"315 404 OFFCURVE",
"314 414 OFFCURVE",
"328 422 CURVE SMOOTH",
"376 448 OFFCURVE",
"414 478 OFFCURVE",
"414 531 CURVE SMOOTH",
"414 612 OFFCURVE",
"349 659 OFFCURVE",
"287 653 CURVE SMOOTH",
"121 637 LINE SMOOTH",
"66 632 OFFCURVE",
"42 611 OFFCURVE",
"49 545 CURVE SMOOTH",
"93 115 LINE SMOOTH"
);
},
{
closed = 1;
nodes = (
"352 633 OFFCURVE",
"389 584 OFFCURVE",
"389 532 CURVE SMOOTH",
"389 490 OFFCURVE",
"359 456 OFFCURVE",
"288 429 CURVE SMOOTH",
"249 414 LINE SMOOTH",
"160 380 OFFCURVE",
"111 387 OFFCURVE",
"109 442 CURVE SMOOTH",
"106 542 LINE SMOOTH",
"104 595 OFFCURVE",
"130 614 OFFCURVE",
"179 618 CURVE SMOOTH",
"280 627 LINE SMOOTH"
);
},
{
closed = 1;
nodes = (
"104 252 LINE SMOOTH",
"96 353 OFFCURVE",
"138 381 OFFCURVE",
"296 381 CURVE",
"296 381 LINE",
"442 381 OFFCURVE",
"484 310 OFFCURVE",
"395 161 CURVE SMOOTH",
"316 29 OFFCURVE",
"258 19 OFFCURVE",
"211 17 CURVE SMOOTH",
"211 17 LINE SMOOTH",
"173 17 OFFCURVE",
"122 33 OFFCURVE",
"115 120 CURVE SMOOTH"
);
},
{
closed = 1;
nodes = (
"452 170 OFFCURVE",
"441 180 OFFCURVE",
"441 192 CURVE SMOOTH",
"441 203 OFFCURVE",
"452 214 OFFCURVE",
"463 214 CURVE SMOOTH",
"475 214 OFFCURVE",
"485 203 OFFCURVE",
"485 192 CURVE SMOOTH",
"485 180 OFFCURVE",
"475 170 OFFCURVE",
"463 170 CURVE SMOOTH"
);
},
{
closed = 1;
nodes = (
"424 103 OFFCURVE",
"414 113 OFFCURVE",
"414 128 CURVE SMOOTH",
"414 141 OFFCURVE",
"424 152 OFFCURVE",
"439 152 CURVE SMOOTH",
"454 152 OFFCURVE",
"465 141 OFFCURVE",
"465 128 CURVE SMOOTH",
"465 113 OFFCURVE",
"454 103 OFFCURVE",
"439 103 CURVE SMOOTH"
);
},
{
closed = 1;
nodes = (
"385 56 OFFCURVE",
"375 66 OFFCURVE",
"375 78 CURVE SMOOTH",
"375 89 OFFCURVE",
"385 100 OFFCURVE",
"397 100 CURVE SMOOTH",
"408 100 OFFCURVE",
"418 89 OFFCURVE",
"418 78 CURVE SMOOTH",
"418 66 OFFCURVE",
"408 56 OFFCURVE",
"397 56 CURVE SMOOTH"
);
},
{
closed = 1;
nodes = (
"123 739 OFFCURVE",
"88 734 OFFCURVE",
"93 710 CURVE SMOOTH",
"111 625 LINE",
"137 631 LINE",
"127 711 LINE SMOOTH"
);
},
{
closed = 1;
nodes = (
"192 720 OFFCURVE",
"169 715 OFFCURVE",
"172 693 CURVE SMOOTH",
"186 587 LINE SMOOTH",
"189 565 OFFCURVE",
"218 571 OFFCURVE",
"214 593 CURVE SMOOTH",
"196 697 LINE SMOOTH"
);
},
{
closed = 1;
nodes = (
"301 768 OFFCURVE",
"269 773 OFFCURVE",
"266 746 CURVE SMOOTH",
"255 640 LINE",
"278 638 LINE",
"297 744 LINE SMOOTH"
);
},
{
closed = 1;
nodes = (
"382 728 OFFCURVE",
"348 738 OFFCURVE",
"343 712 CURVE SMOOTH",
"330 640 LINE",
"354 632 LINE",
"374 700 LINE SMOOTH"
);
},
{
closed = 1;
nodes = (
"487 666 OFFCURVE",
"462 702 OFFCURVE",
"438 680 CURVE SMOOTH",
"367 615 LINE",
"380 601 LINE",
"464 652 LINE SMOOTH"
);
},
{
closed = 1;
nodes = (
"539 566 OFFCURVE",
"533 592 OFFCURVE",
"510 588 CURVE SMOOTH",
"262 548 LINE SMOOTH",
"242 545 OFFCURVE",
"248 523 OFFCURVE",
"266 526 CURVE SMOOTH",
"518 563 LINE SMOOTH"
);
},
{
closed = 1;
nodes = (
"500 455 OFFCURVE",
"505 493 OFFCURVE",
"481 497 CURVE SMOOTH",
"399 509 LINE",
"390 486 LINE",
"476 462 LINE SMOOTH"
);
},
{
closed = 1;
nodes = (
"179 136 OFFCURVE",
"168 159 OFFCURVE",
"151 151 CURVE SMOOTH",
"44 103 LINE SMOOTH",
"24 94 OFFCURVE",
"35 66 OFFCURVE",
"54 75 CURVE SMOOTH",
"163 128 LINE SMOOTH"
);
},
{
closed = 1;
nodes = (
"237 114 OFFCURVE",
"213 128 OFFCURVE",
"202 110 CURVE SMOOTH",
"114 -41 LINE SMOOTH",
"104 -59 OFFCURVE",
"124 -72 OFFCURVE",
"134 -56 CURVE SMOOTH",
"226 96 LINE SMOOTH"
);
},
{
closed = 1;
nodes = (
"298 200 OFFCURVE",
"317 219 OFFCURVE",
"317 242 CURVE SMOOTH",
"317 266 OFFCURVE",
"298 286 OFFCURVE",
"275 286 CURVE SMOOTH",
"251 286 OFFCURVE",
"231 266 OFFCURVE",
"231 242 CURVE SMOOTH",
"231 219 OFFCURVE",
"251 200 OFFCURVE",
"275 200 CURVE SMOOTH"
);
}
);
width = 553;
}
);
unicode = 0042;
},
{
glyphname = C;
lastChange = "2020-05-26 01:04:51 +0000";
layers = (
{
anchors = (
{
name = cedilla;
position = "{241, 0}";
},
{
name = top;
position = "{311, 778}";
}
);
layerId = "DA12CC5E-F102-4B17-B99F-C66FBA9637B7";
paths = (
{
closed = 1;
nodes = (
"39 115 OFFCURVE",
"141 -2 OFFCURVE",
"284 -2 CURVE SMOOTH",
"356 -2 OFFCURVE",
"403 23 OFFCURVE",
"434 56 CURVE SMOOTH",
"458 82 OFFCURVE",
"445 137 OFFCURVE",
"410 137 CURVE SMOOTH",
"367 137 OFFCURVE",
"332 107 OFFCURVE",
"254 107 CURVE SMOOTH",
"138 107 OFFCURVE",
"66 165 OFFCURVE",
"66 335 CURVE SMOOTH",
"66 500 OFFCURVE",
"172 682 OFFCURVE",
"340 682 CURVE SMOOTH",
"395 682 OFFCURVE",
"426 650 OFFCURVE",
"443 650 CURVE SMOOTH",
"459 650 OFFCURVE",
"465 664 OFFCURVE",
"456 673 CURVE SMOOTH",
"442 687 OFFCURVE",
"397 707 OFFCURVE",
"342 707 CURVE SMOOTH",
"167 707 OFFCURVE",
"39 528 OFFCURVE",
"39 326 CURVE SMOOTH"
);
},
{
closed = 1;
nodes = (
"299 247 OFFCURVE",
"334 282 OFFCURVE",
"334 326 CURVE SMOOTH",
"334 367 OFFCURVE",
"299 402 OFFCURVE",
"258 402 CURVE SMOOTH",
"214 402 OFFCURVE",
"179 367 OFFCURVE",
"179 326 CURVE SMOOTH",
"179 282 OFFCURVE",
"214 247 OFFCURVE",
"258 247 CURVE SMOOTH"
);
},
{
closed = 1;
nodes = (
"231 285 OFFCURVE",
"214 301 OFFCURVE",
"214 322 CURVE SMOOTH",
"214 340 OFFCURVE",
"231 356 OFFCURVE",
"251 356 CURVE SMOOTH",
"269 356 OFFCURVE",
"286 340 OFFCURVE",
"286 322 CURVE SMOOTH",
"286 301 OFFCURVE",
"269 285 OFFCURVE",
"251 285 CURVE SMOOTH"
);
},
{
closed = 1;
nodes = (
"252 67 OFFCURVE",
"255 51 OFFCURVE",
"235 51 CURVE SMOOTH",
"211 54 OFFCURVE",
"214 68 OFFCURVE",
"219 109 CURVE",
"230 108 OFFCURVE",
"238 107 OFFCURVE",
"252 107 CURVE"
);
},
{
closed = 1;
nodes = (
"319 46 OFFCURVE",
"325 34 OFFCURVE",
"304 32 CURVE SMOOTH",
"286 30 OFFCURVE",
"286 43 OFFCURVE",
"278 108 CURVE",
"289 109 OFFCURVE",
"304 111 OFFCURVE",
"312 113 CURVE"
);
},
{
closed = 1;
nodes = (
"388 81 OFFCURVE",
"395 71 OFFCURVE",
"379 64 CURVE SMOOTH",
"358 56 OFFCURVE",
"357 72 OFFCURVE",
"342 121 CURVE",
"351 124 OFFCURVE",
"357 126 OFFCURVE",
"367 129 CURVE"
);
},
{
closed = 1;
nodes = (
"84 647 OFFCURVE",
"60 625 OFFCURVE",
"77 606 CURVE SMOOTH",
"159 512 LINE SMOOTH",
"171 499 OFFCURVE",
"189 514 OFFCURVE",
"178 528 CURVE SMOOTH",
"99 628 LINE SMOOTH"
);
},
{
closed = 1;
nodes = (
"228 667 LINE",
"176 775 LINE SMOOTH",
"165 798 OFFCURVE",
"134 781 OFFCURVE",
"146 760 CURVE SMOOTH",
"207 655 LINE"
);
},
{
closed = 1;
nodes = (
"315 799 OFFCURVE",
"278 791 OFFCURVE",
"283 767 CURVE SMOOTH",
"330 531 LINE SMOOTH",
"334 511 OFFCURVE",
"357 517 OFFCURVE",
"354 534 CURVE SMOOTH",
"319 771 LINE SMOOTH"
);
}
);
width = 472;
},
{
associatedMasterId = "DA12CC5E-F102-4B17-B99F-C66FBA9637B7";
layerId = "34B89577-1856-491D-B434-175B1E88C438";
name = "Feb 10 20, 18:37";
paths = (
{
closed = 1;
nodes = (
"98 487 OFFCURVE",
"208 523 OFFCURVE",
"301 523 CURVE SMOOTH",
"369 523 OFFCURVE",
"421 514 OFFCURVE",
"452 504 CURVE SMOOTH",
"477 496 OFFCURVE",
"495 521 OFFCURVE",
"490 549 CURVE SMOOTH",
"469 661 OFFCURVE",
"388 712 OFFCURVE",
"304 712 CURVE SMOOTH",
"166 712 OFFCURVE",
"40 593 OFFCURVE",
"40 350 CURVE SMOOTH",
"40 107 OFFCURVE",
"166 -12 OFFCURVE",
"304 -12 CURVE SMOOTH",
"392 -12 OFFCURVE",
"479 42 OFFCURVE",
"499 146 CURVE SMOOTH",
"505 180 OFFCURVE",
"488 203 OFFCURVE",
"458 194 CURVE SMOOTH",
"429 185 OFFCURVE",
"376 177 OFFCURVE",
"301 177 CURVE SMOOTH",
"208 177 OFFCURVE",
"98 213 OFFCURVE",
"98 350 CURVE SMOOTH"
);
}
);
width = 525;
},
{
associatedMasterId = "DA12CC5E-F102-4B17-B99F-C66FBA9637B7";
layerId = "DEB25A9A-9609-445B-AE18-4DF52201A075";
name = "Feb 11 20, 13:57";
paths = (
{
closed = 1;
nodes = (
"48 85 OFFCURVE",
"183 -12 OFFCURVE",
"316 -12 CURVE SMOOTH",
"387 -12 OFFCURVE",
"436 12 OFFCURVE",
"464 46 CURVE SMOOTH",
"508 99 OFFCURVE",
"478 197 OFFCURVE",
"422 197 CURVE SMOOTH",
"385 197 OFFCURVE",
"354 177 OFFCURVE",
"286 177 CURVE SMOOTH",
"171 177 OFFCURVE",
"107 210 OFFCURVE",
"107 313 CURVE SMOOTH",
"107 422 OFFCURVE",
"202 523 OFFCURVE",
"319 523 CURVE SMOOTH",
"375 523 OFFCURVE",
"406 503 OFFCURVE",
"444 503 CURVE SMOOTH",
"513 503 OFFCURVE",
"542 601 OFFCURVE",
"493 659 CURVE SMOOTH",
"465 692 OFFCURVE",
"410 712 OFFCURVE",
"361 712 CURVE SMOOTH",
"189 712 OFFCURVE",
"48 545 OFFCURVE",
"48 313 CURVE SMOOTH"
);
},
{
closed = 1;
nodes = (
"283 46 OFFCURVE",
"267 62 OFFCURVE",
"267 82 CURVE SMOOTH",
"267 102 OFFCURVE",
"283 118 OFFCURVE",
"303 118 CURVE SMOOTH",
"323 118 OFFCURVE",
"339 102 OFFCURVE",
"339 82 CURVE SMOOTH",
"339 62 OFFCURVE",
"323 46 OFFCURVE",
"303 46 CURVE SMOOTH"
);
},
{
closed = 1;
nodes = (
"376 79 OFFCURVE",
"364 91 OFFCURVE",
"364 107 CURVE SMOOTH",
"364 123 OFFCURVE",
"376 136 OFFCURVE",
"392 136 CURVE SMOOTH",
"409 136 OFFCURVE",
"421 123 OFFCURVE",
"421 107 CURVE SMOOTH",
"421 91 OFFCURVE",
"409 79 OFFCURVE",
"392 79 CURVE SMOOTH"
);
},
{
closed = 1;
nodes = (
"196 79 OFFCURVE",
"184 91 OFFCURVE",
"184 107 CURVE SMOOTH",
"184 123 OFFCURVE",
"196 136 OFFCURVE",
"213 136 CURVE SMOOTH",
"229 136 OFFCURVE",
"241 123 OFFCURVE",
"241 107 CURVE SMOOTH",
"241 91 OFFCURVE",
"229 79 OFFCURVE",
"213 79 CURVE SMOOTH"
);
},
{
closed = 1;
nodes = (
"342 590 OFFCURVE",
"286 590 OFFCURVE",
"288 632 CURVE SMOOTH",
"291 702 LINE",
"303 705 OFFCURVE",
"320 709 OFFCURVE",
"338 710 CURVE",
"341 625 LINE SMOOTH"
);
},
{
closed = 1;
nodes = (
"424 576 OFFCURVE",
"380 576 OFFCURVE",
"382 615 CURVE SMOOTH",
"386 710 LINE",
"402 708 OFFCURVE",
"426 701 OFFCURVE",
"440 695 CURVE",
"428 608 LINE SMOOTH"
);
}
);
width = 525;
},
{
associatedMasterId = "DA12CC5E-F102-4B17-B99F-C66FBA9637B7";
layerId = "C2B6350E-E7CD-44E6-A8BD-6A553EDBE838";
name = "Feb 11 20, 14:07";
paths = (
{
closed = 1;
nodes = (
"40 110 OFFCURVE",
"155 -12 OFFCURVE",
"315 -12 CURVE SMOOTH",
"391 -12 OFFCURVE",
"442 13 OFFCURVE",
"473 46 CURVE SMOOTH",
"527 103 OFFCURVE",
"498 217 OFFCURVE",
"431 217 CURVE SMOOTH",
"391 217 OFFCURVE",
"358 197 OFFCURVE",
"285 197 CURVE SMOOTH",
"169 197 OFFCURVE",
"98 246 OFFCURVE",
"98 360 CURVE SMOOTH",
"98 516 OFFCURVE",
"173 583 OFFCURVE",
"295 583 CURVE SMOOTH",
"373 583 OFFCURVE",
"402 558 OFFCURVE",
"445 558 CURVE SMOOTH",
"485 558 OFFCURVE",
"503 617 OFFCURVE",
"473 654 CURVE SMOOTH",
"445 688 OFFCURVE",
"391 712 OFFCURVE",
"315 712 CURVE SMOOTH",
"155 712 OFFCURVE",
"40 596 OFFCURVE",
"40 360 CURVE SMOOTH"
);
},
{
closed = 1;
nodes = (
"253 89 OFFCURVE",
"197 90 OFFCURVE",
"204 129 CURVE SMOOTH",
"218 203 LINE",
"230 200 OFFCURVE",
"248 197 OFFCURVE",
"265 197 CURVE",
"257 122 LINE SMOOTH"
);
},
{
closed = 1;
nodes = (
"375 51 OFFCURVE",
"334 40 OFFCURVE",
"327 75 CURVE SMOOTH",
"304 197 LINE",
"324 198 OFFCURVE",
"342 200 OFFCURVE",
"358 204 CURVE",
"372 80 LINE SMOOTH"
);
},
{
closed = 1;
nodes = (
"304 361 OFFCURVE",
"328 385 OFFCURVE",
"328 416 CURVE SMOOTH",
"328 445 OFFCURVE",
"304 469 OFFCURVE",
"275 469 CURVE SMOOTH",
"244 469 OFFCURVE",
"220 445 OFFCURVE",
"220 416 CURVE SMOOTH",
"220 385 OFFCURVE",
"244 361 OFFCURVE",
"275 361 CURVE SMOOTH"
);
}
);
width = 525;
}
);
unicode = 0043;
},
{
glyphname = D;
lastChange = "2020-05-19 01:25:41 +0000";
layers = (
{
anchors = (
{
name = bottom;
position = "{278, 0}";
},
{
name = top;
position = "{300, 681}";
}
);
layerId = "DA12CC5E-F102-4B17-B99F-C66FBA9637B7";
paths = (
{
closed = 1;
nodes = (
"123 11 OFFCURVE",
"153 -10 OFFCURVE",
"234 -10 CURVE SMOOTH",
"249 -10 LINE SMOOTH",
"418 -10 OFFCURVE",
"589 117 OFFCURVE",
"540 446 CURVE SMOOTH",
"515 617 OFFCURVE",
"422 680 OFFCURVE",
"270 703 CURVE SMOOTH",
"257 705 LINE SMOOTH",
"128 725 OFFCURVE",
"80 683 OFFCURVE",
"85 603 CURVE SMOOTH",
"119 79 LINE SMOOTH"
);
},
{
closed = 1;
nodes = (
"111 589 LINE SMOOTH",
"105 681 OFFCURVE",
"160 696 OFFCURVE",
"262 679 CURVE SMOOTH",
"268 678 LINE SMOOTH",
"452 647 OFFCURVE",
"587 542 OFFCURVE",
"417 214 CURVE SMOOTH",
"333 51 OFFCURVE",
"278 15 OFFCURVE",
"221 15 CURVE SMOOTH",
"213 15 LINE SMOOTH",
"173 15 OFFCURVE",
"147 32 OFFCURVE",
"144 81 CURVE SMOOTH"
);
},
{
closed = 1;
nodes = (
"455 163 OFFCURVE",
"442 176 OFFCURVE",
"442 192 CURVE SMOOTH",
"442 206 OFFCURVE",
"455 220 OFFCURVE",
"471 220 CURVE SMOOTH",
"486 220 OFFCURVE",
"499 206 OFFCURVE",
"499 192 CURVE SMOOTH",
"499 176 OFFCURVE",
"486 163 OFFCURVE",
"471 163 CURVE SMOOTH"
);
},
{
closed = 1;
nodes = (
"423 108 OFFCURVE",
"412 119 OFFCURVE",
"412 132 CURVE SMOOTH",
"412 144 OFFCURVE",
"423 154 OFFCURVE",
"435 154 CURVE SMOOTH",
"448 154 OFFCURVE",
"457 144 OFFCURVE",
"457 132 CURVE SMOOTH",
"457 119 OFFCURVE",
"448 108 OFFCURVE",
"435 108 CURVE SMOOTH"
);
},
{
closed = 1;
nodes = (
"483 238 OFFCURVE",
"473 250 OFFCURVE",
"473 260 CURVE SMOOTH",
"473 274 OFFCURVE",
"483 284 OFFCURVE",
"495 284 CURVE SMOOTH",
"509 284 OFFCURVE",
"517 274 OFFCURVE",
"517 260 CURVE SMOOTH",
"517 250 OFFCURVE",
"509 238 OFFCURVE",
"495 238 CURVE SMOOTH"
);
},
{
closed = 1;
nodes = (
"20 526 OFFCURVE",
"16 486 OFFCURVE",
"42 485 CURVE SMOOTH",
"238 476 LINE SMOOTH",
"258 475 OFFCURVE",
"262 504 OFFCURVE",
"236 506 CURVE SMOOTH",
"48 523 LINE SMOOTH"
);
},
{
closed = 1;
nodes = (
"-2 367 OFFCURVE",
"2 340 OFFCURVE",
"19 342 CURVE SMOOTH",
"218 363 LINE SMOOTH",
"237 365 OFFCURVE",
"234 399 OFFCURVE",
"211 396 CURVE SMOOTH",
"16 369 LINE SMOOTH"
);
},
{
closed = 1;
nodes = (
"191 247 OFFCURVE",
"193 276 OFFCURVE",
"168 276 CURVE SMOOTH",
"59 277 LINE SMOOTH",
"35 277 OFFCURVE",
"35 248 OFFCURVE",
"58 248 CURVE SMOOTH",
"170 247 LINE SMOOTH"
);
},
{
closed = 1;
nodes = (
"374 539 OFFCURVE",
"387 513 OFFCURVE",
"406 522 CURVE SMOOTH",
"584 606 LINE SMOOTH",
"602 615 OFFCURVE",
"593 645 OFFCURVE",
"570 634 CURVE SMOOTH",
"395 549 LINE SMOOTH"
);
},
{
closed = 1;
nodes = (
"442 615 LINE",
"489 673 LINE SMOOTH",
"502 690 OFFCURVE",
"481 712 OFFCURVE",
"464 695 CURVE SMOOTH",
"404 637 LINE"
);
}
);
width = 598;
},
{
associatedMasterId = "DA12CC5E-F102-4B17-B99F-C66FBA9637B7";
layerId = "8032E0AB-7522-45CB-9B17-903BCDAD9C7E";
name = "Feb 11 20, 14:37";
paths = (
{
closed = 1;
nodes = (
"64 17 OFFCURVE",
"99 0 OFFCURVE",
"213 0 CURVE SMOOTH",
"426 0 OFFCURVE",
"554 134 OFFCURVE",
"554 328 CURVE SMOOTH",
"554 594 OFFCURVE",
"393 705 OFFCURVE",
"243 705 CURVE SMOOTH",
"165 705 LINE SMOOTH",
"113 705 OFFCURVE",
"69 676 OFFCURVE",
"69 623 CURVE SMOOTH",
"65 75 LINE SMOOTH"
);
},
{
closed = 1;
nodes = (
"271 671 OFFCURVE",
"340 613 CURVE SMOOTH",
"401 561 OFFCURVE",
"402 443 OFFCURVE",
"351 296 CURVE SMOOTH",
"284 101 OFFCURVE",
"217 62 OFFCURVE",
"161 62 CURVE SMOOTH",
"144 62 OFFCURVE",
"133 67 OFFCURVE",
"133 88 CURVE SMOOTH",
"135 521 LINE SMOOTH",
"135 634 OFFCURVE"
);
},
{
closed = 1;
nodes = (
"416 190 OFFCURVE",
"396 210 OFFCURVE",
"396 233 CURVE SMOOTH",
"396 256 OFFCURVE",
"416 275 OFFCURVE",
"439 275 CURVE SMOOTH",
"462 275 OFFCURVE",
"481 256 OFFCURVE",
"481 233 CURVE SMOOTH",
"481 210 OFFCURVE",
"462 190 OFFCURVE",
"439 190 CURVE SMOOTH"
);
},
{
closed = 1;
nodes = (
"363 102 OFFCURVE",
"346 119 OFFCURVE",
"346 138 CURVE SMOOTH",
"346 158 OFFCURVE",
"363 173 OFFCURVE",
"382 173 CURVE SMOOTH",
"402 173 OFFCURVE",
"417 158 OFFCURVE",
"417 138 CURVE SMOOTH",
"417 119 OFFCURVE",
"402 102 OFFCURVE",
"382 102 CURVE SMOOTH"
);
},
{
closed = 1;
nodes = (
"443 309 OFFCURVE",
"426 326 OFFCURVE",
"426 345 CURVE SMOOTH",
"426 365 OFFCURVE",
"443 380 OFFCURVE",
"462 380 CURVE SMOOTH",
"482 380 OFFCURVE",
"497 365 OFFCURVE",
"497 345 CURVE SMOOTH",
"497 326 OFFCURVE",
"482 309 OFFCURVE",
"462 309 CURVE SMOOTH"
);
},
{
closed = 1;
nodes = (
"-10 533 OFFCURVE",
"-10 478 OFFCURVE",
"16 478 CURVE SMOOTH",
"209 478 LINE SMOOTH",
"232 478 OFFCURVE",
"232 533 OFFCURVE",
"209 533 CURVE SMOOTH",
"16 533 LINE SMOOTH"
);
},
{
closed = 1;
nodes = (
"-10 426 OFFCURVE",
"-10 371 OFFCURVE",
"16 371 CURVE SMOOTH",
"209 371 LINE SMOOTH",
"232 371 OFFCURVE",
"232 426 OFFCURVE",
"209 426 CURVE SMOOTH",
"16 426 LINE SMOOTH"
);
}
);
width = 600;
},
{
associatedMasterId = "DA12CC5E-F102-4B17-B99F-C66FBA9637B7";
layerId = "8D93BACD-02F2-4A8E-A3AF-6AB38409FF2C";
name = "Mar 9 20, 20:15";
paths = (
{
closed = 1;
nodes = (
"113 11 OFFCURVE",
"140 -10 OFFCURVE",
"234 -10 CURVE SMOOTH",
"253 -10 LINE SMOOTH",
"440 -10 OFFCURVE",
"574 158 OFFCURVE",
"574 413 CURVE SMOOTH",
"574 604 OFFCURVE",
"434 679 OFFCURVE",
"259 698 CURVE SMOOTH",
"193 705 LINE SMOOTH",
"108 713 OFFCURVE",
"71 671 OFFCURVE",
"75 603 CURVE SMOOTH",
"109 79 LINE SMOOTH"
);
},
{
closed = 1;
nodes = (
"239 650 OFFCURVE",
"307 625 CURVE SMOOTH",
"390 594 OFFCURVE",
"363 432 OFFCURVE",
"328 204 CURVE SMOOTH",
"311 91 OFFCURVE",
"258 52 OFFCURVE",
"220 52 CURVE SMOOTH",
"196 52 OFFCURVE",
"178 60 OFFCURVE",
"177 87 CURVE SMOOTH",
"163 551 LINE SMOOTH",
"161 642 OFFCURVE"
);
},
{
closed = 1;
nodes = (
"436 298 OFFCURVE",
"415 319 OFFCURVE",
"415 343 CURVE SMOOTH",
"415 367 OFFCURVE",
"436 386 OFFCURVE",
"460 386 CURVE SMOOTH",
"484 386 OFFCURVE",
"503 367 OFFCURVE",
"503 343 CURVE SMOOTH",
"503 319 OFFCURVE",
"484 298 OFFCURVE",
"460 298 CURVE SMOOTH"
);
},
{
closed = 1;
nodes = (
"416 187 OFFCURVE",
"399 204 OFFCURVE",
"399 223 CURVE SMOOTH",
"399 243 OFFCURVE",
"416 258 OFFCURVE",
"435 258 CURVE SMOOTH",
"455 258 OFFCURVE",
"470 243 OFFCURVE",
"470 223 CURVE SMOOTH",
"470 204 OFFCURVE",
"455 187 OFFCURVE",
"435 187 CURVE SMOOTH"
);
},
{
closed = 1;
nodes = (
"439 429 OFFCURVE",
"422 446 OFFCURVE",
"422 465 CURVE SMOOTH",
"422 485 OFFCURVE",
"439 500 OFFCURVE",
"458 500 CURVE SMOOTH",
"478 500 OFFCURVE",
"493 485 OFFCURVE",
"493 465 CURVE SMOOTH",
"493 446 OFFCURVE",
"478 429 OFFCURVE",
"458 429 CURVE SMOOTH"
);
},
{
closed = 1;
nodes = (
"-1 546 OFFCURVE",
"-3 479 OFFCURVE",
"28 478 CURVE SMOOTH",
"230 473 LINE SMOOTH",
"263 472 OFFCURVE",
"265 528 OFFCURVE",
"232 530 CURVE SMOOTH",
"38 543 LINE SMOOTH"
);
},
{
closed = 1;
nodes = (
"-8 397 OFFCURVE",
"-4 344 OFFCURVE",
"30 347 CURVE SMOOTH",
"230 367 LINE SMOOTH",
"259 370 OFFCURVE",
"259 433 OFFCURVE",
"223 428 CURVE SMOOTH",
"27 402 LINE SMOOTH"
);
}
);
width = 598;
}
);
unicode = 0044;
},
{
glyphname = E;
lastChange = "2020-05-26 00:33:55 +0000";
layers = (
{
anchors = (
{
name = cedilla;
position = "{279, 31}";
},
{
name = ogonek;
position = "{429, 57}";
},
{
name = top;
position = "{305, 693}";
}
);
layerId = "DA12CC5E-F102-4B17-B99F-C66FBA9637B7";
paths = (
{
closed = 1;
nodes = (
"50 7 OFFCURVE",
"71 -16 OFFCURVE",
"120 -13 CURVE SMOOTH",
"443 7 LINE SMOOTH",
"462 8 OFFCURVE",
"460 28 OFFCURVE",
"443 28 CURVE SMOOTH",
"155 21 LINE SMOOTH",
"131 20 OFFCURVE",
"118 32 OFFCURVE",
"115 64 CURVE SMOOTH",
"104 187 LINE SMOOTH",
"102 208 OFFCURVE",
"107 222 OFFCURVE",
"121 225 CURVE SMOOTH",
"386 281 LINE SMOOTH",
"408 286 OFFCURVE",
"398 312 OFFCURVE",
"379 308 CURVE SMOOTH",
"126 249 LINE SMOOTH",
"112 246 OFFCURVE",
"105 252 OFFCURVE",
"107 269 CURVE SMOOTH",
"135 575 LINE SMOOTH",
"137 602 OFFCURVE",
"146 610 OFFCURVE",
"173 607 CURVE SMOOTH",
"426 581 LINE SMOOTH",
"493 574 OFFCURVE",
"514 721 OFFCURVE",
"418 703 CURVE SMOOTH",
"161 656 LINE SMOOTH",
"136 651 OFFCURVE",
"120 636 OFFCURVE",
"116 601 CURVE SMOOTH",
"55 51 LINE SMOOTH"
);
},
{
closed = 1;
nodes = (
"322 391 OFFCURVE",
"341 410 OFFCURVE",
"341 435 CURVE SMOOTH",
"341 457 OFFCURVE",
"322 477 OFFCURVE",
"298 477 CURVE SMOOTH",
"273 477 OFFCURVE",
"254 457 OFFCURVE",
"254 435 CURVE SMOOTH",
"254 410 OFFCURVE",
"273 391 OFFCURVE",
"298 391 CURVE SMOOTH"
);
},
{
closed = 1;
nodes = (
"372 644 LINE SMOOTH",
"379 671 OFFCURVE",
"432 663 OFFCURVE",
"418 631 CURVE SMOOTH",
"397 584 LINE",
"358 588 LINE"
);
},
{
closed = 1;
nodes = (
"272 628 LINE SMOOTH",
"273 654 OFFCURVE",
"314 650 OFFCURVE",
"316 628 CURVE SMOOTH",
"319 592 LINE",
"271 597 LINE"
);
},
{
closed = 1;
nodes = (
"346 -67 OFFCURVE",
"378 -66 OFFCURVE",
"380 -38 CURVE SMOOTH",
"391 95 LINE SMOOTH",
"393 120 OFFCURVE",
"360 119 OFFCURVE",
"358 97 CURVE SMOOTH",
"348 -39 LINE SMOOTH"
);
},
{
closed = 1;
nodes = (
"259 -105 OFFCURVE",
"297 -97 OFFCURVE",
"294 -69 CURVE SMOOTH",
"276 81 LINE SMOOTH",
"273 104 OFFCURVE",
"242 97 OFFCURVE",
"244 77 CURVE SMOOTH",
"257 -77 LINE SMOOTH"
);
},
{
closed = 1;
nodes = (
"27 538 OFFCURVE",
"21 514 OFFCURVE",
"44 510 CURVE SMOOTH",
"193 481 LINE SMOOTH",
"215 477 OFFCURVE",
"223 510 OFFCURVE",
"200 513 CURVE SMOOTH",
"48 535 LINE SMOOTH"
);
},
{
closed = 1;
nodes = (
"41 467 OFFCURVE",
"32 438 OFFCURVE",
"53 431 CURVE SMOOTH",
"156 398 LINE SMOOTH",
"173 392 OFFCURVE",
"183 418 OFFCURVE",
"163 425 CURVE SMOOTH",
"61 460 LINE SMOOTH"
);
},
{
closed = 1;
nodes = (
"250 261 LINE",
"269 203 LINE SMOOTH",
"275 186 OFFCURVE",
"299 190 OFFCURVE",
"294 211 CURVE SMOOTH",
"279 269 LINE"
);
},
{
closed = 1;
nodes = (
"339 346 OFFCURVE",
"310 341 OFFCURVE",
"313 321 CURVE SMOOTH",
"332 197 LINE SMOOTH",
"335 179 OFFCURVE",
"368 182 OFFCURVE",
"364 204 CURVE SMOOTH",
"343 324 LINE SMOOTH"
);
}
);
width = 473;
}
);
unicode = 0045;
},
{
glyphname = F;
lastChange = "2020-05-26 01:18:47 +0000";
layers = (
{
anchors = (
{
name = bottom;
position = "{159, 0}";
},
{
name = top;
position = "{270, 700}";
}
);
associatedMasterId = "DA12CC5E-F102-4B17-B99F-C66FBA9637B7";
layerId = "DC085ABD-B477-4EDF-B9B1-8FD4B352827E";
name = "Apr 1 20, 12:54";
paths = (
{
closed = 1;
nodes = (
"27 -83 OFFCURVE",
"326 -30 OFFCURVE",
"264 109 CURVE SMOOTH",
"168 325 LINE SMOOTH",
"153 358 OFFCURVE",
"165 385 OFFCURVE",
"197 389 CURVE SMOOTH",
"378 409 LINE SMOOTH",
"424 414 OFFCURVE",
"413 493 OFFCURVE",
"370 485 CURVE SMOOTH",
"185 452 LINE SMOOTH",
"164 448 OFFCURVE",
"135 459 OFFCURVE",
"144 488 CURVE SMOOTH",
"165 558 LINE SMOOTH",
"174 587 OFFCURVE",
"195 604 OFFCURVE",
"222 602 CURVE SMOOTH",
"406 590 LINE SMOOTH",
"492 584 OFFCURVE",
"488 735 OFFCURVE",
"414 723 CURVE SMOOTH",
"139 679 LINE SMOOTH",
"97 672 OFFCURVE",
"80 648 OFFCURVE",
"77 606 CURVE SMOOTH",
"37 54 LINE SMOOTH"
);
},
{
closed = 1;
nodes = (
"104 265 LINE SMOOTH",
"144 273 OFFCURVE",
"162 196 OFFCURVE",
"111 191 CURVE SMOOTH",
"47 185 LINE",
"52 254 LINE"
);
},
{
closed = 1;
nodes = (
"141 150 LINE SMOOTH",
"182 153 OFFCURVE",
"187 81 OFFCURVE",
"141 83 CURVE SMOOTH",
"39 87 LINE",
"43 142 LINE"
);
},
{
closed = 1;
nodes = (
"132 330 LINE",
"302 283 LINE SMOOTH",
"343 272 OFFCURVE",
"368 347 OFFCURVE",
"322 355 CURVE SMOOTH",
"138 386 LINE"
);
}
);
width = 462;
},
{
anchors = (
{
name = bottom;
position = "{159, 0}";
},
{
name = top;
position = "{270, 700}";
}
);
associatedMasterId = "DA12CC5E-F102-4B17-B99F-C66FBA9637B7";
layerId = "496EDB40-19ED-4EDD-AE51-94F445456B3F";
name = "Apr 1 20, 13:04";
paths = (
{
closed = 1;
nodes = (
"27 -83 OFFCURVE",
"337 -24 OFFCURVE",
"264 109 CURVE SMOOTH",
"171 277 LINE SMOOTH",
"159 299 OFFCURVE",
"170 318 OFFCURVE",
"194 311 CURVE SMOOTH",
"211 306 LINE",
"185 404 LINE",
"378 409 LINE SMOOTH",
"424 410 OFFCURVE",
"413 494 OFFCURVE",
"370 485 CURVE SMOOTH",
"170 443 LINE SMOOTH",
"143 437 OFFCURVE",
"131 452 OFFCURVE",
"139 477 CURVE SMOOTH",
"165 558 LINE SMOOTH",
"175 588 OFFCURVE",
"195 604 OFFCURVE",
"222 602 CURVE SMOOTH",
"406 590 LINE SMOOTH",
"492 584 OFFCURVE",
"488 735 OFFCURVE",
"414 723 CURVE SMOOTH",
"139 679 LINE SMOOTH",
"97 672 OFFCURVE",
"80 648 OFFCURVE",
"77 606 CURVE SMOOTH",
"37 54 LINE SMOOTH"
);
},
{
closed = 1;
nodes = (
"102 244 LINE SMOOTH",
"142 252 OFFCURVE",
"160 175 OFFCURVE",
"109 170 CURVE SMOOTH",
"45 164 LINE",
"50 233 LINE"
);
},
{
closed = 1;
nodes = (
"140 133 LINE SMOOTH",
"181 136 OFFCURVE",
"186 64 OFFCURVE",
"140 66 CURVE SMOOTH",
"38 70 LINE",
"42 125 LINE"
);
},
{
closed = 1;
nodes = (
"321 275 LINE SMOOTH",
"361 264 OFFCURVE",
"382 346 OFFCURVE",
"335 351 CURVE SMOOTH",
"233 362 LINE SMOOTH",
"209 365 OFFCURVE",
"198 404 OFFCURVE",
"244 406 CURVE",
"92 407 LINE",
"141 326 LINE"
);
}
);
width = 462;
},
{
anchors = (
{
name = bottom;
position = "{159, 0}";
},
{
name = top;
position = "{270, 700}";
}
);
associatedMasterId = "DA12CC5E-F102-4B17-B99F-C66FBA9637B7";
layerId = "5DD95FCE-7177-4FE1-8FC3-1268367517A2";
name = "Apr 17 20, 12:20";
paths = (
{
closed = 1;
nodes = (
"30 -49 OFFCURVE",
"190 -32 OFFCURVE",
"165 58 CURVE SMOOTH",
"91 324 LINE SMOOTH",
"84 348 OFFCURVE",
"99 361 OFFCURVE",
"120 355 CURVE SMOOTH",
"295 303 LINE SMOOTH",
"321 295 OFFCURVE",
"332 332 OFFCURVE",
"300 338 CURVE SMOOTH",
"145 369 LINE SMOOTH",
"132 372 OFFCURVE",
"134 386 OFFCURVE",
"147 388 CURVE SMOOTH",
"359 414 LINE SMOOTH",
"396 419 OFFCURVE",
"386 448 OFFCURVE",
"357 443 CURVE SMOOTH",
"127 402 LINE SMOOTH",
"101 397 OFFCURVE",
"88 412 OFFCURVE",
"89 431 CURVE SMOOTH",
"101 607 LINE SMOOTH",
"103 640 OFFCURVE",
"115 658 OFFCURVE",
"139 660 CURVE SMOOTH",
"395 677 LINE SMOOTH",
"413 678 OFFCURVE",
"413 703 OFFCURVE",
"395 702 CURVE SMOOTH",
"133 682 LINE SMOOTH",
"102 680 OFFCURVE",
"80 660 OFFCURVE",
"78 628 CURVE SMOOTH",
"36 36 LINE SMOOTH"
);
},
{
closed = 1;
nodes = (
"92 159 LINE SMOOTH",
"112 163 OFFCURVE",
"117 137 OFFCURVE",
"95 132 CURVE SMOOTH",
"42 121 LINE",
"44 150 LINE"
);
},
{
closed = 1;
nodes = (
"91 86 LINE SMOOTH",
"114 83 OFFCURVE",
"111 42 OFFCURVE",
"84 50 CURVE SMOOTH",
"38 63 LINE",
"40 92 LINE"
);
},
{
closed = 1;
nodes = (
"76 214 LINE SMOOTH",
"95 213 OFFCURVE",
"93 188 OFFCURVE",
"76 184 CURVE SMOOTH",
"46 176 LINE",
"49 216 LINE"
);
},
{
closed = 1;
nodes = (
"259 677 LINE",
"284 677 LINE",
"293 758 LINE SMOOTH",
"295 777 OFFCURVE",
"273 778 OFFCURVE",
"270 759 CURVE SMOOTH"
);
},
{
closed = 1;
nodes = (
"355 571 OFFCURVE",
"358 602 OFFCURVE",
"334 603 CURVE SMOOTH",
"155 608 LINE SMOOTH",
"137 609 OFFCURVE",
"135 584 OFFCURVE",
"153 583 CURVE SMOOTH",
"331 572 LINE SMOOTH"
);
},
{
closed = 1;
nodes = (
"232 523 LINE SMOOTH",
"235 503 OFFCURVE",
"264 508 OFFCURVE",
"260 527 CURVE SMOOTH",
"220 736 LINE SMOOTH",
"217 753 OFFCURVE",
"194 748 OFFCURVE",
"197 731 CURVE SMOOTH"
);
}
);
width = 432;
},
{
anchors = (
{
name = bottom;
position = "{171, 0}";
},
{
name = top;
position = "{282, 700}";
}
);
associatedMasterId = "DA12CC5E-F102-4B17-B99F-C66FBA9637B7";
layerId = "171F3440-D1D5-4E73-96AC-8AA6E4536776";
name = "May 13 20, 16:29";
paths = (
{
closed = 1;
nodes = (
"48 36 LINE SMOOTH",
"42 -49 OFFCURVE",
"198 -33 OFFCURVE",
"177 58 CURVE SMOOTH",
"117 321 LINE SMOOTH",
"111 349 OFFCURVE",
"124 358 OFFCURVE",
"145 352 CURVE SMOOTH",
"307 303 LINE SMOOTH",
"333 295 OFFCURVE",
"344 332 OFFCURVE",
"312 338 CURVE SMOOTH",
"157 369 LINE SMOOTH",
"143 372 OFFCURVE",
"145 386 OFFCURVE",
"159 388 CURVE SMOOTH",
"370 414 LINE SMOOTH",
"399 418 OFFCURVE",
"390 447 OFFCURVE",
"369 443 CURVE SMOOTH",
"139 402 LINE SMOOTH",
"113 397 OFFCURVE",
"100 412 OFFCURVE",
"101 431 CURVE SMOOTH",
"113 607 LINE SMOOTH",
"115 640 OFFCURVE",
"127 658 OFFCURVE",
"151 660 CURVE SMOOTH",
"405 677 LINE SMOOTH",
"425 678 OFFCURVE",
"425 704 OFFCURVE",
"405 702 CURVE SMOOTH",
"145 682 LINE SMOOTH",
"114 680 OFFCURVE",
"92 660 OFFCURVE",
"90 628 CURVE SMOOTH",
"61 216 LINE",
"88 214 LINE SMOOTH",
"107 213 OFFCURVE",
"105 188 OFFCURVE",
"88 184 CURVE SMOOTH",
"58 176 LINE",
"56 150 LINE",
"104 159 LINE SMOOTH",
"124 163 OFFCURVE",
"129 137 OFFCURVE",
"107 132 CURVE SMOOTH",
"54 121 LINE",
"52 92 LINE",
"103 86 LINE SMOOTH",
"126 83 OFFCURVE",
"123 42 OFFCURVE",
"96 50 CURVE SMOOTH",
"50 63 LINE"
);
},
{
closed = 1;
nodes = (
"272 678 LINE",
"302 677 LINE",
"311 758 LINE SMOOTH",
"313 777 OFFCURVE",
"286 779 OFFCURVE",
"283 760 CURVE SMOOTH"
);
},
{
closed = 1;
nodes = (
"367 573 OFFCURVE",
"370 602 OFFCURVE",
"346 603 CURVE SMOOTH",
"167 608 LINE SMOOTH",
"149 609 OFFCURVE",
"147 586 OFFCURVE",
"165 585 CURVE SMOOTH",
"343 574 LINE SMOOTH"
);
},
{
closed = 1;
nodes = (
"231 540 LINE SMOOTH",
"233 520 OFFCURVE",
"263 525 OFFCURVE",
"260 544 CURVE SMOOTH",
"232 736 LINE SMOOTH",
"229 755 OFFCURVE",
"205 752 OFFCURVE",
"207 733 CURVE SMOOTH"
);
}
);
width = 408;
},
{
anchors = (
{
name = bottom;
position = "{171, 0}";
},
{
name = top;
position = "{282, 700}";
}
);
layerId = "DA12CC5E-F102-4B17-B99F-C66FBA9637B7";
paths = (
{
closed = 1;
nodes = (
"42 -49 OFFCURVE",
"198 -33 OFFCURVE",
"177 58 CURVE SMOOTH",
"117 321 LINE SMOOTH",
"111 349 OFFCURVE",
"124 358 OFFCURVE",
"145 352 CURVE SMOOTH",
"307 303 LINE SMOOTH",
"333 295 OFFCURVE",
"344 332 OFFCURVE",
"312 338 CURVE SMOOTH",
"157 369 LINE SMOOTH",
"143 372 OFFCURVE",
"145 386 OFFCURVE",
"159 388 CURVE SMOOTH",
"370 414 LINE SMOOTH",
"399 418 OFFCURVE",
"390 447 OFFCURVE",
"369 443 CURVE SMOOTH",
"139 402 LINE SMOOTH",
"113 397 OFFCURVE",
"100 412 OFFCURVE",
"101 431 CURVE SMOOTH",
"113 607 LINE SMOOTH",
"115 640 OFFCURVE",
"127 658 OFFCURVE",
"151 660 CURVE SMOOTH",
"405 677 LINE SMOOTH",
"425 678 OFFCURVE",
"425 704 OFFCURVE",
"405 702 CURVE SMOOTH",
"145 682 LINE SMOOTH",
"114 680 OFFCURVE",
"92 660 OFFCURVE",
"90 628 CURVE SMOOTH",
"48 36 LINE SMOOTH"
);
},
{
closed = 1;
nodes = (
"104 159 LINE SMOOTH",
"124 163 OFFCURVE",
"129 137 OFFCURVE",
"107 132 CURVE SMOOTH",
"54 121 LINE",
"56 150 LINE"
);
},
{
closed = 1;
nodes = (
"103 86 LINE SMOOTH",
"126 83 OFFCURVE",
"123 42 OFFCURVE",
"96 50 CURVE SMOOTH",
"50 63 LINE",
"52 92 LINE"
);
},
{
closed = 1;
nodes = (
"88 214 LINE SMOOTH",
"107 213 OFFCURVE",
"105 188 OFFCURVE",
"88 184 CURVE SMOOTH",
"58 176 LINE",
"61 216 LINE"
);
},
{
closed = 1;
nodes = (
"272 678 LINE",
"302 677 LINE",
"311 758 LINE SMOOTH",
"313 777 OFFCURVE",
"286 779 OFFCURVE",
"283 760 CURVE SMOOTH"
);
},
{
closed = 1;
nodes = (
"367 573 OFFCURVE",
"370 602 OFFCURVE",
"346 603 CURVE SMOOTH",
"167 608 LINE SMOOTH",
"149 609 OFFCURVE",
"147 586 OFFCURVE",
"165 585 CURVE SMOOTH",
"343 574 LINE SMOOTH"
);
},
{
closed = 1;
nodes = (
"231 540 LINE SMOOTH",
"233 520 OFFCURVE",
"263 525 OFFCURVE",
"260 544 CURVE SMOOTH",
"232 736 LINE SMOOTH",
"229 755 OFFCURVE",
"205 752 OFFCURVE",
"207 733 CURVE SMOOTH"
);
}
);
width = 408;
}
);
unicode = 0046;
},
{
glyphname = G;
lastChange = "2020-05-25 22:33:37 +0000";
layers = (
{
anchors = (
{
name = bottom;
position = "{337, 0}";
},
{
name = top;
position = "{343, 700}";
}
);
layerId = "DA12CC5E-F102-4B17-B99F-C66FBA9637B7";
paths = (
{
closed = 1;
nodes = (
"39 78 OFFCURVE",
"175 16 OFFCURVE",
"282 16 CURVE SMOOTH",
"373 16 OFFCURVE",
"451 51 OFFCURVE",
"497 98 CURVE SMOOTH",
"517 118 OFFCURVE",
"528 101 OFFCURVE",
"526 83 CURVE SMOOTH",
"513 -37 LINE SMOOTH",
"509 -78 OFFCURVE",
"593 -83 OFFCURVE",
"585 -26 CURVE SMOOTH",
"545 265 LINE SMOOTH",
"540 300 OFFCURVE",
"534 327 OFFCURVE",
"496 330 CURVE SMOOTH",
"398 337 LINE SMOOTH",
"375 339 OFFCURVE",
"373 307 OFFCURVE",
"397 306 CURVE SMOOTH",
"485 304 LINE SMOOTH",
"518 303 OFFCURVE",
"527 283 OFFCURVE",
"527 223 CURVE SMOOTH",
"527 104 OFFCURVE",
"408 41 OFFCURVE",
"281 41 CURVE SMOOTH",
"147 41 OFFCURVE",
"64 129 OFFCURVE",
"64 274 CURVE SMOOTH",
"64 394 OFFCURVE",
"114 450 OFFCURVE",
"206 510 CURVE SMOOTH",
"278 558 OFFCURVE",
"364 592 OFFCURVE",
"416 604 CURVE SMOOTH",
"470 616 OFFCURVE",
"490 638 OFFCURVE",
"490 665 CURVE SMOOTH",
"490 690 OFFCURVE",
"470 712 OFFCURVE",
"389 712 CURVE SMOOTH",
"252 712 OFFCURVE",
"39 621 OFFCURVE",
"39 275 CURVE SMOOTH"
);
},
{
closed = 1;
nodes = (
"333 619 OFFCURVE",
"321 630 OFFCURVE",
"321 646 CURVE SMOOTH",
"321 659 OFFCURVE",
"333 671 OFFCURVE",
"348 671 CURVE SMOOTH",
"361 671 OFFCURVE",
"373 659 OFFCURVE",
"373 646 CURVE SMOOTH",
"373 630 OFFCURVE",
"361 619 OFFCURVE",
"348 619 CURVE SMOOTH"
);
},
{
closed = 1;
nodes = (
"251 582 OFFCURVE",
"235 598 OFFCURVE",
"235 616 CURVE SMOOTH",
"235 634 OFFCURVE",
"251 649 OFFCURVE",
"269 649 CURVE SMOOTH",
"287 649 OFFCURVE",
"302 634 OFFCURVE",
"302 616 CURVE SMOOTH",
"302 598 OFFCURVE",
"287 582 OFFCURVE",
"269 582 CURVE SMOOTH"
);
},
{
closed = 1;
nodes = (
"184 542 OFFCURVE",
"172 554 OFFCURVE",
"172 568 CURVE SMOOTH",
"172 582 OFFCURVE",
"184 594 OFFCURVE",
"198 594 CURVE SMOOTH",
"211 594 OFFCURVE",
"223 582 OFFCURVE",
"223 568 CURVE SMOOTH",
"223 554 OFFCURVE",
"211 542 OFFCURVE",
"198 542 CURVE SMOOTH"
);
},
{
closed = 1;
nodes = (
"417 215 OFFCURVE",
"416 240 OFFCURVE",
"397 240 CURVE SMOOTH",
"243 243 LINE SMOOTH",
"214 244 OFFCURVE",
"216 204 OFFCURVE",
"246 206 CURVE SMOOTH",
"397 214 LINE SMOOTH"
);
},
{
closed = 1;
nodes = (
"344 307 OFFCURVE",
"346 339 OFFCURVE",
"327 340 CURVE SMOOTH",
"279 343 LINE SMOOTH",
"255 344 OFFCURVE",
"253 307 OFFCURVE",
"281 307 CURVE SMOOTH",
"324 307 LINE SMOOTH"
);
},
{
closed = 1;
nodes = (
"469 205 OFFCURVE",
"479 214 OFFCURVE",
"479 228 CURVE SMOOTH",
"479 240 OFFCURVE",
"469 250 OFFCURVE",
"457 250 CURVE SMOOTH",
"443 250 OFFCURVE",
"434 240 OFFCURVE",
"434 228 CURVE SMOOTH",
"434 214 OFFCURVE",
"443 205 OFFCURVE",
"457 205 CURVE SMOOTH"
);
},
{
closed = 1;
nodes = (
"192 151 OFFCURVE",
"167 170 OFFCURVE",
"152 148 CURVE SMOOTH",
"70 25 LINE SMOOTH",
"54 1 OFFCURVE",
"79 -15 OFFCURVE",
"96 10 CURVE SMOOTH",
"177 129 LINE SMOOTH"
);
},
{
closed = 1;
nodes = (
"260 155 OFFCURVE",
"234 157 OFFCURVE",
"229 138 CURVE SMOOTH",
"174 -65 LINE SMOOTH",
"166 -94 OFFCURVE",
"201 -97 OFFCURVE",
"208 -67 CURVE SMOOTH",
"255 135 LINE SMOOTH"
);
}
);
width = 590;
},
{
associatedMasterId = "DA12CC5E-F102-4B17-B99F-C66FBA9637B7";
layerId = "BF0716D5-F56E-4CCC-8140-EDF1DE7F178A";
name = "Mar 9 20, 20:37";
paths = (
{
closed = 1;
nodes = (
"24 79 OFFCURVE",
"137 19 OFFCURVE",
"240 19 CURVE SMOOTH",
"296 19 OFFCURVE",
"366 42 OFFCURVE",
"397 63 CURVE SMOOTH",
"415 75 OFFCURVE",
"424 58 OFFCURVE",
"420 42 CURVE SMOOTH",
"405 -20 LINE SMOOTH",
"376 -141 OFFCURVE",
"555 -143 OFFCURVE",
"543 -26 CURVE SMOOTH",
"513 265 LINE SMOOTH",
"509 306 OFFCURVE",
"497 328 OFFCURVE",
"468 332 CURVE SMOOTH",
"341 351 LINE SMOOTH",
"297 358 OFFCURVE",
"282 286 OFFCURVE",
"339 285 CURVE SMOOTH",
"419 284 LINE SMOOTH",
"452 284 OFFCURVE",
"460 268 OFFCURVE",
"460 223 CURVE SMOOTH",
"460 133 OFFCURVE",
"356 82 OFFCURVE",
"244 82 CURVE SMOOTH",
"155 82 OFFCURVE",
"111 166 OFFCURVE",
"111 240 CURVE SMOOTH",
"112 337 OFFCURVE",
"156 387 OFFCURVE",
"203 407 CURVE SMOOTH",
"259 431 OFFCURVE",
"361 456 OFFCURVE",
"416 466 CURVE SMOOTH",
"501 481 OFFCURVE",
"525 520 OFFCURVE",
"525 598 CURVE SMOOTH",
"525 658 OFFCURVE",
"474 712 OFFCURVE",
"341 712 CURVE SMOOTH",
"203 712 OFFCURVE",
"24 642 OFFCURVE",
"24 265 CURVE SMOOTH"
);
},
{
closed = 1;
nodes = (
"374 543 OFFCURVE",
"358 559 OFFCURVE",
"358 579 CURVE SMOOTH",
"358 597 OFFCURVE",
"374 614 OFFCURVE",
"394 614 CURVE SMOOTH",
"412 614 OFFCURVE",
"429 597 OFFCURVE",
"429 579 CURVE SMOOTH",
"429 559 OFFCURVE",
"412 543 OFFCURVE",
"394 543 CURVE SMOOTH"
);
},
{
closed = 1;
nodes = (
"261 527 OFFCURVE",
"240 548 OFFCURVE",
"240 573 CURVE SMOOTH",
"240 597 OFFCURVE",
"261 618 OFFCURVE",
"286 618 CURVE SMOOTH",
"310 618 OFFCURVE",
"331 597 OFFCURVE",
"331 573 CURVE SMOOTH",
"331 548 OFFCURVE",
"310 527 OFFCURVE",
"286 527 CURVE SMOOTH"
);
},
{
closed = 1;
nodes = (
"166 488 OFFCURVE",
"150 504 OFFCURVE",
"150 524 CURVE SMOOTH",
"150 542 OFFCURVE",
"166 559 OFFCURVE",
"186 559 CURVE SMOOTH",
"204 559 OFFCURVE",
"221 542 OFFCURVE",
"221 524 CURVE SMOOTH",
"221 504 OFFCURVE",
"204 488 OFFCURVE",
"186 488 CURVE SMOOTH"
);
},
{
closed = 1;
nodes = (
"411 196 OFFCURVE",
"411 240 OFFCURVE",
"376 239 CURVE SMOOTH",
"262 237 LINE SMOOTH",
"224 236 OFFCURVE",
"223 166 OFFCURVE",
"268 173 CURVE SMOOTH",
"380 191 LINE SMOOTH"
);
}
);
width = 567;
}
);
unicode = 0047;
},
{
glyphname = H;
lastChange = "2020-05-23 00:53:06 +0000";
layers = (
{
anchors = (
{
name = bottom;
position = "{236, -20}";
},
{
name = top;
position = "{308, 710}";
}
);
layerId = "DA12CC5E-F102-4B17-B99F-C66FBA9637B7";
paths = (
{
closed = 1;
nodes = (
"458 305 OFFCURVE",
"463 301 OFFCURVE",
"463 291 CURVE SMOOTH",
"455 -18 LINE SMOOTH",
"454 -44 OFFCURVE",
"495 -44 OFFCURVE",
"494 -18 CURVE SMOOTH",
"475 656 LINE SMOOTH",
"474 675 OFFCURVE",
"456 675 OFFCURVE",
"455 656 CURVE SMOOTH",
"448 440 LINE SMOOTH",
"448 430 OFFCURVE",
"443 423 OFFCURVE",
"433 422 CURVE SMOOTH",
"137 394 LINE SMOOTH",
"127 393 OFFCURVE",
"122 402 OFFCURVE",
"122 412 CURVE SMOOTH",
"132 711 LINE SMOOTH",
"133 729 OFFCURVE",
"112 729 OFFCURVE",
"111 711 CURVE SMOOTH",
"83 70 LINE SMOOTH",
"82 48 OFFCURVE",
"107 48 OFFCURVE",
"108 70 CURVE SMOOTH",
"116 306 LINE SMOOTH",
"116 316 OFFCURVE",
"124 320 OFFCURVE",
"134 320 CURVE SMOOTH",
"448 305 LINE SMOOTH"
);
},
{
closed = 1;
nodes = (
"350 347 LINE SMOOTH",
"353 374 OFFCURVE",
"388 373 OFFCURVE",
"388 346 CURVE SMOOTH",
"388 308 LINE",
"346 310 LINE"
);
},
{
closed = 1;
nodes = (
"262 354 LINE SMOOTH",
"261 378 OFFCURVE",
"299 379 OFFCURVE",
"300 352 CURVE SMOOTH",
"301 312 LINE",
"263 314 LINE"
);
},
{
closed = 1;
nodes = (
"248 480 OFFCURVE",
"264 496 OFFCURVE",
"264 515 CURVE SMOOTH",
"264 534 OFFCURVE",
"248 550 OFFCURVE",
"229 550 CURVE SMOOTH",
"210 550 OFFCURVE",
"194 534 OFFCURVE",
"194 515 CURVE SMOOTH",
"194 496 OFFCURVE",
"210 480 OFFCURVE",
"229 480 CURVE SMOOTH"
);
},
{
closed = 1;
nodes = (
"270 591 OFFCURVE",
"292 612 OFFCURVE",
"292 636 CURVE SMOOTH",
"292 661 OFFCURVE",
"270 683 OFFCURVE",
"247 683 CURVE SMOOTH",
"221 683 OFFCURVE",
"200 661 OFFCURVE",
"200 636 CURVE SMOOTH",
"200 612 OFFCURVE",
"221 591 OFFCURVE",
"247 591 CURVE SMOOTH"
);
},
{
closed = 1;
nodes = (
"390 510 OFFCURVE",
"409 529 OFFCURVE",
"409 551 CURVE SMOOTH",
"409 574 OFFCURVE",
"390 593 OFFCURVE",
"368 593 CURVE SMOOTH",
"345 593 OFFCURVE",
"326 574 OFFCURVE",
"326 551 CURVE SMOOTH",
"326 529 OFFCURVE",
"345 510 OFFCURVE",
"368 510 CURVE SMOOTH"
);
},
{
closed = 1;
nodes = (
"288 178 OFFCURVE",
"287 152 OFFCURVE",
"304 151 CURVE SMOOTH",
"520 142 LINE SMOOTH",
"538 141 OFFCURVE",
"543 168 OFFCURVE",
"518 169 CURVE SMOOTH",
"309 177 LINE SMOOTH"
);
},
{
closed = 1;
nodes = (
"320 76 OFFCURVE",
"326 43 OFFCURVE",
"350 45 CURVE SMOOTH",
"532 57 LINE SMOOTH",
"550 58 OFFCURVE",
"551 87 OFFCURVE",
"526 86 CURVE SMOOTH",
"348 77 LINE SMOOTH"
);
},
{
closed = 1;
nodes = (
"24 238 OFFCURVE",
"22 214 OFFCURVE",
"40 212 CURVE SMOOTH",
"177 197 LINE SMOOTH",
"200 194 OFFCURVE",
"203 221 OFFCURVE",
"179 223 CURVE SMOOTH",
"45 236 LINE SMOOTH"
);
}
);
width = 567;
}
);
unicode = 0048;
},
{
glyphname = I;
lastChange = "2020-05-19 00:34:23 +0000";
layers = (
{
anchors = (
{
name = ogonek;
position = "{326, 10}";
},
{
name = top;
position = "{240, 715}";
}
);
layerId = "DA12CC5E-F102-4B17-B99F-C66FBA9637B7";
paths = (
{
closed = 1;
nodes = (
"370 13 LINE SMOOTH",
"421 16 OFFCURVE",
"410 103 OFFCURVE",
"360 96 CURVE SMOOTH",
"268 84 LINE SMOOTH",
"254 82 OFFCURVE",
"249 88 OFFCURVE",
"248 108 CURVE SMOOTH",
"229 578 LINE SMOOTH",
"228 598 OFFCURVE",
"235 607 OFFCURVE",
"258 607 CURVE SMOOTH",
"365 606 LINE SMOOTH",
"408 606 OFFCURVE",
"421 677 OFFCURVE",
"366 683 CURVE SMOOTH",
"74 715 LINE SMOOTH",
"9 722 OFFCURVE",
"3 616 OFFCURVE",
"66 613 CURVE SMOOTH",
"172 608 LINE SMOOTH",
"193 607 OFFCURVE",
"204 600 OFFCURVE",
"205 580 CURVE SMOOTH",
"225 104 LINE SMOOTH",
"226 86 OFFCURVE",
"222 78 OFFCURVE",
"204 75 CURVE SMOOTH",
"63 53 LINE SMOOTH",
"26 47 OFFCURVE",
"34 -9 OFFCURVE",
"69 -7 CURVE SMOOTH"
);
},
{
closed = 1;
nodes = (
"224 490 LINE",
"303 497 LINE SMOOTH",
"326 499 OFFCURVE",
"325 525 OFFCURVE",
"300 523 CURVE SMOOTH",
"222 517 LINE"
);
},
{
closed = 1;
nodes = (
"72 429 OFFCURVE",
"72 404 OFFCURVE",
"94 403 CURVE SMOOTH",
"332 387 LINE SMOOTH",
"357 385 OFFCURVE",
"360 414 OFFCURVE",
"335 415 CURVE SMOOTH",
"96 428 LINE SMOOTH"
);
},
{
closed = 1;
nodes = (
"124 306 OFFCURVE",
"128 278 OFFCURVE",
"146 280 CURVE SMOOTH",
"230 289 LINE",
"227 313 LINE",
"144 307 LINE SMOOTH"
);
},
{
closed = 1;
nodes = (
"81 201 OFFCURVE",
"84 171 OFFCURVE",
"110 173 CURVE SMOOTH",
"295 186 LINE SMOOTH",
"316 187 OFFCURVE",
"312 211 OFFCURVE",
"292 210 CURVE SMOOTH",
"107 202 LINE SMOOTH"
);
},
{
closed = 1;
nodes = (
"165 705 LINE",
"161 661 LINE SMOOTH",
"159 641 OFFCURVE",
"129 641 OFFCURVE",
"132 664 CURVE SMOOTH",
"138 708 LINE"
);
},
{
closed = 1;
nodes = (
"220 699 LINE",
"217 655 LINE SMOOTH",
"216 636 OFFCURVE",
"195 634 OFFCURVE",
"194 657 CURVE SMOOTH",
"193 702 LINE"
);
},
{
closed = 1;
nodes = (
"275 693 LINE",
"275 653 LINE SMOOTH",
"275 635 OFFCURVE",
"243 638 OFFCURVE",
"245 660 CURVE SMOOTH",
"249 696 LINE"
);
},
{
closed = 1;
nodes = (
"264 38 LINE SMOOTH",
"264 53 OFFCURVE",
"283 57 OFFCURVE",
"287 42 CURVE SMOOTH",
"296 8 LINE",
"265 6 LINE"
);
},
{
closed = 1;
nodes = (
"318 54 LINE SMOOTH",
"316 71 OFFCURVE",
"342 78 OFFCURVE",
"346 57 CURVE SMOOTH",
"354 12 LINE",
"324 10 LINE"
);
}
);
width = 417;
},
{
associatedMasterId = "DA12CC5E-F102-4B17-B99F-C66FBA9637B7";
layerId = "03007A4B-BD59-4DC4-8691-0D907A7AD736";
name = "Feb 18 20, 14:26";
paths = (
{
closed = 1;
nodes = (
"266 29 LINE",
"231 570 LINE",
"167 570 LINE",
"215 30 LINE"
);
},
{
closed = 1;
nodes = (
"2 58 OFFCURVE",
"8 -36 OFFCURVE",
"73 -28 CURVE SMOOTH",
"390 10 LINE SMOOTH",
"430 16 OFFCURVE",
"429 83 OFFCURVE",
"383 80 CURVE SMOOTH",
"65 62 LINE SMOOTH"
);
},
{
closed = 1;
nodes = (
"-18 719 OFFCURVE",
"-16 502 OFFCURVE",
"106 512 CURVE SMOOTH",
"329 530 LINE SMOOTH",
"441 539 OFFCURVE",
"444 681 OFFCURVE",
"335 690 CURVE SMOOTH",
"100 709 LINE SMOOTH"
);
},
{
closed = 1;
nodes = (
"74 240 OFFCURVE",
"84 168 OFFCURVE",
"133 182 CURVE SMOOTH",
"303 230 LINE SMOOTH",
"338 240 OFFCURVE",
"327 294 OFFCURVE",
"289 286 CURVE SMOOTH",
"113 248 LINE SMOOTH"
);
},
{
closed = 1;
nodes = (
"113 397 OFFCURVE",
"109 347 OFFCURVE",
"149 343 CURVE SMOOTH",
"350 325 LINE SMOOTH",
"389 322 OFFCURVE",
"392 392 OFFCURVE",
"352 393 CURVE SMOOTH",
"153 396 LINE SMOOTH"
);
},
{
closed = 1;
nodes = (
"263 696 LINE",
"267 637 LINE SMOOTH",
"270 594 OFFCURVE",
"207 584 OFFCURVE",
"207 628 CURVE SMOOTH",
"207 700 LINE"
);
},
{
closed = 1;
nodes = (
"171 703 LINE",
"163 614 LINE SMOOTH",
"160 583 OFFCURVE",
"102 581 OFFCURVE",
"106 617 CURVE SMOOTH",
"116 708 LINE"
);
}
);
width = 439;
},
{
anchors = (
{
name = ogonek;
position = "{336, 10}";
},
{
name = top;
position = "{250, 715}";
}
);
associatedMasterId = "DA12CC5E-F102-4B17-B99F-C66FBA9637B7";
layerId = "39E525EB-7528-4B5E-8EEE-AF63688AC82A";
name = "Apr 2 20, 16:01";
paths = (
{
closed = 1;
nodes = (
"99 225 OFFCURVE",
"109 153 OFFCURVE",
"158 167 CURVE SMOOTH",
"328 215 LINE SMOOTH",
"363 225 OFFCURVE",
"352 279 OFFCURVE",
"314 271 CURVE SMOOTH",
"138 233 LINE SMOOTH"
);
},
{
closed = 1;
nodes = (
"108 393 OFFCURVE",
"104 343 OFFCURVE",
"144 338 CURVE SMOOTH",
"375 310 LINE SMOOTH",
"414 305 OFFCURVE",
"417 376 OFFCURVE",
"377 378 CURVE SMOOTH",
"148 391 LINE SMOOTH"
);
},
{
closed = 1;
nodes = (
"288 709 LINE",
"292 657 LINE SMOOTH",
"295 614 OFFCURVE",
"232 604 OFFCURVE",
"232 648 CURVE SMOOTH",
"232 716 LINE"
);
},
{
closed = 1;
nodes = (
"196 720 LINE",
"188 634 LINE SMOOTH",
"185 603 OFFCURVE",
"127 601 OFFCURVE",
"131 637 CURVE SMOOTH",
"141 727 LINE"
);
},
{
closed = 1;
nodes = (
"389 -28 LINE SMOOTH",
"466 -28 OFFCURVE",
"460 111 OFFCURVE",
"376 98 CURVE SMOOTH",
"314 89 LINE SMOOTH",
"294 86 OFFCURVE",
"287 96 OFFCURVE",
"286 117 CURVE SMOOTH",
"276 506 LINE SMOOTH",
"275 528 OFFCURVE",
"281 542 OFFCURVE",
"299 543 CURVE SMOOTH",
"374 548 LINE SMOOTH",
"447 553 OFFCURVE",
"461 688 OFFCURVE",
"376 698 CURVE SMOOTH",
"106 731 LINE SMOOTH",
"-10 745 OFFCURVE",
"-34 568 OFFCURVE",
"81 556 CURVE SMOOTH",
"148 549 LINE SMOOTH",
"173 546 OFFCURVE",
"183 528 OFFCURVE",
"186 504 CURVE SMOOTH",
"234 105 LINE SMOOTH",
"236 86 OFFCURVE",
"232 79 OFFCURVE",
"214 76 CURVE SMOOTH",
"87 56 LINE SMOOTH",
"28 47 OFFCURVE",
"33 -28 OFFCURVE",
"90 -28 CURVE SMOOTH"
);
}
);
width = 464;
}
);
unicode = 0049;
},
{
glyphname = J;
lastChange = "2020-05-25 22:35:03 +0000";
layers = (
{
anchors = (
{
name = bottom;
position = "{211, 0}";
},
{
name = top;
position = "{223, 718}";
}
);
layerId = "DA12CC5E-F102-4B17-B99F-C66FBA9637B7";
paths = (
{
closed = 1;
nodes = (
"319 -17 OFFCURVE",
"427 50 OFFCURVE",
"406 249 CURVE SMOOTH",
"365 638 LINE SMOOTH",
"361 674 OFFCURVE",
"343 690 OFFCURVE",
"317 691 CURVE SMOOTH",
"89 703 LINE SMOOTH",
"58 705 OFFCURVE",
"57 666 OFFCURVE",
"85 666 CURVE SMOOTH",
"306 668 LINE SMOOTH",
"326 668 OFFCURVE",
"338 662 OFFCURVE",
"341 633 CURVE SMOOTH",
"380 258 LINE SMOOTH",
"390 161 OFFCURVE",
"318 87 OFFCURVE",
"207 87 CURVE SMOOTH",
"131 87 OFFCURVE",
"104 107 OFFCURVE",
"72 107 CURVE SMOOTH",
"44 107 OFFCURVE",
"29 62 OFFCURVE",
"52 33 CURVE SMOOTH",
"77 4 OFFCURVE",
"138 -17 OFFCURVE",
"198 -17 CURVE SMOOTH"
);
},
{
closed = 1;
nodes = (
"458 630 OFFCURVE",
"452 651 OFFCURVE",
"432 648 CURVE SMOOTH",
"54 600 LINE SMOOTH",
"24 596 OFFCURVE",
"31 562 OFFCURVE",
"59 566 CURVE SMOOTH",
"436 626 LINE SMOOTH"
);
},
{
closed = 1;
nodes = (
"354 568 LINE",
"297 563 LINE SMOOTH",
"270 561 OFFCURVE",
"272 535 OFFCURVE",
"297 536 CURVE SMOOTH",
"357 538 LINE"
);
},
{
closed = 1;
nodes = (
"455 502 OFFCURVE",
"448 528 OFFCURVE",
"425 525 CURVE SMOOTH",
"241 503 LINE SMOOTH",
"214 500 OFFCURVE",
"219 471 OFFCURVE",
"244 474 CURVE SMOOTH",
"430 499 LINE SMOOTH"
);
},
{
closed = 1;
nodes = (
"377 427 LINE",
"458 427 LINE SMOOTH",
"482 427 OFFCURVE",
"481 459 OFFCURVE",
"459 457 CURVE SMOOTH",
"377 450 LINE"
);
},
{
closed = 1;
nodes = (
"232 245 OFFCURVE",
"263 276 OFFCURVE",
"263 312 CURVE SMOOTH",
"263 349 OFFCURVE",
"232 379 OFFCURVE",
"196 379 CURVE SMOOTH",
"159 379 OFFCURVE",
"129 349 OFFCURVE",
"129 312 CURVE SMOOTH",
"129 276 OFFCURVE",
"159 245 OFFCURVE",
"196 245 CURVE SMOOTH"
);
},
{
closed = 1;
nodes = (
"172 271 OFFCURVE",
"157 287 OFFCURVE",
"157 305 CURVE SMOOTH",
"157 324 OFFCURVE",
"172 339 OFFCURVE",
"191 339 CURVE SMOOTH",
"209 339 OFFCURVE",
"225 324 OFFCURVE",
"225 305 CURVE SMOOTH",
"225 287 OFFCURVE",
"209 271 OFFCURVE",
"191 271 CURVE SMOOTH"
);
},
{
closed = 1;
nodes = (
"120 28 OFFCURVE",
"111 36 OFFCURVE",
"111 47 CURVE SMOOTH",
"111 59 OFFCURVE",
"120 67 OFFCURVE",
"131 67 CURVE SMOOTH",
"143 67 OFFCURVE",
"151 59 OFFCURVE",
"151 47 CURVE SMOOTH",
"151 36 OFFCURVE",
"143 28 OFFCURVE",
"131 28 CURVE SMOOTH"
);
},
{
closed = 1;
nodes = (
"180 10 OFFCURVE",
"169 21 OFFCURVE",
"169 35 CURVE SMOOTH",
"169 49 OFFCURVE",
"180 60 OFFCURVE",
"194 60 CURVE SMOOTH",
"208 60 OFFCURVE",
"219 49 OFFCURVE",
"219 35 CURVE SMOOTH",
"219 21 OFFCURVE",
"208 10 OFFCURVE",
"194 10 CURVE SMOOTH"
);
},
{
closed = 1;
nodes = (
"245 27 OFFCURVE",
"235 36 OFFCURVE",
"235 49 CURVE SMOOTH",
"235 61 OFFCURVE",
"245 70 OFFCURVE",
"257 70 CURVE SMOOTH",
"270 70 OFFCURVE",
"279 61 OFFCURVE",
"279 49 CURVE SMOOTH",
"279 36 OFFCURVE",
"270 27 OFFCURVE",
"257 27 CURVE SMOOTH"
);
}
);
width = 489;
}
);
unicode = 004A;
},
{
glyphname = K;
lastChange = "2020-05-25 22:53:44 +0000";
layers = (
{
anchors = (
{
name = bottom;
position = "{280, -17}";
},
{
name = top;
position = "{300, 670}";
}
);
layerId = "DA12CC5E-F102-4B17-B99F-C66FBA9637B7";
paths = (
{
closed = 1;
nodes = (
"121 -24 OFFCURVE",
"141 -17 OFFCURVE",
"140 7 CURVE SMOOTH",
"134 253 LINE SMOOTH",
"133 279 OFFCURVE",
"153 282 OFFCURVE",
"174 263 CURVE SMOOTH",
"461 6 LINE SMOOTH",
"522 -48 OFFCURVE",
"575 -4 OFFCURVE",
"575 38 CURVE SMOOTH",
"575 59 OFFCURVE",
"567 73 OFFCURVE",
"551 82 CURVE SMOOTH",
"496 115 LINE",
"465 69 OFFCURVE",
"457 50 OFFCURVE",
"438 61 CURVE SMOOTH",
"422 71 OFFCURVE",
"434 86 OFFCURVE",
"462 135 CURVE",
"430 154 LINE",
"417 117 OFFCURVE",
"408 104 OFFCURVE",
"392 113 CURVE SMOOTH",
"376 120 OFFCURVE",
"380 134 OFFCURVE",
"398 173 CURVE",
"181 302 LINE SMOOTH",
"163 313 OFFCURVE",
"156 331 OFFCURVE",
"176 349 CURVE SMOOTH",
"519 673 LINE SMOOTH",
"537 690 OFFCURVE",
"519 708 OFFCURVE",
"502 692 CURVE SMOOTH",
"170 375 LINE SMOOTH",
"149 355 OFFCURVE",
"129 366 OFFCURVE",
"128 388 CURVE SMOOTH",
"119 536 LINE SMOOTH",
"117 561 OFFCURVE",
"87 561 OFFCURVE",
"89 533 CURVE SMOOTH",
"120 1 LINE SMOOTH"
);
},
{
closed = 1;
nodes = (
"457 324 OFFCURVE",
"482 349 OFFCURVE",
"482 380 CURVE SMOOTH",
"482 410 OFFCURVE",
"457 435 OFFCURVE",
"427 435 CURVE SMOOTH",
"396 435 OFFCURVE",
"371 410 OFFCURVE",
"371 380 CURVE SMOOTH",
"371 349 OFFCURVE",
"396 324 OFFCURVE",
"427 324 CURVE SMOOTH"
);
},
{
closed = 1;
nodes = (
"340 682 OFFCURVE",
"323 655 OFFCURVE",
"343 637 CURVE SMOOTH",
"475 522 LINE SMOOTH",
"497 502 OFFCURVE",
"519 533 OFFCURVE",
"494 554 CURVE SMOOTH",
"361 664 LINE SMOOTH"
);
},
{
closed = 1;
nodes = (
"240 611 OFFCURVE",
"216 578 OFFCURVE",
"240 562 CURVE SMOOTH",
"324 508 LINE SMOOTH",
"335 501 OFFCURVE",
"356 515 OFFCURVE",
"336 531 CURVE SMOOTH",
"262 593 LINE SMOOTH"
);
},
{
closed = 1;
nodes = (
"58 178 OFFCURVE",
"60 146 OFFCURVE",
"85 148 CURVE SMOOTH",
"184 154 LINE SMOOTH",
"201 155 OFFCURVE",
"201 178 OFFCURVE",
"180 178 CURVE SMOOTH",
"83 178 LINE SMOOTH"
);
},
{
closed = 1;
nodes = (
"43 82 OFFCURVE",
"39 58 OFFCURVE",
"64 55 CURVE SMOOTH",
"183 43 LINE SMOOTH",
"207 41 OFFCURVE",
"207 71 OFFCURVE",
"186 72 CURVE SMOOTH",
"66 80 LINE SMOOTH"
);
},
{
closed = 1;
nodes = (
"118 578 OFFCURVE",
"133 593 OFFCURVE",
"133 611 CURVE SMOOTH",
"133 628 OFFCURVE",
"118 643 OFFCURVE",
"101 643 CURVE SMOOTH",
"83 643 OFFCURVE",
"68 628 OFFCURVE",
"68 611 CURVE SMOOTH",
"68 593 OFFCURVE",
"83 578 OFFCURVE",
"101 578 CURVE SMOOTH"
);
},
{
closed = 1;
nodes = (
"113 665 OFFCURVE",
"127 679 OFFCURVE",
"127 697 CURVE SMOOTH",
"127 714 OFFCURVE",
"113 728 OFFCURVE",
"96 728 CURVE SMOOTH",
"78 728 OFFCURVE",
"64 714 OFFCURVE",
"64 697 CURVE SMOOTH",
"64 679 OFFCURVE",
"78 665 OFFCURVE",
"96 665 CURVE SMOOTH"
);
}
);
width = 567;
},
{
associatedMasterId = "DA12CC5E-F102-4B17-B99F-C66FBA9637B7";
layerId = "E49170E5-24ED-471D-BA0D-8714CB1EE4B9";
name = "Feb 7 20, 15:21";
paths = (
{
closed = 1;
nodes = (
"114 199 LINE",
"463 3 LINE SMOOTH",
"529 -47 OFFCURVE",
"571 -36 OFFCURVE",
"571 37 CURVE SMOOTH",
"571 124 OFFCURVE",
"557 241 OFFCURVE",
"503 243 CURVE SMOOTH",
"128 254 LINE"
);
},
{
closed = 1;
nodes = (
"142 676 LINE SMOOTH",
"142 713 OFFCURVE",
"67 713 OFFCURVE",
"67 678 CURVE SMOOTH",
"65 23 LINE SMOOTH",
"65 -15 OFFCURVE",
"139 -18 OFFCURVE",
"139 20 CURVE SMOOTH"
);
},
{
closed = 1;
nodes = (
"181 205 LINE",
"509 646 LINE SMOOTH",
"541 682 OFFCURVE",
"480 736 OFFCURVE",
"449 698 CURVE SMOOTH",
"127 241 LINE"
);
},
{
closed = 1;
nodes = (
"479 129 LINE SMOOTH",
"479 106 OFFCURVE",
"424 106 OFFCURVE",
"424 129 CURVE SMOOTH",
"424 245 LINE",
"479 244 LINE"
);
},
{
closed = 1;
nodes = (
"374 172 LINE SMOOTH",
"374 149 OFFCURVE",
"319 149 OFFCURVE",
"319 172 CURVE SMOOTH",
"319 248 LINE",
"374 247 LINE"
);
},
{
closed = 1;
nodes = (
"465 315 OFFCURVE",
"490 340 OFFCURVE",
"490 371 CURVE SMOOTH",
"490 401 OFFCURVE",
"465 426 OFFCURVE",
"435 426 CURVE SMOOTH",
"404 426 OFFCURVE",
"379 401 OFFCURVE",
"379 371 CURVE SMOOTH",
"379 340 OFFCURVE",
"404 315 OFFCURVE",
"435 315 CURVE SMOOTH"
);
}
);
width = 589;
},
{
associatedMasterId = "DA12CC5E-F102-4B17-B99F-C66FBA9637B7";
layerId = "0034DB29-2278-47C5-8F84-6E23A4600E82";
name = "Feb 10 20, 16:40";
paths = (
{
closed = 1;
nodes = (
"60 -18 OFFCURVE",
"134 -18 OFFCURVE",
"134 20 CURVE SMOOTH",
"135 173 LINE SMOOTH",
"135 199 OFFCURVE",
"148 199 OFFCURVE",
"169 183 CURVE SMOOTH",
"399 7 LINE SMOOTH",
"483 -57 OFFCURVE",
"562 12 OFFCURVE",
"562 86 CURVE SMOOTH",
"562 117 OFFCURVE",
"547 148 OFFCURVE",
"512 171 CURVE SMOOTH",
"286 318 LINE SMOOTH",
"268 330 OFFCURVE",
"264 344 OFFCURVE",
"281 365 CURVE SMOOTH",
"504 646 LINE SMOOTH",
"534 683 OFFCURVE",
"474 737 OFFCURVE",
"444 698 CURVE SMOOTH",
"169 333 LINE SMOOTH",
"153 312 OFFCURVE",
"135 316 OFFCURVE",
"135 338 CURVE SMOOTH",
"137 683 LINE SMOOTH",
"137 720 OFFCURVE",
"62 720 OFFCURVE",
"62 685 CURVE SMOOTH",
"60 21 LINE SMOOTH"
);
},
{
closed = 1;
nodes = (
"497 114 LINE SMOOTH",
"497 91 OFFCURVE",
"442 91 OFFCURVE",
"442 114 CURVE SMOOTH",
"442 217 LINE",
"497 181 LINE"
);
},
{
closed = 1;
nodes = (
"389 177 LINE SMOOTH",
"389 154 OFFCURVE",
"334 154 OFFCURVE",
"334 177 CURVE SMOOTH",
"334 288 LINE",
"389 251 LINE"
);
},
{
closed = 1;
nodes = (
"460 310 OFFCURVE",
"485 335 OFFCURVE",
"485 366 CURVE SMOOTH",
"485 396 OFFCURVE",
"460 421 OFFCURVE",
"430 421 CURVE SMOOTH",
"399 421 OFFCURVE",
"374 396 OFFCURVE",
"374 366 CURVE SMOOTH",
"374 335 OFFCURVE",
"399 310 OFFCURVE",
"430 310 CURVE SMOOTH"
);
},
{
closed = 1;
nodes = (
"384 626 OFFCURVE",
"350 573 OFFCURVE",
"375 558 CURVE SMOOTH",
"398 544 LINE SMOOTH",
"419 531 OFFCURVE",
"456 581 OFFCURVE",
"427 599 CURVE SMOOTH",
"406 612 LINE SMOOTH"
);
},
{
closed = 1;
nodes = (
"325 550 OFFCURVE",
"291 497 OFFCURVE",
"316 482 CURVE SMOOTH",
"339 468 LINE SMOOTH",
"360 455 OFFCURVE",
"397 505 OFFCURVE",
"368 523 CURVE SMOOTH",
"347 536 LINE SMOOTH"
);
}
);
width = 574;
}
);
unicode = 004B;
},
{
glyphname = L;
lastChange = "2020-05-19 00:34:23 +0000";
layers = (
{
anchors = (
{
name = bottom;
position = "{254, 0}";
},
{
name = top;
position = "{181, 720}";
}
);
layerId = "DA12CC5E-F102-4B17-B99F-C66FBA9637B7";
paths = (
{
closed = 1;
nodes = (
"51 3 OFFCURVE",
"75 -18 OFFCURVE",
"127 -13 CURVE SMOOTH",
"395 14 LINE SMOOTH",
"470 22 OFFCURVE",
"453 160 OFFCURVE",
"381 136 CURVE SMOOTH",
"130 52 LINE SMOOTH",
"96 41 OFFCURVE",
"77 57 OFFCURVE",
"81 88 CURVE SMOOTH",
"154 691 LINE SMOOTH",
"157 717 OFFCURVE",
"133 720 OFFCURVE",
"130 697 CURVE SMOOTH",
"56 48 LINE SMOOTH"
);
},
{
closed = 1;
nodes = (
"139 637 LINE",
"65 644 LINE SMOOTH",
"41 646 OFFCURVE",
"37 610 OFFCURVE",
"62 607 CURVE SMOOTH",
"135 598 LINE"
);
},
{
closed = 1;
nodes = (
"44 549 OFFCURVE",
"49 521 OFFCURVE",
"69 525 CURVE SMOOTH",
"258 560 LINE SMOOTH",
"285 565 OFFCURVE",
"277 596 OFFCURVE",
"253 591 CURVE SMOOTH",
"66 553 LINE SMOOTH"
);
},
{
closed = 1;
nodes = (
"119 438 LINE",
"213 430 LINE SMOOTH",
"241 428 OFFCURVE",
"242 468 OFFCURVE",
"217 468 CURVE SMOOTH",
"122 469 LINE"
);
},
{
closed = 1;
nodes = (
"185 319 LINE SMOOTH",
"210 322 OFFCURVE",
"206 356 OFFCURVE",
"182 354 CURVE SMOOTH",
"104 347 LINE",
"102 310 LINE"
);
},
{
closed = 1;
nodes = (
"235 53 LINE SMOOTH",
"242 30 OFFCURVE",
"204 21 OFFCURVE",
"198 42 CURVE SMOOTH",
"189 72 LINE",
"226 84 LINE"
);
},
{
closed = 1;
nodes = (
"303 54 LINE SMOOTH",
"308 30 OFFCURVE",
"268 24 OFFCURVE",
"265 50 CURVE SMOOTH",
"259 95 LINE",
"292 106 LINE"
);
},
{
closed = 1;
nodes = (
"367 85 LINE SMOOTH",
"380 58 OFFCURVE",
"334 42 OFFCURVE",
"325 72 CURVE SMOOTH",
"312 113 LINE",
"348 125 LINE"
);
}
);
width = 440;
},
{
anchors = (
{
name = bottom;
position = "{264, 0}";
},
{
name = top;
position = "{191, 720}";
}
);
associatedMasterId = "DA12CC5E-F102-4B17-B99F-C66FBA9637B7";
layerId = "EA046AFC-177D-4388-911A-9BEBEFA3A94E";
name = "Apr 1 20, 13:13";
paths = (
{
closed = 1;
nodes = (
"62 16 OFFCURVE",
"98 -27 OFFCURVE",
"165 -22 CURVE SMOOTH",
"391 -4 LINE SMOOTH",
"579 11 OFFCURVE",
"507 387 OFFCURVE",
"339 248 CURVE SMOOTH",
"183 119 LINE SMOOTH",
"164 103 OFFCURVE",
"138 113 OFFCURVE",
"143 146 CURVE SMOOTH",
"227 681 LINE SMOOTH",
"235 733 OFFCURVE",
"146 744 OFFCURVE",
"140 691 CURVE SMOOTH",
"72 102 LINE SMOOTH"
);
},
{
closed = 1;
nodes = (
"135 512 LINE",
"37 511 LINE SMOOTH",
"-11 511 OFFCURVE",
"-10 425 OFFCURVE",
"47 435 CURVE SMOOTH",
"132 450 LINE"
);
},
{
closed = 1;
nodes = (
"171 640 LINE",
"64 650 LINE SMOOTH",
"21 654 OFFCURVE",
"10 586 OFFCURVE",
"65 576 CURVE SMOOTH",
"165 558 LINE"
);
},
{
closed = 1;
nodes = (
"382 179 LINE SMOOTH",
"411 147 OFFCURVE",
"359 106 OFFCURVE",
"333 142 CURVE SMOOTH",
"287 205 LINE",
"328 239 LINE"
);
},
{
closed = 1;
nodes = (
"279 129 LINE SMOOTH",
"293 96 OFFCURVE",
"248 77 OFFCURVE",
"232 110 CURVE SMOOTH",
"215 145 LINE",
"257 180 LINE"
);
}
);
width = 527;
},
{
anchors = (
{
name = bottom;
position = "{264, 0}";
},
{
name = top;
position = "{191, 720}";
}
);
associatedMasterId = "DA12CC5E-F102-4B17-B99F-C66FBA9637B7";
layerId = "4FF4B719-A320-4DEC-A797-CE50DAA7001C";
name = "Apr 1 20, 13:17";
paths = (
{
closed = 1;
nodes = (
"64 16 OFFCURVE",
"98 -27 OFFCURVE",
"165 -22 CURVE SMOOTH",
"391 -4 LINE SMOOTH",
"579 11 OFFCURVE",
"507 387 OFFCURVE",
"339 248 CURVE SMOOTH",
"183 119 LINE SMOOTH",
"164 103 OFFCURVE",
"138 113 OFFCURVE",
"143 146 CURVE SMOOTH",
"217 681 LINE SMOOTH",
"224 733 OFFCURVE",
"135 744 OFFCURVE",
"130 691 CURVE SMOOTH",
"72 102 LINE SMOOTH"
);
},
{
closed = 1;
nodes = (
"148 369 LINE",
"255 354 LINE SMOOTH",
"304 347 OFFCURVE",
"318 433 OFFCURVE",
"258 434 CURVE SMOOTH",
"153 435 LINE"
);
},
{
closed = 1;
nodes = (
"164 488 LINE",
"309 505 LINE SMOOTH",
"358 511 OFFCURVE",
"355 581 OFFCURVE",
"302 579 CURVE SMOOTH",
"170 573 LINE"
);
},
{
closed = 1;
nodes = (
"382 179 LINE SMOOTH",
"411 147 OFFCURVE",
"359 106 OFFCURVE",
"333 142 CURVE SMOOTH",
"287 205 LINE",
"328 239 LINE"
);
},
{
closed = 1;
nodes = (
"279 129 LINE SMOOTH",
"293 96 OFFCURVE",
"248 77 OFFCURVE",
"232 110 CURVE SMOOTH",
"215 145 LINE",
"257 180 LINE"
);
}
);
width = 527;
}
);
unicode = 004C;
},
{
glyphname = M;
lastChange = "2020-05-25 23:43:34 +0000";
layers = (
{
anchors = (
{
name = bottom;
position = "{415, 0}";
},
{
name = top;
position = "{427, 700}";
}
);
layerId = "DA12CC5E-F102-4B17-B99F-C66FBA9637B7";
paths = (
{
closed = 1;
nodes = (
"60 38 OFFCURVE",
"89 32 OFFCURVE",
"92 61 CURVE SMOOTH",
"139 495 LINE SMOOTH",
"142 523 OFFCURVE",
"178 531 OFFCURVE",
"194 502 CURVE SMOOTH",
"340 236 LINE SMOOTH",
"367 186 OFFCURVE",
"419 195 OFFCURVE",
"441 231 CURVE SMOOTH",
"619 522 LINE SMOOTH",
"636 549 OFFCURVE",
"660 540 OFFCURVE",
"662 508 CURVE SMOOTH",
"695 30 LINE SMOOTH",
"697 -4 OFFCURVE",
"736 6 OFFCURVE",
"733 38 CURVE SMOOTH",
"670 632 LINE SMOOTH",
"664 693 OFFCURVE",
"594 703 OFFCURVE",
"571 646 CURVE SMOOTH",
"421 268 LINE SMOOTH",
"406 230 OFFCURVE",
"370 232 OFFCURVE",
"358 272 CURVE SMOOTH",
"241 655 LINE SMOOTH",
"225 706 OFFCURVE",
"142 706 OFFCURVE",
"135 646 CURVE SMOOTH",
"63 64 LINE SMOOTH"
);
},
{
closed = 1;
nodes = (
"264 580 LINE",
"202 571 LINE SMOOTH",
"184 568 OFFCURVE",
"178 593 OFFCURVE",
"196 599 CURVE SMOOTH",
"252 618 LINE"
);
},
{
closed = 1;
nodes = (
"280 527 LINE",
"242 512 LINE SMOOTH",
"215 501 OFFCURVE",
"200 544 OFFCURVE",
"228 549 CURVE SMOOTH",
"271 556 LINE"
);
},
{
closed = 1;
nodes = (
"589 564 OFFCURVE",
"577 576 OFFCURVE",
"577 592 CURVE SMOOTH",
"577 607 OFFCURVE",
"589 619 OFFCURVE",
"605 619 CURVE SMOOTH",
"620 619 OFFCURVE",
"632 607 OFFCURVE",
"632 592 CURVE SMOOTH",
"632 576 OFFCURVE",
"620 564 OFFCURVE",
"605 564 CURVE SMOOTH"
);
},
{
closed = 1;
nodes = (
"408 66 OFFCURVE",
"428 85 OFFCURVE",
"428 110 CURVE SMOOTH",
"428 134 OFFCURVE",
"408 154 OFFCURVE",
"386 154 CURVE SMOOTH",
"359 154 OFFCURVE",
"340 134 OFFCURVE",
"340 110 CURVE SMOOTH",
"340 85 OFFCURVE",
"359 66 OFFCURVE",
"386 66 CURVE SMOOTH"
);
},
{
closed = 1;
nodes = (
"793 140 OFFCURVE",
"787 178 OFFCURVE",
"761 175 CURVE SMOOTH",
"592 154 LINE SMOOTH",
"566 151 OFFCURVE",
"568 125 OFFCURVE",
"593 127 CURVE SMOOTH",
"762 138 LINE SMOOTH"
);
},
{
closed = 1;
nodes = (
"749 226 LINE SMOOTH",
"774 224 OFFCURVE",
"776 249 OFFCURVE",
"750 252 CURVE SMOOTH",
"611 269 LINE SMOOTH",
"585 272 OFFCURVE",
"579 239 OFFCURVE",
"610 237 CURVE SMOOTH"
);
},
{
closed = 1;
nodes = (
"252 142 OFFCURVE",
"247 180 OFFCURVE",
"221 177 CURVE SMOOTH",
"99 162 LINE SMOOTH",
"74 159 OFFCURVE",
"76 129 OFFCURVE",
"100 131 CURVE SMOOTH",
"221 140 LINE SMOOTH"
);
},
{
closed = 1;
nodes = (
"201 272 LINE SMOOTH",
"226 273 OFFCURVE",
"228 304 OFFCURVE",
"202 303 CURVE SMOOTH",
"44 299 LINE SMOOTH",
"24 298 OFFCURVE",
"20 267 OFFCURVE",
"45 268 CURVE SMOOTH"
);
},
{
closed = 1;
nodes = (
"557 479 LINE SMOOTH",
"535 487 OFFCURVE",
"544 516 OFFCURVE",
"565 511 CURVE SMOOTH",
"606 501 LINE",
"586 468 LINE"
);
}
);
width = 791;
},
{
associatedMasterId = "DA12CC5E-F102-4B17-B99F-C66FBA9637B7";
layerId = "53F428B3-057E-422E-B968-043CBC33496A";
name = "Mar 6 20, 21:19";
paths = (
{
closed = 1;
nodes = (
"24 71 OFFCURVE",
"105 80 OFFCURVE",
"108 124 CURVE SMOOTH",
"120 307 LINE SMOOTH",
"123 351 OFFCURVE",
"155 357 OFFCURVE",
"185 325 CURVE SMOOTH",
"317 191 LINE SMOOTH",
"353 152 OFFCURVE",
"405 151 OFFCURVE",
"437 190 CURVE SMOOTH",
"562 341 LINE SMOOTH",
"591 376 OFFCURVE",
"633 360 OFFCURVE",
"637 311 CURVE SMOOTH",
"648 166 LINE SMOOTH",
"652 110 OFFCURVE",
"738 125 OFFCURVE",
"728 177 CURVE SMOOTH",
"639 630 LINE SMOOTH",
"625 700 OFFCURVE",
"507 718 OFFCURVE",
"487 642 CURVE SMOOTH",
"393 289 LINE SMOOTH",
"381 243 OFFCURVE",
"359 245 OFFCURVE",
"347 288 CURVE SMOOTH",
"237 676 LINE SMOOTH",
"213 761 OFFCURVE",
"97 749 OFFCURVE",
"89 675 CURVE SMOOTH",
"31 135 LINE SMOOTH"
);
},
{
closed = 1;
nodes = (
"41 36 OFFCURVE",
"41 -22 OFFCURVE",
"84 -20 CURVE SMOOTH",
"685 1 LINE SMOOTH",
"725 2 OFFCURVE",
"724 68 OFFCURVE",
"680 66 CURVE SMOOTH",
"84 38 LINE SMOOTH"
);
},
{
closed = 1;
nodes = (
"267 570 LINE",
"181 548 LINE SMOOTH",
"148 540 OFFCURVE",
"134 591 OFFCURVE",
"167 603 CURVE SMOOTH",
"249 633 LINE"
);
},
{
closed = 1;
nodes = (
"297 465 LINE",
"193 437 LINE SMOOTH",
"143 424 OFFCURVE",
"121 498 OFFCURVE",
"175 503 CURVE SMOOTH",
"283 514 LINE"
);
},
{
closed = 1;
nodes = (
"526 471 OFFCURVE",
"506 491 OFFCURVE",
"506 517 CURVE SMOOTH",
"506 542 OFFCURVE",
"526 562 OFFCURVE",
"552 562 CURVE SMOOTH",
"577 562 OFFCURVE",
"597 542 OFFCURVE",
"597 517 CURVE SMOOTH",
"597 491 OFFCURVE",
"577 471 OFFCURVE",
"552 471 CURVE SMOOTH"
);
}
);
width = 750;
}
);
unicode = 004D;
},
{
glyphname = N;
lastChange = "2020-05-26 01:18:22 +0000";
layers = (
{
anchors = (
{
name = bottom;
position = "{384, 73}";
},
{
name = top;
position = "{354, 700}";
}
);
layerId = "DA12CC5E-F102-4B17-B99F-C66FBA9637B7";
paths = (
{
closed = 1;
nodes = (
"62 -55 OFFCURVE",
"200 -46 OFFCURVE",
"194 47 CURVE SMOOTH",
"154 664 LINE SMOOTH",
"151 706 OFFCURVE",
"206 715 OFFCURVE",
"222 672 CURVE SMOOTH",
"416 156 LINE SMOOTH",
"440 93 OFFCURVE",
"510 102 OFFCURVE",
"514 171 CURVE SMOOTH",
"546 719 LINE SMOOTH",
"547 740 OFFCURVE",
"522 743 OFFCURVE",
"521 720 CURVE SMOOTH",
"490 180 LINE SMOOTH",
"488 137 OFFCURVE",
"454 134 OFFCURVE",
"437 178 CURVE SMOOTH",
"243 697 LINE SMOOTH",
"218 763 OFFCURVE",
"118 753 OFFCURVE",
"112 667 CURVE SMOOTH",
"69 43 LINE SMOOTH"
);
},
{
closed = 1;
nodes = (
"515 624 OFFCURVE",
"514 584 OFFCURVE",
"534 585 CURVE SMOOTH",
"617 590 LINE SMOOTH",
"639 591 OFFCURVE",
"641 621 OFFCURVE",
"618 622 CURVE SMOOTH",
"535 624 LINE SMOOTH"
);
},
{
closed = 1;
nodes = (
"415 517 OFFCURVE",
"415 494 OFFCURVE",
"436 494 CURVE SMOOTH",
"624 496 LINE SMOOTH",
"648 496 OFFCURVE",
"650 526 OFFCURVE",
"622 525 CURVE SMOOTH",
"436 518 LINE SMOOTH"
);
},
{
closed = 1;
nodes = (
"444 401 OFFCURVE",
"443 374 OFFCURVE",
"463 374 CURVE SMOOTH",
"590 375 LINE SMOOTH",
"615 375 OFFCURVE",
"615 409 OFFCURVE",
"589 408 CURVE SMOOTH",
"464 402 LINE SMOOTH"
);
},
{
closed = 1;
nodes = (
"128 294 LINE SMOOTH",
"157 288 OFFCURVE",
"149 252 OFFCURVE",
"118 254 CURVE SMOOTH",
"84 256 LINE",
"87 303 LINE"
);
},
{
closed = 1;
nodes = (
"128 200 LINE SMOOTH",
"155 199 OFFCURVE",
"155 162 OFFCURVE",
"126 161 CURVE SMOOTH",
"77 160 LINE",
"80 201 LINE"
);
},
{
closed = 1;
nodes = (
"139 104 LINE SMOOTH",
"170 99 OFFCURVE",
"162 49 OFFCURVE",
"132 56 CURVE SMOOTH",
"71 70 LINE",
"74 115 LINE"
);
},
{
closed = 1;
nodes = (
"433 579 OFFCURVE",
"454 600 OFFCURVE",
"454 625 CURVE SMOOTH",
"454 648 OFFCURVE",
"433 669 OFFCURVE",
"410 669 CURVE SMOOTH",
"385 669 OFFCURVE",
"364 648 OFFCURVE",
"364 625 CURVE SMOOTH",
"364 600 OFFCURVE",
"385 579 OFFCURVE",
"410 579 CURVE SMOOTH"
);
},
{
closed = 1;
nodes = (
"319 172 OFFCURVE",
"338 191 OFFCURVE",
"338 214 CURVE SMOOTH",
"338 236 OFFCURVE",
"319 255 OFFCURVE",
"297 255 CURVE SMOOTH",
"274 255 OFFCURVE",
"255 236 OFFCURVE",
"255 214 CURVE SMOOTH",
"255 191 OFFCURVE",
"274 172 OFFCURVE",
"297 172 CURVE SMOOTH"
);
},
{
closed = 1;
nodes = (
"239 425 OFFCURVE",
"252 405 OFFCURVE",
"266 411 CURVE SMOOTH",
"324 437 LINE",
"310 466 LINE",
"254 434 LINE SMOOTH"
);
},
{
closed = 1;
nodes = (
"251 327 OFFCURVE",
"268 301 OFFCURVE",
"283 312 CURVE SMOOTH",
"404 403 LINE SMOOTH",
"415 411 OFFCURVE",
"401 433 OFFCURVE",
"388 424 CURVE SMOOTH",
"266 338 LINE SMOOTH"
);
}
);
width = 633;
},
{
associatedMasterId = "DA12CC5E-F102-4B17-B99F-C66FBA9637B7";
layerId = "609F3862-602B-4A43-B6B7-B3AE640975F4";
name = "Feb 10 20, 16:21";
paths = (
{
closed = 1;
nodes = (
"59 -50 OFFCURVE",
"260 -40 OFFCURVE",
"260 69 CURVE SMOOTH",
"261 352 LINE SMOOTH",
"261 406 OFFCURVE",
"306 410 OFFCURVE",
"321 370 CURVE SMOOTH",
"445 48 LINE SMOOTH",
"482 -49 OFFCURVE",
"575 -26 OFFCURVE",
"575 60 CURVE SMOOTH",
"575 679 LINE SMOOTH",
"575 715 OFFCURVE",
"498 718 OFFCURVE",
"498 680 CURVE SMOOTH",
"498 272 LINE SMOOTH",
"498 234 OFFCURVE",
"465 231 OFFCURVE",
"451 269 CURVE SMOOTH",
"324 618 LINE SMOOTH",
"269 770 OFFCURVE",
"63 727 OFFCURVE",
"62 610 CURVE SMOOTH",
"60 70 LINE SMOOTH"
);
},
{
closed = 1;
nodes = (
"421 626 OFFCURVE",
"421 565 OFFCURVE",
"460 565 CURVE SMOOTH",
"610 565 LINE SMOOTH",
"650 565 OFFCURVE",
"650 626 OFFCURVE",
"610 626 CURVE SMOOTH",
"460 626 LINE SMOOTH"
);
},
{
closed = 1;
nodes = (
"424 509 OFFCURVE",
"424 448 OFFCURVE",
"460 448 CURVE SMOOTH",
"610 448 LINE SMOOTH",
"650 448 OFFCURVE",
"650 509 OFFCURVE",
"610 509 CURVE SMOOTH",
"460 509 LINE SMOOTH"
);
},
{
closed = 1;
nodes = (
"143 321 LINE SMOOTH",
"185 321 OFFCURVE",
"185 251 OFFCURVE",
"143 251 CURVE SMOOTH",
"61 251 LINE",
"61 321 LINE"
);
},
{
closed = 1;
nodes = (
"143 194 LINE SMOOTH",
"185 194 OFFCURVE",
"185 124 OFFCURVE",
"143 124 CURVE SMOOTH",
"61 124 LINE",
"61 194 LINE"
);
},
{
closed = 1;
nodes = (
"167 487 OFFCURVE",
"143 511 OFFCURVE",
"143 541 CURVE SMOOTH",
"143 570 OFFCURVE",
"167 594 OFFCURVE",
"197 594 CURVE SMOOTH",
"226 594 OFFCURVE",
"250 570 OFFCURVE",
"250 541 CURVE SMOOTH",
"250 511 OFFCURVE",
"226 487 OFFCURVE",
"197 487 CURVE SMOOTH"
);
},
{
closed = 1;
nodes = (
"330 149 OFFCURVE",
"330 149 OFFCURVE",
"330 149 CURVE SMOOTH",
"330 149 OFFCURVE",
"330 149 OFFCURVE",
"330 149 CURVE SMOOTH",
"330 149 OFFCURVE",
"330 149 OFFCURVE",
"330 149 CURVE SMOOTH",
"330 149 OFFCURVE",
"330 149 OFFCURVE",
"330 149 CURVE SMOOTH"
);
},
{
closed = 1;
nodes = (
"259 133 OFFCURVE",
"61 133 OFFCURVE",
"61 85 CURVE SMOOTH",
"61 67 LINE SMOOTH",
"61 1 OFFCURVE",
"259 1 OFFCURVE",
"259 67 CURVE SMOOTH",
"259 85 LINE SMOOTH"
);
},
{
closed = 1;
nodes = (
"192 96 OFFCURVE",
"128 96 OFFCURVE",
"61 96 CURVE",
"61 74 LINE SMOOTH",
"61 -36 OFFCURVE",
"259 -35 OFFCURVE",
"259 74 CURVE SMOOTH",
"259 96 LINE"
);
}
);
width = 660;
},
{
associatedMasterId = "DA12CC5E-F102-4B17-B99F-C66FBA9637B7";
layerId = "BDD950C0-A514-41AC-8E66-3E5D29B596CE";
name = "Feb 10 20, 16:52";
paths = (
{
closed = 1;
nodes = (
"24 -68 OFFCURVE",
"308 -59 OFFCURVE",
"276 112 CURVE SMOOTH",
"204 498 LINE SMOOTH",
"194 552 OFFCURVE",
"243 554 OFFCURVE",
"264 516 CURVE SMOOTH",
"486 123 LINE SMOOTH",
"528 49 OFFCURVE",
"607 70 OFFCURVE",
"612 157 CURVE SMOOTH",
"645 719 LINE SMOOTH",
"648 763 OFFCURVE",
"570 766 OFFCURVE",
"568 720 CURVE SMOOTH",
"546 268 LINE SMOOTH",
"544 230 OFFCURVE",
"516 222 OFFCURVE",
"496 261 CURVE SMOOTH",
"303 630 LINE SMOOTH",
"233 763 OFFCURVE",
"58 733 OFFCURVE",
"51 572 CURVE SMOOTH",
"30 80 LINE SMOOTH"
);
},
{
closed = 1;
nodes = (
"441 638 OFFCURVE",
"441 577 OFFCURVE",
"480 578 CURVE SMOOTH",
"680 585 LINE SMOOTH",
"720 586 OFFCURVE",
"720 647 OFFCURVE",
"680 646 CURVE SMOOTH",
"480 639 LINE SMOOTH"
);
},
{
closed = 1;
nodes = (
"463 518 OFFCURVE",
"463 457 OFFCURVE",
"499 455 CURVE SMOOTH",
"671 446 LINE SMOOTH",
"711 444 OFFCURVE",
"711 505 OFFCURVE",
"671 507 CURVE SMOOTH",
"499 516 LINE SMOOTH"
);
},
{
closed = 1;
nodes = (
"116 358 LINE SMOOTH",
"158 361 OFFCURVE",
"158 291 OFFCURVE",
"116 288 CURVE SMOOTH",
"39 282 LINE",
"42 352 LINE"
);
},
{
closed = 1;
nodes = (
"121 205 LINE SMOOTH",
"163 203 OFFCURVE",
"163 133 OFFCURVE",
"121 135 CURVE SMOOTH",
"33 139 LINE",
"36 209 LINE"
);
},
{
closed = 1;
nodes = (
"172 622 OFFCURVE",
"172 622 OFFCURVE",
"172 622 CURVE SMOOTH",
"172 622 OFFCURVE",
"172 622 OFFCURVE",
"172 622 CURVE SMOOTH",
"172 622 OFFCURVE",
"172 622 OFFCURVE",
"172 622 CURVE SMOOTH",
"172 622 OFFCURVE",
"172 622 OFFCURVE",
"172 622 CURVE SMOOTH"
);
},
{
closed = 1;
nodes = (
"351 180 OFFCURVE",
"351 180 OFFCURVE",
"351 180 CURVE SMOOTH",
"351 180 OFFCURVE",
"351 180 OFFCURVE",
"351 180 CURVE SMOOTH",
"351 180 OFFCURVE",
"351 180 OFFCURVE",
"351 180 CURVE SMOOTH",
"351 180 OFFCURVE",
"351 180 OFFCURVE",
"351 180 CURVE SMOOTH"
);
},
{
closed = 1;
nodes = (
"274 141 OFFCURVE",
"37 131 OFFCURVE",
"37 82 CURVE SMOOTH",
"37 64 LINE SMOOTH",
"37 -4 OFFCURVE",
"274 6 OFFCURVE",
"274 74 CURVE SMOOTH",
"274 92 LINE SMOOTH"
);
},
{
closed = 1;
nodes = (
"197 103 OFFCURVE",
"113 93 OFFCURVE",
"37 93 CURVE",
"37 71 LINE SMOOTH",
"37 -42 OFFCURVE",
"274 -31 OFFCURVE",
"274 81 CURVE SMOOTH",
"274 103 LINE"
);
}
);
width = 715;
}
);
unicode = 004E;
},
{
glyphname = O;
lastChange = "2020-05-26 01:10:52 +0000";
layers = (
{
anchors = (
{
name = bottom;
position = "{307, 0}";
},
{
name = top;
position = "{320, 700}";
}
);
layerId = "DA12CC5E-F102-4B17-B99F-C66FBA9637B7";
paths = (
{
closed = 1;
nodes = (
"482 -12 OFFCURVE",
"582 165 OFFCURVE",
"582 354 CURVE SMOOTH",
"583 570 OFFCURVE",
"482 718 OFFCURVE",
"327 718 CURVE SMOOTH",
"167 718 OFFCURVE",
"39 533 OFFCURVE",
"39 326 CURVE SMOOTH",
"39 141 OFFCURVE",
"131 -12 OFFCURVE",
"297 -12 CURVE SMOOTH"
);
},
{
closed = 1;
nodes = (
"134 94 OFFCURVE",
"66 190 OFFCURVE",
"66 333 CURVE SMOOTH",
"66 510 OFFCURVE",
"177 693 OFFCURVE",
"326 693 CURVE SMOOTH",
"463 693 OFFCURVE",
"552 551 OFFCURVE",
"552 400 CURVE SMOOTH",
"552 200 OFFCURVE",
"408 94 OFFCURVE",
"294 94 CURVE SMOOTH"
);
},
{
closed = 1;
nodes = (
"456 116 OFFCURVE",
"467 106 OFFCURVE",
"467 91 CURVE SMOOTH",
"467 78 OFFCURVE",
"456 67 OFFCURVE",
"442 67 CURVE SMOOTH",
"428 67 OFFCURVE",
"418 78 OFFCURVE",
"418 91 CURVE SMOOTH",
"418 106 OFFCURVE",
"428 116 OFFCURVE",
"442 116 CURVE SMOOTH"
);
},
{
closed = 1;
nodes = (
"388 83 OFFCURVE",
"400 70 OFFCURVE",
"400 54 CURVE SMOOTH",
"400 37 OFFCURVE",
"388 26 OFFCURVE",
"372 26 CURVE SMOOTH",
"355 26 OFFCURVE",
"343 37 OFFCURVE",
"343 54 CURVE SMOOTH",
"343 70 OFFCURVE",
"355 83 OFFCURVE",
"372 83 CURVE SMOOTH"
);
},
{
closed = 1;
nodes = (
"303 65 OFFCURVE",
"314 54 OFFCURVE",
"314 39 CURVE SMOOTH",
"314 25 OFFCURVE",
"303 13 OFFCURVE",
"288 13 CURVE SMOOTH",
"274 13 OFFCURVE",
"262 25 OFFCURVE",
"262 39 CURVE SMOOTH",
"262 54 OFFCURVE",
"274 65 OFFCURVE",
"288 65 CURVE SMOOTH"
);
},
{
closed = 1;
nodes = (
"439 681 OFFCURVE",
"417 692 OFFCURVE",
"411 679 CURVE SMOOTH",
"366 586 LINE SMOOTH",
"355 564 OFFCURVE",
"387 553 OFFCURVE",
"396 575 CURVE SMOOTH",
"434 668 LINE SMOOTH"
);
},
{
closed = 1;
nodes = (
"176 654 OFFCURVE",
"156 633 OFFCURVE",
"166 621 CURVE SMOOTH",
"235 539 LINE SMOOTH",
"248 523 OFFCURVE",
"272 550 OFFCURVE",
"257 567 CURVE SMOOTH",
"187 643 LINE SMOOTH"
);
},
{
closed = 1;
nodes = (
"71 483 OFFCURVE",
"65 447 OFFCURVE",
"80 444 CURVE SMOOTH",
"186 423 LINE SMOOTH",
"204 419 OFFCURVE",
"209 444 OFFCURVE",
"188 450 CURVE SMOOTH",
"88 478 LINE SMOOTH"
);
},
{
closed = 1;
nodes = (
"49 256 OFFCURVE",
"59 227 OFFCURVE",
"77 234 CURVE SMOOTH",
"158 267 LINE SMOOTH",
"183 277 OFFCURVE",
"170 310 OFFCURVE",
"147 300 CURVE SMOOTH",
"67 264 LINE SMOOTH"
);
},
{
closed = 1;
nodes = (
"193 68 OFFCURVE",
"226 58 OFFCURVE",
"233 79 CURVE SMOOTH",
"272 196 LINE SMOOTH",
"280 219 OFFCURVE",
"250 231 OFFCURVE",
"242 209 CURVE SMOOTH",
"201 91 LINE SMOOTH"
);
},
{
closed = 1;
nodes = (
"390 264 OFFCURVE",
"370 241 OFFCURVE",
"383 226 CURVE SMOOTH",
"460 137 LINE SMOOTH",
"477 118 OFFCURVE",
"505 149 OFFCURVE",
"486 168 CURVE SMOOTH",
"407 247 LINE SMOOTH"
);
},
{
closed = 1;
nodes = (
"425 381 OFFCURVE",
"417 353 OFFCURVE",
"434 346 CURVE SMOOTH",
"546 298 LINE SMOOTH",
"568 288 OFFCURVE",
"577 321 OFFCURVE",
"557 329 CURVE SMOOTH",
"443 374 LINE SMOOTH"
);
},
{
closed = 1;
nodes = (
"376 476 OFFCURVE",
"382 449 OFFCURVE",
"399 453 CURVE SMOOTH",
"545 487 LINE SMOOTH",
"559 490 OFFCURVE",
"557 523 OFFCURVE",
"537 518 CURVE SMOOTH",
"395 481 LINE SMOOTH"
);
},
{
closed = 1;
nodes = (
"271 418 OFFCURVE",
"252 398 OFFCURVE",
"252 374 CURVE SMOOTH",
"252 349 OFFCURVE",
"271 332 OFFCURVE",
"296 332 CURVE SMOOTH",
"320 332 OFFCURVE",
"338 349 OFFCURVE",
"338 374 CURVE SMOOTH",
"338 398 OFFCURVE",
"320 418 OFFCURVE",
"296 418 CURVE SMOOTH"
);
}
);
width = 621;
}
);
unicode = 004F;
},
{
glyphname = P;
lastChange = "2020-05-19 00:34:23 +0000";
layers = (
{
anchors = (
{
name = bottom;
position = "{130, 0}";
},
{
name = top;
position = "{264, 701}";
}
);
layerId = "DA12CC5E-F102-4B17-B99F-C66FBA9637B7";
paths = (
{
closed = 1;
nodes = (
"157 666 OFFCURVE",
"184 667 CURVE SMOOTH",
"281 672 LINE SMOOTH",
"388 678 OFFCURVE",
"450 601 OFFCURVE",
"450 486 CURVE SMOOTH",
"450 363 OFFCURVE",
"370 319 OFFCURVE",
"274 319 CURVE SMOOTH",
"179 319 LINE SMOOTH",
"133 319 OFFCURVE",
"101 336 OFFCURVE",
"106 381 CURVE SMOOTH",
"130 597 LINE SMOOTH",
"135 646 OFFCURVE"
);
},
{
closed = 1;
nodes = (
"69 -19 OFFCURVE",
"137 -26 OFFCURVE",
"146 17 CURVE SMOOTH",
"195 256 LINE SMOOTH",
"200 282 OFFCURVE",
"213 295 OFFCURVE",
"237 295 CURVE SMOOTH",
"279 295 LINE SMOOTH",
"381 295 OFFCURVE",
"477 360 OFFCURVE",
"477 484 CURVE SMOOTH",
"477 614 OFFCURVE",
"410 688 OFFCURVE",
"311 696 CURVE SMOOTH",
"174 707 LINE SMOOTH",
"131 710 OFFCURVE",
"101 693 OFFCURVE",
"99 650 CURVE SMOOTH",
"71 25 LINE SMOOTH"
);
},
{
closed = 1;
nodes = (
"324 397 LINE SMOOTH",
"312 412 OFFCURVE",
"297 397 OFFCURVE",
"306 384 CURVE SMOOTH",
"405 245 LINE SMOOTH",
"420 224 OFFCURVE",
"445 246 OFFCURVE",
"428 267 CURVE SMOOTH"
);
},
{
closed = 1;
nodes = (
"332 509 LINE SMOOTH",
"311 515 OFFCURVE",
"302 486 OFFCURVE",
"323 481 CURVE SMOOTH",
"522 432 LINE SMOOTH",
"538 428 OFFCURVE",
"548 451 OFFCURVE",
"525 457 CURVE SMOOTH"
);
},
{
closed = 1;
nodes = (
"120 218 OFFCURVE",
"106 232 OFFCURVE",
"106 250 CURVE SMOOTH",
"106 267 OFFCURVE",
"120 281 OFFCURVE",
"138 281 CURVE SMOOTH",
"155 281 OFFCURVE",
"169 267 OFFCURVE",
"169 250 CURVE SMOOTH",
"169 232 OFFCURVE",
"155 218 OFFCURVE",
"138 218 CURVE SMOOTH"
);
},
{
closed = 1;
nodes = (
"114 145 OFFCURVE",
"103 156 OFFCURVE",
"103 170 CURVE SMOOTH",
"103 183 OFFCURVE",
"114 194 OFFCURVE",
"128 194 CURVE SMOOTH",
"142 194 OFFCURVE",
"153 183 OFFCURVE",
"153 170 CURVE SMOOTH",
"153 156 OFFCURVE",
"142 145 OFFCURVE",
"128 145 CURVE SMOOTH"
);
},
{
closed = 1;
nodes = (
"45 567 LINE SMOOTH",
"25 567 OFFCURVE",
"25 535 OFFCURVE",
"45 535 CURVE SMOOTH",
"233 539 LINE SMOOTH",
"253 539 OFFCURVE",
"255 566 OFFCURVE",
"230 566 CURVE SMOOTH"
);
},
{
closed = 1;
nodes = (
"54 465 LINE SMOOTH",
"36 463 OFFCURVE",
"38 435 OFFCURVE",
"56 437 CURVE SMOOTH",
"172 452 LINE SMOOTH",
"191 454 OFFCURVE",
"188 479 OFFCURVE",
"169 477 CURVE SMOOTH"
);
},
{
closed = 1;
nodes = (
"373 607 LINE SMOOTH",
"358 595 OFFCURVE",
"370 577 OFFCURVE",
"385 588 CURVE SMOOTH",
"487 658 LINE SMOOTH",
"504 670 OFFCURVE",
"484 695 OFFCURVE",
"468 682 CURVE SMOOTH"
);
}
);
width = 526;
},
{
associatedMasterId = "DA12CC5E-F102-4B17-B99F-C66FBA9637B7";
layerId = "809FFEC1-E722-4795-A3FE-1C4B0AFFBF2C";
name = "Feb 14 20, 14:49";
paths = (
{
closed = 1;
nodes = (
"211 644 OFFCURVE",
"248 644 CURVE SMOOTH",
"276 644 LINE SMOOTH",
"366 644 OFFCURVE",
"416 578 OFFCURVE",
"417 485 CURVE SMOOTH",
"418 372 OFFCURVE",
"349 321 OFFCURVE",
"272 321 CURVE SMOOTH",
"178 321 LINE SMOOTH",
"149 321 OFFCURVE",
"133 338 OFFCURVE",
"138 365 CURVE SMOOTH",
"184 589 LINE SMOOTH",
"191 621 OFFCURVE"
);
},
{
closed = 1;
nodes = (
"29 -54 OFFCURVE",
"255 -37 OFFCURVE",
"209 81 CURVE SMOOTH",
"155 218 LINE SMOOTH",
"146 242 OFFCURVE",
"160 256 OFFCURVE",
"180 256 CURVE SMOOTH",
"279 256 LINE SMOOTH",
"384 256 OFFCURVE",
"488 325 OFFCURVE",
"488 485 CURVE SMOOTH",
"488 645 OFFCURVE",
"390 705 OFFCURVE",
"274 705 CURVE SMOOTH",
"172 705 LINE SMOOTH",
"119 705 OFFCURVE",
"81 676 OFFCURVE",
"77 623 CURVE SMOOTH",
"37 61 LINE SMOOTH"
);
}
);
width = 600;
},
{
associatedMasterId = "DA12CC5E-F102-4B17-B99F-C66FBA9637B7";
layerId = "C00DCF32-C0C6-4065-B043-067C5A69976E";
name = "Feb 14 20, 14:54";
paths = (
{
closed = 1;
nodes = (
"149 644 OFFCURVE",
"186 644 CURVE SMOOTH",
"276 644 LINE SMOOTH",
"366 644 OFFCURVE",
"416 578 OFFCURVE",
"417 485 CURVE SMOOTH",
"418 372 OFFCURVE",
"349 321 OFFCURVE",
"272 321 CURVE SMOOTH",
"176 321 LINE SMOOTH",
"147 321 OFFCURVE",
"135 340 OFFCURVE",
"135 369 CURVE SMOOTH",
"135 589 LINE SMOOTH",
"135 621 OFFCURVE"
);
},
{
closed = 1;
nodes = (
"67 -38 OFFCURVE",
"248 -39 OFFCURVE",
"247 61 CURVE SMOOTH",
"246 221 LINE SMOOTH",
"246 244 OFFCURVE",
"254 256 OFFCURVE",
"272 256 CURVE SMOOTH",
"284 256 LINE SMOOTH",
"386 256 OFFCURVE",
"488 325 OFFCURVE",
"488 485 CURVE SMOOTH",
"488 645 OFFCURVE",
"390 705 OFFCURVE",
"274 705 CURVE SMOOTH",
"143 705 LINE SMOOTH",
"100 705 OFFCURVE",
"68 676 OFFCURVE",
"68 623 CURVE SMOOTH",
"67 61 LINE SMOOTH"
);
}
);
width = 600;
}
);
unicode = 0050;
},
{
glyphname = Q;
lastChange = "2020-05-19 00:34:23 +0000";
layers = (
{
anchors = (
{
name = bottom;
position = "{263, 0}";
},
{
name = top;
position = "{338, 700}";
}
);
layerId = "DA12CC5E-F102-4B17-B99F-C66FBA9637B7";
paths = (
{
closed = 1;
nodes = (
"520 -165 LINE SMOOTH",
"557 -185 OFFCURVE",
"584 -134 OFFCURVE",
"541 -116 CURVE SMOOTH",
"313 -19 LINE SMOOTH",
"294 -11 OFFCURVE",
"296 7 OFFCURVE",
"316 9 CURVE SMOOTH",
"488 22 OFFCURVE",
"608 162 OFFCURVE",
"608 361 CURVE SMOOTH",
"608 596 OFFCURVE",
"504 718 OFFCURVE",
"344 718 CURVE SMOOTH",
"163 718 OFFCURVE",
"39 578 OFFCURVE",
"39 289 CURVE SMOOTH",
"39 149 OFFCURVE",
"108 58 OFFCURVE",
"186 16 CURVE SMOOTH"
);
},
{
closed = 1;
nodes = (
"138 32 OFFCURVE",
"65 145 OFFCURVE",
"66 280 CURVE SMOOTH",
"67 461 OFFCURVE",
"256 629 OFFCURVE",
"408 629 CURVE SMOOTH",
"524 629 OFFCURVE",
"586 533 OFFCURVE",
"582 353 CURVE SMOOTH",
"578 151 OFFCURVE",
"449 32 OFFCURVE",
"280 32 CURVE SMOOTH"
);
},
{
closed = 1;
nodes = (
"142 547 OFFCURVE",
"131 558 OFFCURVE",
"131 570 CURVE SMOOTH",
"131 582 OFFCURVE",
"142 593 OFFCURVE",
"154 593 CURVE SMOOTH",
"166 593 OFFCURVE",
"176 582 OFFCURVE",
"176 570 CURVE SMOOTH",
"176 558 OFFCURVE",
"166 547 OFFCURVE",
"154 547 CURVE SMOOTH"
);
},
{
closed = 1;
nodes = (
"195 593 OFFCURVE",
"183 607 OFFCURVE",
"183 622 CURVE SMOOTH",
"183 638 OFFCURVE",
"195 651 OFFCURVE",
"212 651 CURVE SMOOTH",
"228 651 OFFCURVE",
"241 638 OFFCURVE",
"241 622 CURVE SMOOTH",
"241 607 OFFCURVE",
"228 593 OFFCURVE",
"212 593 CURVE SMOOTH"
);
},
{
closed = 1;
nodes = (
"268 631 OFFCURVE",
"258 641 OFFCURVE",
"258 655 CURVE SMOOTH",
"258 668 OFFCURVE",
"268 678 OFFCURVE",
"282 678 CURVE SMOOTH",
"294 678 OFFCURVE",
"305 668 OFFCURVE",
"305 655 CURVE SMOOTH",
"305 641 OFFCURVE",
"294 631 OFFCURVE",
"282 631 CURVE SMOOTH"
);
},
{
closed = 1;
nodes = (
"332 200 LINE SMOOTH",
"320 221 OFFCURVE",
"289 206 OFFCURVE",
"302 183 CURVE SMOOTH",
"380 45 LINE SMOOTH",
"391 25 OFFCURVE",
"423 41 OFFCURVE",
"412 61 CURVE SMOOTH"
);
},
{
closed = 1;
nodes = (
"440 279 LINE SMOOTH",
"421 294 OFFCURVE",
"402 269 OFFCURVE",
"420 254 CURVE SMOOTH",
"592 112 LINE SMOOTH",
"615 93 OFFCURVE",
"636 126 OFFCURVE",
"615 143 CURVE SMOOTH"
);
},
{
closed = 1;
nodes = (
"239 369 LINE SMOOTH",
"216 358 OFFCURVE",
"232 329 OFFCURVE",
"254 340 CURVE SMOOTH",
"628 531 LINE SMOOTH",
"649 542 OFFCURVE",
"636 568 OFFCURVE",
"615 557 CURVE SMOOTH"
);
},
{
closed = 1;
nodes = (
"447 377 LINE SMOOTH",
"415 380 OFFCURVE",
"414 343 OFFCURVE",
"445 340 CURVE SMOOTH",
"582 328 LINE SMOOTH",
"606 326 OFFCURVE",
"610 362 OFFCURVE",
"584 364 CURVE SMOOTH"
);
},
{
closed = 1;
nodes = (
"443 -36 LINE SMOOTH",
"451 -19 OFFCURVE",
"431 -9 OFFCURVE",
"422 -24 CURVE SMOOTH",
"317 -201 LINE SMOOTH",
"304 -223 OFFCURVE",
"341 -244 OFFCURVE",
"352 -221 CURVE SMOOTH"
);
},
{
closed = 1;
nodes = (
"542 6 LINE SMOOTH",
"549 24 OFFCURVE",
"516 36 OFFCURVE",
"509 17 CURVE SMOOTH",
"425 -198 LINE SMOOTH",
"416 -220 OFFCURVE",
"445 -229 OFFCURVE",
"454 -208 CURVE SMOOTH"
);
}
);
width = 645;
},
{
anchors = (
{
name = bottom;
position = "{258, 0}";
},
{
name = top;
position = "{333, 700}";
}
);
associatedMasterId = "DA12CC5E-F102-4B17-B99F-C66FBA9637B7";
layerId = "6826C30A-40C4-429F-8A27-29E94C568599";
name = "Apr 14 20, 20:10";
paths = (
{
closed = 1;
nodes = (
"495 -154 LINE SMOOTH",
"532 -174 OFFCURVE",
"559 -123 OFFCURVE",
"516 -105 CURVE SMOOTH",
"308 -19 LINE SMOOTH",
"289 -11 OFFCURVE",
"291 7 OFFCURVE",
"311 9 CURVE SMOOTH",
"483 22 OFFCURVE",
"603 162 OFFCURVE",
"603 361 CURVE SMOOTH",
"603 596 OFFCURVE",
"499 718 OFFCURVE",
"339 718 CURVE SMOOTH",
"158 718 OFFCURVE",
"34 574 OFFCURVE",
"34 277 CURVE SMOOTH",
"34 150 OFFCURVE",
"103 58 OFFCURVE",
"181 16 CURVE SMOOTH"
);
},
{
closed = 1;
nodes = (
"143 36 OFFCURVE",
"75 148 OFFCURVE",
"76 268 CURVE SMOOTH",
"78 453 OFFCURVE",
"264 620 OFFCURVE",
"414 620 CURVE SMOOTH",
"520 620 OFFCURVE",
"572 526 OFFCURVE",
"569 357 CURVE SMOOTH",
"565 150 OFFCURVE",
"440 36 OFFCURVE",
"275 36 CURVE SMOOTH"
);
},
{
closed = 1;
nodes = (
"147 538 OFFCURVE",
"135 550 OFFCURVE",
"135 564 CURVE SMOOTH",
"135 577 OFFCURVE",
"147 589 OFFCURVE",
"161 589 CURVE SMOOTH",
"174 589 OFFCURVE",
"185 577 OFFCURVE",
"185 564 CURVE SMOOTH",
"185 550 OFFCURVE",
"174 538 OFFCURVE",
"161 538 CURVE SMOOTH"
);
},
{
closed = 1;
nodes = (
"206 589 OFFCURVE",
"192 604 OFFCURVE",
"192 621 CURVE SMOOTH",
"192 639 OFFCURVE",
"206 653 OFFCURVE",
"224 653 CURVE SMOOTH",
"242 653 OFFCURVE",
"256 639 OFFCURVE",
"256 621 CURVE SMOOTH",
"256 604 OFFCURVE",
"242 589 OFFCURVE",
"224 589 CURVE SMOOTH"
);
},
{
closed = 1;
nodes = (
"286 631 OFFCURVE",
"275 642 OFFCURVE",
"275 657 CURVE SMOOTH",
"275 671 OFFCURVE",
"286 683 OFFCURVE",
"301 683 CURVE SMOOTH",
"315 683 OFFCURVE",
"327 671 OFFCURVE",
"327 657 CURVE SMOOTH",
"327 642 OFFCURVE",
"315 631 OFFCURVE",
"301 631 CURVE SMOOTH"
);
},
{
closed = 1;
nodes = (
"334 193 LINE SMOOTH",
"321 217 OFFCURVE",
"295 200 OFFCURVE",
"304 183 CURVE SMOOTH",
"375 45 LINE SMOOTH",
"385 26 OFFCURVE",
"418 41 OFFCURVE",
"407 61 CURVE SMOOTH"
);
},
{
closed = 1;
nodes = (
"362 336 LINE SMOOTH",
"343 351 OFFCURVE",
"324 326 OFFCURVE",
"342 311 CURVE SMOOTH",
"522 164 LINE SMOOTH",
"539 150 OFFCURVE",
"561 182 OFFCURVE",
"545 195 CURVE SMOOTH"
);
},
{
closed = 1;
nodes = (
"334 193 LINE SMOOTH",
"321 217 OFFCURVE",
"295 200 OFFCURVE",
"304 183 CURVE SMOOTH",
"375 45 LINE SMOOTH",
"385 26 OFFCURVE",
"418 41 OFFCURVE",
"407 61 CURVE SMOOTH"
);
}
);
width = 627;
}
);
unicode = 0051;
},
{
glyphname = R;
lastChange = "2020-05-26 01:05:43 +0000";
layers = (
{
anchors = (
{
name = bottom;
position = "{298, 0}";
},
{
name = top;
position = "{330, 700}";
}
);
layerId = "DA12CC5E-F102-4B17-B99F-C66FBA9637B7";
paths = (
{
closed = 1;
nodes = (
"96 -59 OFFCURVE",
"139 -51 OFFCURVE",
"137 -27 CURVE SMOOTH",
"111 299 LINE SMOOTH",
"110 310 OFFCURVE",
"113 322 OFFCURVE",
"122 322 CURVE SMOOTH",
"126 322 LINE SMOOTH",
"139 322 OFFCURVE",
"155 309 OFFCURVE",
"163 301 CURVE SMOOTH",
"459 16 LINE SMOOTH",
"500 -24 OFFCURVE",
"573 -12 OFFCURVE",
"573 57 CURVE SMOOTH",
"573 88 OFFCURVE",
"561 118 OFFCURVE",
"528 135 CURVE SMOOTH",
"199 305 LINE SMOOTH",
"179 315 OFFCURVE",
"182 321 OFFCURVE",
"199 321 CURVE SMOOTH",
"248 321 OFFCURVE",
"258 321 OFFCURVE",
"342 321 CURVE SMOOTH",
"467 321 OFFCURVE",
"567 383 OFFCURVE",
"568 509 CURVE SMOOTH",
"569 634 OFFCURVE",
"487 716 OFFCURVE",
"320 716 CURVE SMOOTH",
"320 716 LINE SMOOTH",
"177 716 OFFCURVE",
"65 631 OFFCURVE",
"72 485 CURVE SMOOTH",
"95 -28 LINE SMOOTH"
);
},
{
closed = 1;
nodes = (
"99 482 LINE SMOOTH",
"94 617 OFFCURVE",
"197 689 OFFCURVE",
"314 689 CURVE SMOOTH",
"318 689 LINE SMOOTH",
"465 689 OFFCURVE",
"540 618 OFFCURVE",
"540 508 CURVE SMOOTH",
"540 412 OFFCURVE",
"467 347 OFFCURVE",
"345 347 CURVE SMOOTH",
"137 347 LINE SMOOTH",
"111 347 OFFCURVE",
"104 354 OFFCURVE",
"103 380 CURVE SMOOTH"
);
},
{
closed = 1;
nodes = (
"485 94 LINE SMOOTH",
"485 68 OFFCURVE",
"438 68 OFFCURVE",
"441 99 CURVE SMOOTH",
"449 173 LINE",
"485 156 LINE"
);
},
{
closed = 1;
nodes = (
"406 155 LINE SMOOTH",
"407 123 OFFCURVE",
"359 138 OFFCURVE",
"366 161 CURVE SMOOTH",
"380 206 LINE",
"405 193 LINE"
);
},
{
closed = 1;
nodes = (
"523 236 OFFCURVE",
"544 257 OFFCURVE",
"544 283 CURVE SMOOTH",
"544 309 OFFCURVE",
"523 330 OFFCURVE",
"497 330 CURVE SMOOTH",
"471 330 OFFCURVE",
"450 309 OFFCURVE",
"450 283 CURVE SMOOTH",
"450 257 OFFCURVE",
"471 236 OFFCURVE",
"497 236 CURVE SMOOTH"
);
},
{
closed = 1;
nodes = (
"230 23 OFFCURVE",
"222 55 OFFCURVE",
"197 53 CURVE SMOOTH",
"45 41 LINE SMOOTH",
"21 39 OFFCURVE",
"27 11 OFFCURVE",
"48 12 CURVE SMOOTH",
"199 21 LINE SMOOTH"
);
},
{
closed = 1;
nodes = (
"199 118 OFFCURVE",
"197 142 OFFCURVE",
"171 144 CURVE SMOOTH",
"55 153 LINE SMOOTH",
"28 155 OFFCURVE",
"28 118 OFFCURVE",
"52 118 CURVE SMOOTH",
"170 118 LINE SMOOTH"
);
}
);
width = 582;
},
{
anchors = (
{
name = bottom;
position = "{277, 0}";
},
{
name = top;
position = "{326, 721}";
}
);
associatedMasterId = "DA12CC5E-F102-4B17-B99F-C66FBA9637B7";
layerId = "8C844C47-E3AA-49C7-AD1F-5E45DE6F15E6";
name = "Spiral [500]";
paths = (
{
closed = 1;
nodes = (
"97 -59 OFFCURVE",
"145 -56 OFFCURVE",
"141 -23 CURVE SMOOTH",
"104 269 LINE SMOOTH",
"101 292 OFFCURVE",
"118 296 OFFCURVE",
"136 281 CURVE SMOOTH",
"465 16 LINE SMOOTH",
"501 -13 OFFCURVE",
"562 0 OFFCURVE",
"562 60 CURVE SMOOTH",
"562 99 OFFCURVE",
"547 118 OFFCURVE",
"514 134 CURVE SMOOTH",
"158 308 LINE SMOOTH",
"121 326 OFFCURVE",
"106 342 OFFCURVE",
"105 367 CURVE SMOOTH",
"100 466 LINE SMOOTH",
"92 621 OFFCURVE",
"194 692 OFFCURVE",
"318 692 CURVE",
"318 692 LINE",
"432 692 OFFCURVE",
"512 643 OFFCURVE",
"512 518 CURVE SMOOTH",
"512 429 OFFCURVE",
"443 370 OFFCURVE",
"353 370 CURVE SMOOTH",
"267 370 OFFCURVE",
"217 410 OFFCURVE",
"217 476 CURVE SMOOTH",
"217 551 OFFCURVE",
"270 581 OFFCURVE",
"319 581 CURVE SMOOTH",
"369 581 OFFCURVE",
"401 559 OFFCURVE",
"401 523 CURVE SMOOTH",
"401 485 OFFCURVE",
"382 467 OFFCURVE",
"334 460 CURVE SMOOTH",
"318 457 OFFCURVE",
"321 431 OFFCURVE",
"342 434 CURVE SMOOTH",
"390 441 OFFCURVE",
"428 470 OFFCURVE",
"428 524 CURVE SMOOTH",
"428 574 OFFCURVE",
"383 606 OFFCURVE",
"319 606 CURVE SMOOTH",
"253 606 OFFCURVE",
"190 560 OFFCURVE",
"190 477 CURVE SMOOTH",
"190 398 OFFCURVE",
"252 345 OFFCURVE",
"352 345 CURVE SMOOTH",
"448 345 OFFCURVE",
"539 410 OFFCURVE",
"539 517 CURVE SMOOTH",
"539 648 OFFCURVE",
"446 717 OFFCURVE",
"317 717 CURVE",
"317 717 LINE",
"204 717 OFFCURVE",
"66 655 OFFCURVE",
"74 473 CURVE SMOOTH",
"96 -27 LINE SMOOTH"
);
},
{
closed = 1;
nodes = (
"487 94 LINE SMOOTH",
"488 63 OFFCURVE",
"433 62 OFFCURVE",
"438 102 CURVE SMOOTH",
"446 167 LINE",
"486 148 LINE"
);
},
{
closed = 1;
nodes = (
"408 158 LINE SMOOTH",
"408 120 OFFCURVE",
"353 137 OFFCURVE",
"363 169 CURVE SMOOTH",
"374 203 LINE",
"408 186 LINE"
);
},
{
closed = 1;
nodes = (
"524 236 OFFCURVE",
"545 257 OFFCURVE",
"545 283 CURVE SMOOTH",
"545 309 OFFCURVE",
"524 330 OFFCURVE",
"498 330 CURVE SMOOTH",
"472 330 OFFCURVE",
"451 309 OFFCURVE",
"451 283 CURVE SMOOTH",
"451 257 OFFCURVE",
"472 236 OFFCURVE",
"498 236 CURVE SMOOTH"
);
},
{
closed = 1;
nodes = (
"228 29 OFFCURVE",
"221 58 OFFCURVE",
"199 56 CURVE SMOOTH",
"47 44 LINE SMOOTH",
"21 42 OFFCURVE",
"24 17 OFFCURVE",
"49 18 CURVE SMOOTH",
"200 27 LINE SMOOTH"
);
},
{
closed = 1;
nodes = (
"194 121 OFFCURVE",
"193 142 OFFCURVE",
"172 144 CURVE SMOOTH",
"56 153 LINE SMOOTH",
"29 155 OFFCURVE",
"29 121 OFFCURVE",
"53 121 CURVE SMOOTH",
"171 121 LINE SMOOTH"
);
},
{
closed = 1;
nodes = (
"170 671 LINE",
"127 725 LINE SMOOTH",
"107 750 OFFCURVE",
"79 722 OFFCURVE",
"97 703 CURVE SMOOTH",
"146 652 LINE"
);
},
{
closed = 1;
nodes = (
"257 702 LINE",
"236 775 LINE SMOOTH",
"230 796 OFFCURVE",
"200 789 OFFCURVE",
"205 769 CURVE SMOOTH",
"224 698 LINE"
);
},
{
closed = 1;
nodes = (
"490 637 LINE",
"562 697 LINE SMOOTH",
"580 712 OFFCURVE",
"556 740 OFFCURVE",
"538 722 CURVE SMOOTH",
"473 657 LINE"
);
}
);
width = 582;
},
{
anchors = (
{
name = bottom;
position = "{270, 0}";
},
{
name = top;
position = "{302, 700}";
}
);
associatedMasterId = "DA12CC5E-F102-4B17-B99F-C66FBA9637B7";
layerId = "AA2F978F-83BB-4942-AFA6-394EC8F04DB1";
name = "Apr 17 20, 12:43";
paths = (
{
closed = 1;
nodes = (
"68 -59 OFFCURVE",
"112 -51 OFFCURVE",
"109 -27 CURVE SMOOTH",
"73 281 LINE SMOOTH",
"72 288 OFFCURVE",
"80 295 OFFCURVE",
"88 295 CURVE SMOOTH",
"89 295 LINE SMOOTH",
"95 295 OFFCURVE",
"102 293 OFFCURVE",
"111 286 CURVE SMOOTH",
"431 16 LINE SMOOTH",
"474 -20 OFFCURVE",
"545 -12 OFFCURVE",
"545 57 CURVE SMOOTH",
"545 88 OFFCURVE",
"533 119 OFFCURVE",
"500 135 CURVE SMOOTH",
"97 327 LINE SMOOTH",
"74 338 OFFCURVE",
"78 378 OFFCURVE",
"119 358 CURVE SMOOTH",
"169 333 OFFCURVE",
"230 319 OFFCURVE",
"314 319 CURVE SMOOTH",
"439 319 OFFCURVE",
"539 383 OFFCURVE",
"540 509 CURVE SMOOTH",
"541 634 OFFCURVE",
"459 716 OFFCURVE",
"292 716 CURVE SMOOTH",
"292 716 LINE SMOOTH",
"149 716 OFFCURVE",
"37 631 OFFCURVE",
"44 485 CURVE SMOOTH",
"67 -28 LINE SMOOTH"
);
},
{
closed = 1;
nodes = (
"71 482 LINE SMOOTH",
"71 617 OFFCURVE",
"169 689 OFFCURVE",
"286 689 CURVE SMOOTH",
"290 689 LINE SMOOTH",
"437 689 OFFCURVE",
"512 618 OFFCURVE",
"512 508 CURVE SMOOTH",
"512 412 OFFCURVE",
"439 347 OFFCURVE",
"317 347 CURVE SMOOTH",
"317 347 LINE SMOOTH",
"226 347 OFFCURVE",
"71 370 OFFCURVE",
"71 461 CURVE SMOOTH"
);
},
{
closed = 1;
nodes = (
"457 94 LINE SMOOTH",
"457 68 OFFCURVE",
"410 68 OFFCURVE",
"413 99 CURVE SMOOTH",
"421 173 LINE",
"457 156 LINE"
);
},
{
closed = 1;
nodes = (
"378 155 LINE SMOOTH",
"379 123 OFFCURVE",
"331 138 OFFCURVE",
"338 161 CURVE SMOOTH",
"352 206 LINE",
"377 193 LINE"
);
},
{
closed = 1;
nodes = (
"485 216 OFFCURVE",
"506 237 OFFCURVE",
"506 263 CURVE SMOOTH",
"506 289 OFFCURVE",
"485 310 OFFCURVE",
"459 310 CURVE SMOOTH",
"433 310 OFFCURVE",
"412 289 OFFCURVE",
"412 263 CURVE SMOOTH",
"412 237 OFFCURVE",
"433 216 OFFCURVE",
"459 216 CURVE SMOOTH"
);
},
{
closed = 1;
nodes = (
"202 23 OFFCURVE",
"194 55 OFFCURVE",
"169 53 CURVE SMOOTH",
"17 41 LINE SMOOTH",
"-7 39 OFFCURVE",
"-1 11 OFFCURVE",
"20 12 CURVE SMOOTH",
"171 21 LINE SMOOTH"
);
},
{
closed = 1;
nodes = (
"171 118 OFFCURVE",
"169 142 OFFCURVE",
"143 144 CURVE SMOOTH",
"27 153 LINE SMOOTH",
"0 155 OFFCURVE",
"0 118 OFFCURVE",
"24 118 CURVE SMOOTH",
"142 118 LINE SMOOTH"
);
},
{
closed = 1;
nodes = (
"382 394 OFFCURVE",
"459 446 OFFCURVE",
"459 509 CURVE SMOOTH",
"459 573 OFFCURVE",
"387 628 OFFCURVE",
"299 628 CURVE SMOOTH",
"207 628 OFFCURVE",
"133 568 OFFCURVE",
"133 496 CURVE SMOOTH",
"133 440 OFFCURVE",
"203 394 OFFCURVE",
"289 394 CURVE SMOOTH"
);
},
{
closed = 1;
nodes = (
"222 417 OFFCURVE",
"162 454 OFFCURVE",
"162 500 CURVE SMOOTH",
"162 553 OFFCURVE",
"227 598 OFFCURVE",
"306 598 CURVE SMOOTH",
"375 598 OFFCURVE",
"431 557 OFFCURVE",
"431 509 CURVE SMOOTH",
"431 458 OFFCURVE",
"370 417 OFFCURVE",
"296 417 CURVE SMOOTH"
);
},
{
closed = 1;
nodes = (
"316 475 OFFCURVE",
"335 491 OFFCURVE",
"335 510 CURVE SMOOTH",
"335 528 OFFCURVE",
"318 544 OFFCURVE",
"297 544 CURVE SMOOTH",
"275 544 OFFCURVE",
"257 529 OFFCURVE",
"257 510 CURVE SMOOTH",
"257 490 OFFCURVE",
"274 475 OFFCURVE",
"293 475 CURVE SMOOTH"
);
}
);
width = 600;
}
);
rightMetricsKey = "27t";
unicode = 0052;
},
{
glyphname = S;
lastChange = "2020-05-19 00:34:23 +0000";
layers = (
{
anchors = (
{
name = bottom;
position = "{219, -20}";
},
{
name = cedilla;
position = "{190, 0}";
},
{
name = top;
position = "{237, 710}";
}
);
layerId = "DA12CC5E-F102-4B17-B99F-C66FBA9637B7";
paths = (
{
closed = 1;
nodes = (
"352 -11 OFFCURVE",
"431 60 OFFCURVE",
"431 164 CURVE SMOOTH",
"431 265 OFFCURVE",
"364 328 OFFCURVE",
"261 370 CURVE SMOOTH",
"184 401 LINE SMOOTH",
"117 428 OFFCURVE",
"65 466 OFFCURVE",
"65 539 CURVE SMOOTH",
"65 644 OFFCURVE",
"152 696 OFFCURVE",
"253 696 CURVE SMOOTH",
"299 696 OFFCURVE",
"333 679 OFFCURVE",
"353 679 CURVE SMOOTH",
"361 679 OFFCURVE",
"365 683 OFFCURVE",
"365 690 CURVE SMOOTH",
"365 703 OFFCURVE",
"312 721 OFFCURVE",
"251 721 CURVE SMOOTH",
"132 721 OFFCURVE",
"39 659 OFFCURVE",
"39 531 CURVE SMOOTH",
"39 454 OFFCURVE",
"87 409 OFFCURVE",
"143 372 CURVE SMOOTH",
"207 329 LINE SMOOTH",
"305 263 OFFCURVE",
"326 195 OFFCURVE",
"326 142 CURVE SMOOTH",
"326 54 OFFCURVE",
"272 13 OFFCURVE",
"208 13 CURVE SMOOTH",
"110 13 OFFCURVE",
"73 65 OFFCURVE",
"49 65 CURVE SMOOTH",
"38 65 OFFCURVE",
"33 54 OFFCURVE",
"41 47 CURVE SMOOTH",
"64 26 OFFCURVE",
"136 -11 OFFCURVE",
"218 -11 CURVE SMOOTH"
);
},
{
closed = 1;
nodes = (
"363 106 OFFCURVE",
"353 116 OFFCURVE",
"353 130 CURVE SMOOTH",
"353 145 OFFCURVE",
"363 154 OFFCURVE",
"378 154 CURVE SMOOTH",
"392 154 OFFCURVE",
"402 145 OFFCURVE",
"402 130 CURVE SMOOTH",
"402 116 OFFCURVE",
"392 106 OFFCURVE",
"378 106 CURVE SMOOTH"
);
},
{
closed = 1;
nodes = (
"353 181 OFFCURVE",
"342 192 OFFCURVE",
"342 209 CURVE SMOOTH",
"342 224 OFFCURVE",
"353 236 OFFCURVE",
"370 236 CURVE SMOOTH",
"386 236 OFFCURVE",
"397 224 OFFCURVE",
"397 209 CURVE SMOOTH",
"397 192 OFFCURVE",
"386 181 OFFCURVE",
"370 181 CURVE SMOOTH"
);
},
{
closed = 1;
nodes = (
"320 251 OFFCURVE",
"310 261 OFFCURVE",
"310 275 CURVE SMOOTH",
"310 287 OFFCURVE",
"320 296 OFFCURVE",
"332 296 CURVE SMOOTH",
"346 296 OFFCURVE",
"355 287 OFFCURVE",
"355 275 CURVE SMOOTH",
"355 261 OFFCURVE",
"346 251 OFFCURVE",
"332 251 CURVE SMOOTH"
);
},
{
closed = 1;
nodes = (
"259 506 OFFCURVE",
"276 524 OFFCURVE",
"276 546 CURVE SMOOTH",
"276 570 OFFCURVE",
"259 588 OFFCURVE",
"236 588 CURVE SMOOTH",
"213 588 OFFCURVE",
"194 570 OFFCURVE",
"194 546 CURVE SMOOTH",
"194 524 OFFCURVE",
"213 506 OFFCURVE",
"236 506 CURVE SMOOTH"
);
},
{
closed = 1;
nodes = (
"165 117 LINE SMOOTH",
"167 137 OFFCURVE",
"141 141 OFFCURVE",
"138 122 CURVE SMOOTH",
"107 -83 LINE SMOOTH",
"103 -109 OFFCURVE",
"137 -111 OFFCURVE",
"140 -88 CURVE SMOOTH"
);
},
{
closed = 1;
nodes = (
"246 95 LINE SMOOTH",
"241 114 OFFCURVE",
"214 108 OFFCURVE",
"219 88 CURVE SMOOTH",
"259 -61 LINE SMOOTH",
"266 -86 OFFCURVE",
"294 -74 OFFCURVE",
"288 -52 CURVE SMOOTH"
);
},
{
closed = 1;
nodes = (
"246 342 LINE",
"228 357 LINE",
"157 279 LINE SMOOTH",
"139 260 OFFCURVE",
"167 237 OFFCURVE",
"183 259 CURVE SMOOTH"
);
},
{
closed = 1;
nodes = (
"125 586 LINE SMOOTH",
"141 579 OFFCURVE",
"149 603 OFFCURVE",
"134 610 CURVE SMOOTH",
"15 667 LINE SMOOTH",
"-7 678 OFFCURVE",
"-20 645 OFFCURVE",
"3 636 CURVE SMOOTH"
);
},
{
closed = 1;
nodes = (
"123 678 LINE",
"145 695 LINE",
"107 745 LINE SMOOTH",
"95 761 OFFCURVE",
"69 741 OFFCURVE",
"83 725 CURVE SMOOTH"
);
}
);
width = 461;
},
{
associatedMasterId = "DA12CC5E-F102-4B17-B99F-C66FBA9637B7";
layerId = "515D910A-C9C0-453D-8DB6-27C96F57A26B";
name = "Feb 14 20, 16:05";
paths = (
{
closed = 1;
nodes = (
"443 633 OFFCURVE",
"413 633 CURVE SMOOTH",
"361 633 OFFCURVE",
"286 619 OFFCURVE",
"220 611 CURVE SMOOTH",
"165 604 OFFCURVE",
"153 580 OFFCURVE",
"153 552 CURVE SMOOTH",
"153 483 OFFCURVE",
"225 413 OFFCURVE",
"294 383 CURVE SMOOTH",
"329 368 LINE SMOOTH",
"401 336 OFFCURVE",
"448 295 OFFCURVE",
"448 215 CURVE SMOOTH",
"448 66 OFFCURVE",
"370 -27 OFFCURVE",
"203 -27 CURVE SMOOTH",
"124 -27 OFFCURVE",
"70 -10 OFFCURVE",
"33 25 CURVE SMOOTH",
"-13 69 OFFCURVE",
"2 174 OFFCURVE",
"78 174 CURVE SMOOTH",
"139 174 OFFCURVE",
"158 156 OFFCURVE",
"243 156 CURVE SMOOTH",
"328 156 OFFCURVE",
"377 183 OFFCURVE",
"377 225 CURVE SMOOTH",
"377 258 OFFCURVE",
"369 296 OFFCURVE",
"300 312 CURVE SMOOTH",
"254 323 LINE SMOOTH",
"63 367 OFFCURVE",
"8 422 OFFCURVE",
"8 523 CURVE SMOOTH",
"8 634 OFFCURVE",
"81 686 OFFCURVE",
"243 700 CURVE SMOOTH",
"312 706 OFFCURVE",
"405 712 OFFCURVE",
"432 694 CURVE SMOOTH",
"452 681 OFFCURVE"
);
}
);
width = 496;
},
{
associatedMasterId = "DA12CC5E-F102-4B17-B99F-C66FBA9637B7";
layerId = "CE390A49-E91A-4A38-A085-0574CE6BDA14";
name = "Feb 14 20, 16:07";
paths = (
{
closed = 1;
nodes = (
"411 615 OFFCURVE",
"381 615 CURVE SMOOTH",
"341 615 OFFCURVE",
"311 629 OFFCURVE",
"255 629 CURVE SMOOTH",
"169 629 OFFCURVE",
"118 598 OFFCURVE",
"118 560 CURVE SMOOTH",
"118 527 OFFCURVE",
"142 496 OFFCURVE",
"225 479 CURVE SMOOTH",
"303 463 LINE SMOOTH",
"418 440 OFFCURVE",
"460 343 OFFCURVE",
"460 242 CURVE SMOOTH",
"460 60 OFFCURVE",
"387 -15 OFFCURVE",
"230 -15 CURVE SMOOTH",
"144 -15 OFFCURVE",
"103 -5 OFFCURVE",
"87 7 CURVE SMOOTH",
"57 29 OFFCURVE",
"75 54 OFFCURVE",
"93 54 CURVE SMOOTH",
"143 54 OFFCURVE",
"158 36 OFFCURVE",
"227 36 CURVE SMOOTH",
"320 36 OFFCURVE",
"388 106 OFFCURVE",
"388 242 CURVE SMOOTH",
"388 279 OFFCURVE",
"362 312 OFFCURVE",
"244 332 CURVE SMOOTH",
"176 344 LINE SMOOTH",
"87 360 OFFCURVE",
"34 416 OFFCURVE",
"34 509 CURVE SMOOTH",
"34 621 OFFCURVE",
"106 705 OFFCURVE",
"262 705 CURVE SMOOTH",
"341 705 OFFCURVE",
"377 690 OFFCURVE",
"396 671 CURVE SMOOTH",
"417 650 OFFCURVE"
);
}
);
width = 496;
},
{
associatedMasterId = "DA12CC5E-F102-4B17-B99F-C66FBA9637B7";
layerId = "BC14FC6B-267E-4BFF-8F1B-7C3543B2EBDD";
name = "Feb 14 20, 17:08";
paths = (
{
closed = 1;
nodes = (
"386 604 OFFCURVE",
"353 648 OFFCURVE",
"268 648 CURVE SMOOTH",
"143 648 OFFCURVE",
"90 587 OFFCURVE",
"90 513 CURVE SMOOTH",
"90 426 OFFCURVE",
"136 389 OFFCURVE",
"226 369 CURVE SMOOTH",
"299 353 LINE SMOOTH",
"411 328 OFFCURVE",
"456 277 OFFCURVE",
"456 185 CURVE SMOOTH",
"456 56 OFFCURVE",
"358 -15 OFFCURVE",
"236 -15 CURVE SMOOTH",
"153 -15 OFFCURVE",
"102 4 OFFCURVE",
"63 43 CURVE SMOOTH",
"22 85 OFFCURVE",
"39 186 OFFCURVE",
"111 186 CURVE SMOOTH",
"161 186 OFFCURVE",
"176 168 OFFCURVE",
"254 168 CURVE SMOOTH",
"325 168 OFFCURVE",
"384 186 OFFCURVE",
"384 222 CURVE SMOOTH",
"384 251 OFFCURVE",
"365 273 OFFCURVE",
"280 292 CURVE SMOOTH",
"208 308 LINE SMOOTH",
"95 333 OFFCURVE",
"30 399 OFFCURVE",
"30 514 CURVE SMOOTH",
"30 634 OFFCURVE",
"131 705 OFFCURVE",
"266 705 CURVE SMOOTH",
"351 705 OFFCURVE",
"435 667 OFFCURVE",
"435 555 CURVE SMOOTH",
"435 476 OFFCURVE",
"372 431 OFFCURVE",
"285 431 CURVE SMOOTH",
"217 431 OFFCURVE",
"164 461 OFFCURVE",
"164 516 CURVE SMOOTH",
"164 569 OFFCURVE",
"210 593 OFFCURVE",
"251 593 CURVE SMOOTH",
"287 593 OFFCURVE",
"318 576 OFFCURVE",
"328 548 CURVE SMOOTH",
"337 524 OFFCURVE",
"309 509 OFFCURVE",
"297 531 CURVE SMOOTH",
"288 547 OFFCURVE",
"272 556 OFFCURVE",
"250 556 CURVE SMOOTH",
"231 556 OFFCURVE",
"205 544 OFFCURVE",
"205 517 CURVE SMOOTH",
"205 487 OFFCURVE",
"236 475 OFFCURVE",
"287 475 CURVE SMOOTH",
"367 475 OFFCURVE",
"386 519 OFFCURVE",
"386 556 CURVE SMOOTH"
);
},
{
closed = 1;
nodes = (
"165 62 OFFCURVE",
"178 75 OFFCURVE",
"178 93 CURVE SMOOTH",
"178 110 OFFCURVE",
"165 123 OFFCURVE",
"148 123 CURVE SMOOTH",
"130 123 OFFCURVE",
"117 110 OFFCURVE",
"117 93 CURVE SMOOTH",
"117 75 OFFCURVE",
"130 62 OFFCURVE",
"148 62 CURVE SMOOTH"
);
},
{
closed = 1;
nodes = (
"264 42 OFFCURVE",
"279 57 OFFCURVE",
"279 77 CURVE SMOOTH",
"279 96 OFFCURVE",
"264 111 OFFCURVE",
"245 111 CURVE SMOOTH",
"225 111 OFFCURVE",
"210 96 OFFCURVE",
"210 77 CURVE SMOOTH",
"210 57 OFFCURVE",
"225 42 OFFCURVE",
"245 42 CURVE SMOOTH"
);
},
{
closed = 1;
nodes = (
"360 65 OFFCURVE",
"373 79 OFFCURVE",
"373 97 CURVE SMOOTH",
"373 114 OFFCURVE",
"360 127 OFFCURVE",
"343 127 CURVE SMOOTH",
"325 127 OFFCURVE",
"311 114 OFFCURVE",
"311 97 CURVE SMOOTH",
"311 79 OFFCURVE",
"325 65 OFFCURVE",
"343 65 CURVE SMOOTH"
);
}
);
width = 486;
},
{
associatedMasterId = "DA12CC5E-F102-4B17-B99F-C66FBA9637B7";
layerId = "7754DF54-5DC0-4387-98FE-78E07D4A30B0";
name = "Feb 14 20, 17:13";
paths = (
{
closed = 1;
nodes = (
"387 599 OFFCURVE",
"365 618 CURVE SMOOTH",
"341 639 OFFCURVE",
"319 656 OFFCURVE",
"288 656 CURVE SMOOTH",
"213 656 OFFCURVE",
"105 514 OFFCURVE",
"105 450 CURVE SMOOTH",
"105 425 OFFCURVE",
"131 406 OFFCURVE",
"215 389 CURVE SMOOTH",
"293 373 LINE SMOOTH",
"413 349 OFFCURVE",
"460 294 OFFCURVE",
"460 198 CURVE SMOOTH",
"460 60 OFFCURVE",
"387 -15 OFFCURVE",
"230 -15 CURVE SMOOTH",
"144 -15 OFFCURVE",
"97 2 OFFCURVE",
"60 37 CURVE SMOOTH",
"14 81 OFFCURVE",
"29 186 OFFCURVE",
"105 186 CURVE SMOOTH",
"155 186 OFFCURVE",
"170 168 OFFCURVE",
"239 168 CURVE SMOOTH",
"325 168 OFFCURVE",
"388 193 OFFCURVE",
"388 242 CURVE SMOOTH",
"388 271 OFFCURVE",
"367 292 OFFCURVE",
"274 312 CURVE SMOOTH",
"176 333 LINE SMOOTH",
"58 358 OFFCURVE",
"14 413 OFFCURVE",
"14 496 CURVE SMOOTH",
"14 630 OFFCURVE",
"106 705 OFFCURVE",
"264 705 CURVE SMOOTH",
"326 705 OFFCURVE",
"372 689 OFFCURVE",
"405 649 CURVE SMOOTH",
"420 631 OFFCURVE"
);
},
{
closed = 1;
nodes = (
"165 62 OFFCURVE",
"178 75 OFFCURVE",
"178 93 CURVE SMOOTH",
"178 110 OFFCURVE",
"165 123 OFFCURVE",
"148 123 CURVE SMOOTH",
"130 123 OFFCURVE",
"117 110 OFFCURVE",
"117 93 CURVE SMOOTH",
"117 75 OFFCURVE",
"130 62 OFFCURVE",
"148 62 CURVE SMOOTH"
);
},
{
closed = 1;
nodes = (
"264 42 OFFCURVE",
"279 57 OFFCURVE",
"279 77 CURVE SMOOTH",
"279 96 OFFCURVE",
"264 111 OFFCURVE",
"245 111 CURVE SMOOTH",
"225 111 OFFCURVE",
"210 96 OFFCURVE",
"210 77 CURVE SMOOTH",
"210 57 OFFCURVE",
"225 42 OFFCURVE",
"245 42 CURVE SMOOTH"
);
},
{
closed = 1;
nodes = (
"360 65 OFFCURVE",
"373 79 OFFCURVE",
"373 97 CURVE SMOOTH",
"373 114 OFFCURVE",
"360 127 OFFCURVE",
"343 127 CURVE SMOOTH",
"325 127 OFFCURVE",
"311 114 OFFCURVE",
"311 97 CURVE SMOOTH",
"311 79 OFFCURVE",
"325 65 OFFCURVE",
"343 65 CURVE SMOOTH"
);
},
{
closed = 1;
nodes = (
"302 460 OFFCURVE",
"325 483 OFFCURVE",
"325 511 CURVE SMOOTH",
"325 540 OFFCURVE",
"302 563 OFFCURVE",
"274 563 CURVE SMOOTH",
"245 563 OFFCURVE",
"222 540 OFFCURVE",
"222 511 CURVE SMOOTH",
"222 483 OFFCURVE",
"245 460 OFFCURVE",
"274 460 CURVE SMOOTH"
);
}
);
width = 486;
},
{
associatedMasterId = "DA12CC5E-F102-4B17-B99F-C66FBA9637B7";
layerId = "B6E0F96A-E155-4149-9529-9E710F4E53D1";
name = "Feb 14 20, 17:15";
paths = (
{
closed = 1;
nodes = (
"312 488 OFFCURVE",
"278 556 CURVE SMOOTH",
"244 624 OFFCURVE",
"227 639 OFFCURVE",
"196 639 CURVE SMOOTH",
"110 639 OFFCURVE",
"77 569 OFFCURVE",
"77 530 CURVE SMOOTH",
"77 473 OFFCURVE",
"106 412 OFFCURVE",
"215 389 CURVE SMOOTH",
"293 373 LINE SMOOTH",
"413 349 OFFCURVE",
"460 294 OFFCURVE",
"460 198 CURVE SMOOTH",
"460 60 OFFCURVE",
"387 -15 OFFCURVE",
"230 -15 CURVE SMOOTH",
"144 -15 OFFCURVE",
"97 2 OFFCURVE",
"60 37 CURVE SMOOTH",
"14 81 OFFCURVE",
"29 186 OFFCURVE",
"105 186 CURVE SMOOTH",
"155 186 OFFCURVE",
"170 168 OFFCURVE",
"239 168 CURVE SMOOTH",
"325 168 OFFCURVE",
"388 193 OFFCURVE",
"388 242 CURVE SMOOTH",
"388 271 OFFCURVE",
"367 292 OFFCURVE",
"274 312 CURVE SMOOTH",
"176 333 LINE SMOOTH",
"58 358 OFFCURVE",
"14 413 OFFCURVE",
"14 496 CURVE SMOOTH",
"14 630 OFFCURVE",
"106 705 OFFCURVE",
"264 705 CURVE SMOOTH",
"339 705 OFFCURVE",
"417 689 OFFCURVE",
"449 638 CURVE SMOOTH",
"503 551 OFFCURVE"
);
},
{
closed = 1;
nodes = (
"165 62 OFFCURVE",
"178 75 OFFCURVE",
"178 93 CURVE SMOOTH",
"178 110 OFFCURVE",
"165 123 OFFCURVE",
"148 123 CURVE SMOOTH",
"130 123 OFFCURVE",
"117 110 OFFCURVE",
"117 93 CURVE SMOOTH",
"117 75 OFFCURVE",
"130 62 OFFCURVE",
"148 62 CURVE SMOOTH"
);
},
{
closed = 1;
nodes = (
"264 42 OFFCURVE",
"279 57 OFFCURVE",
"279 77 CURVE SMOOTH",
"279 96 OFFCURVE",
"264 111 OFFCURVE",
"245 111 CURVE SMOOTH",
"225 111 OFFCURVE",
"210 96 OFFCURVE",
"210 77 CURVE SMOOTH",
"210 57 OFFCURVE",
"225 42 OFFCURVE",
"245 42 CURVE SMOOTH"
);
},
{
closed = 1;
nodes = (
"360 65 OFFCURVE",
"373 79 OFFCURVE",
"373 97 CURVE SMOOTH",
"373 114 OFFCURVE",
"360 127 OFFCURVE",
"343 127 CURVE SMOOTH",
"325 127 OFFCURVE",
"311 114 OFFCURVE",
"311 97 CURVE SMOOTH",
"311 79 OFFCURVE",
"325 65 OFFCURVE",
"343 65 CURVE SMOOTH"
);
},
{
closed = 1;
nodes = (
"213 453 OFFCURVE",
"236 476 OFFCURVE",
"236 504 CURVE SMOOTH",
"236 533 OFFCURVE",
"213 556 OFFCURVE",
"185 556 CURVE SMOOTH",
"156 556 OFFCURVE",
"133 533 OFFCURVE",
"133 504 CURVE SMOOTH",
"133 476 OFFCURVE",
"156 453 OFFCURVE",
"185 453 CURVE SMOOTH"
);
}
);
width = 486;
},
{
associatedMasterId = "DA12CC5E-F102-4B17-B99F-C66FBA9637B7";
layerId = "7A0127AC-AC56-472C-9FFD-3899733E23C9";
name = "Feb 14 20, 17:21";
paths = (
{
closed = 1;
nodes = (
"405 606 OFFCURVE",
"365 621 CURVE SMOOTH",
"329 635 OFFCURVE",
"296 645 OFFCURVE",
"252 645 CURVE SMOOTH",
"163 645 OFFCURVE",
"97 594 OFFCURVE",
"97 517 CURVE SMOOTH",
"97 456 OFFCURVE",
"134 411 OFFCURVE",
"193 395 CURVE SMOOTH",
"313 363 LINE SMOOTH",
"418 335 OFFCURVE",
"460 289 OFFCURVE",
"460 198 CURVE SMOOTH",
"460 60 OFFCURVE",
"387 -15 OFFCURVE",
"230 -15 CURVE SMOOTH",
"144 -15 OFFCURVE",
"97 2 OFFCURVE",
"60 37 CURVE SMOOTH",
"14 81 OFFCURVE",
"29 186 OFFCURVE",
"105 186 CURVE SMOOTH",
"155 186 OFFCURVE",
"170 168 OFFCURVE",
"239 168 CURVE SMOOTH",
"325 168 OFFCURVE",
"388 193 OFFCURVE",
"388 242 CURVE SMOOTH",
"388 267 OFFCURVE",
"370 285 OFFCURVE",
"294 305 CURVE SMOOTH",
"180 335 LINE SMOOTH",
"90 359 OFFCURVE",
"35 420 OFFCURVE",
"35 511 CURVE SMOOTH",
"35 649 OFFCURVE",
"153 705 OFFCURVE",
"252 705 CURVE SMOOTH",
"305 705 OFFCURVE",
"363 694 OFFCURVE",
"390 679 CURVE SMOOTH",
"424 660 OFFCURVE"
);
},
{
closed = 1;
nodes = (
"165 62 OFFCURVE",
"178 75 OFFCURVE",
"178 93 CURVE SMOOTH",
"178 110 OFFCURVE",
"165 123 OFFCURVE",
"148 123 CURVE SMOOTH",
"130 123 OFFCURVE",
"117 110 OFFCURVE",
"117 93 CURVE SMOOTH",
"117 75 OFFCURVE",
"130 62 OFFCURVE",
"148 62 CURVE SMOOTH"
);
},
{
closed = 1;
nodes = (
"264 42 OFFCURVE",
"279 57 OFFCURVE",
"279 77 CURVE SMOOTH",
"279 96 OFFCURVE",
"264 111 OFFCURVE",
"245 111 CURVE SMOOTH",
"225 111 OFFCURVE",
"210 96 OFFCURVE",
"210 77 CURVE SMOOTH",
"210 57 OFFCURVE",
"225 42 OFFCURVE",
"245 42 CURVE SMOOTH"
);
},
{
closed = 1;
nodes = (
"360 65 OFFCURVE",
"373 79 OFFCURVE",
"373 97 CURVE SMOOTH",
"373 114 OFFCURVE",
"360 127 OFFCURVE",
"343 127 CURVE SMOOTH",
"325 127 OFFCURVE",
"311 114 OFFCURVE",
"311 97 CURVE SMOOTH",
"311 79 OFFCURVE",
"325 65 OFFCURVE",
"343 65 CURVE SMOOTH"
);
},
{
closed = 1;
nodes = (
"292 463 OFFCURVE",
"315 486 OFFCURVE",
"315 514 CURVE SMOOTH",
"315 543 OFFCURVE",
"292 566 OFFCURVE",
"264 566 CURVE SMOOTH",
"235 566 OFFCURVE",
"212 543 OFFCURVE",
"212 514 CURVE SMOOTH",
"212 486 OFFCURVE",
"235 463 OFFCURVE",
"264 463 CURVE SMOOTH"
);
}
);
width = 486;
},
{
associatedMasterId = "DA12CC5E-F102-4B17-B99F-C66FBA9637B7";
layerId = "B7F04CF7-960D-47FE-ADAC-0CCE05699FD1";
name = "Feb 14 20, 17:27";
paths = (
{
closed = 1;
nodes = (
"384 635 OFFCURVE",
"358 635 CURVE SMOOTH",
"336 635 OFFCURVE",
"309 670 OFFCURVE",
"261 670 CURVE SMOOTH",
"177 670 OFFCURVE",
"107 586 OFFCURVE",
"107 487 CURVE SMOOTH",
"107 441 OFFCURVE",
"141 411 OFFCURVE",
"201 395 CURVE SMOOTH",
"326 362 LINE SMOOTH",
"418 337 OFFCURVE",
"460 292 OFFCURVE",
"460 204 CURVE SMOOTH",
"460 62 OFFCURVE",
"387 -15 OFFCURVE",
"231 -15 CURVE SMOOTH",
"153 -15 OFFCURVE",
"79 14 OFFCURVE",
"49 78 CURVE SMOOTH",
"18 144 OFFCURVE",
"51 204 OFFCURVE",
"107 204 CURVE SMOOTH",
"176 204 OFFCURVE",
"245 158 OFFCURVE",
"309 158 CURVE SMOOTH",
"360 158 OFFCURVE",
"398 176 OFFCURVE",
"398 212 CURVE SMOOTH",
"398 249 OFFCURVE",
"380 282 OFFCURVE",
"294 305 CURVE SMOOTH",
"178 335 LINE SMOOTH",
"96 357 OFFCURVE",
"44 405 OFFCURVE",
"44 486 CURVE SMOOTH",
"44 645 OFFCURVE",
"159 731 OFFCURVE",
"259 731 CURVE SMOOTH",
"325 731 OFFCURVE",
"373 704 OFFCURVE",
"390 679 CURVE SMOOTH",
"403 659 OFFCURVE"
);
},
{
closed = 1;
nodes = (
"145 84 OFFCURVE",
"158 97 OFFCURVE",
"158 115 CURVE SMOOTH",
"158 132 OFFCURVE",
"145 145 OFFCURVE",
"128 145 CURVE SMOOTH",
"110 145 OFFCURVE",
"97 132 OFFCURVE",
"97 115 CURVE SMOOTH",
"97 97 OFFCURVE",
"110 84 OFFCURVE",
"128 84 CURVE SMOOTH"
);
},
{
closed = 1;
nodes = (
"234 37 OFFCURVE",
"250 53 OFFCURVE",
"250 75 CURVE SMOOTH",
"250 96 OFFCURVE",
"234 112 OFFCURVE",
"213 112 CURVE SMOOTH",
"191 112 OFFCURVE",
"175 96 OFFCURVE",
"175 75 CURVE SMOOTH",
"175 53 OFFCURVE",
"191 37 OFFCURVE",
"213 37 CURVE SMOOTH"
);
},
{
closed = 1;
nodes = (
"330 58 OFFCURVE",
"343 72 OFFCURVE",
"343 90 CURVE SMOOTH",
"343 107 OFFCURVE",
"330 120 OFFCURVE",
"313 120 CURVE SMOOTH",
"295 120 OFFCURVE",
"281 107 OFFCURVE",
"281 90 CURVE SMOOTH",
"281 72 OFFCURVE",
"295 58 OFFCURVE",
"313 58 CURVE SMOOTH"
);
},
{
closed = 1;
nodes = (
"236 471 OFFCURVE",
"213 494 OFFCURVE",
"213 522 CURVE SMOOTH",
"213 551 OFFCURVE",
"236 574 OFFCURVE",
"265 574 CURVE SMOOTH",
"293 574 OFFCURVE",
"316 551 OFFCURVE",
"316 522 CURVE SMOOTH",
"316 494 OFFCURVE",
"293 471 OFFCURVE",
"265 471 CURVE SMOOTH"
);
}
);
width = 486;
},
{
associatedMasterId = "DA12CC5E-F102-4B17-B99F-C66FBA9637B7";
layerId = "F7270CE6-EC14-4FE1-BF3C-D8386C37735E";
name = "Feb 14 20, 17:34";
paths = (
{
closed = 1;
nodes = (
"403 659 OFFCURVE",
"384 635 OFFCURVE",
"358 635 CURVE SMOOTH",
"336 635 OFFCURVE",
"309 670 OFFCURVE",
"261 670 CURVE SMOOTH",
"191 670 OFFCURVE",
"135 609 OFFCURVE",
"135 521 CURVE SMOOTH",
"135 477 OFFCURVE",
"159 438 OFFCURVE",
"220 421 CURVE SMOOTH",
"326 392 LINE SMOOTH",
"418 367 OFFCURVE",
"460 307 OFFCURVE",
"460 232 CURVE SMOOTH",
"460 72 OFFCURVE",
"387 -15 OFFCURVE",
"237 -15 CURVE SMOOTH",
"153 -15 OFFCURVE",
"79 14 OFFCURVE",
"49 78 CURVE SMOOTH",
"18 144 OFFCURVE",
"51 204 OFFCURVE",
"107 204 CURVE SMOOTH",
"185 204 OFFCURVE",
"250 164 OFFCURVE",
"336 163 CURVE SMOOTH",
"384 163 OFFCURVE",
"398 189 OFFCURVE",
"398 240 CURVE SMOOTH",
"398 267 OFFCURVE",
"382 311 OFFCURVE",
"318 329 CURVE SMOOTH",
"180 369 LINE SMOOTH",
"119 386 OFFCURVE",
"72 443 OFFCURVE",
"72 520 CURVE SMOOTH",
"72 665 OFFCURVE",
"171 731 OFFCURVE",
"259 731 CURVE SMOOTH",
"325 731 OFFCURVE",
"373 704 OFFCURVE",
"390 679 CURVE SMOOTH"
);
},
{
closed = 1;
nodes = (
"151 81 OFFCURVE",
"164 94 OFFCURVE",
"164 112 CURVE SMOOTH",
"164 129 OFFCURVE",
"151 142 OFFCURVE",
"134 142 CURVE SMOOTH",
"116 142 OFFCURVE",
"103 129 OFFCURVE",
"103 112 CURVE SMOOTH",
"103 94 OFFCURVE",
"116 81 OFFCURVE",
"134 81 CURVE SMOOTH"
);
},
{
closed = 1;
nodes = (
"250 42 OFFCURVE",
"266 58 OFFCURVE",
"266 80 CURVE SMOOTH",
"266 101 OFFCURVE",
"250 117 OFFCURVE",
"229 117 CURVE SMOOTH",
"207 117 OFFCURVE",
"191 101 OFFCURVE",
"191 80 CURVE SMOOTH",
"191 58 OFFCURVE",
"207 42 OFFCURVE",
"229 42 CURVE SMOOTH"
);
},
{
closed = 1;
nodes = (
"345 59 OFFCURVE",
"357 72 OFFCURVE",
"357 89 CURVE SMOOTH",
"357 106 OFFCURVE",
"345 118 OFFCURVE",
"328 118 CURVE SMOOTH",
"311 118 OFFCURVE",
"298 106 OFFCURVE",
"298 89 CURVE SMOOTH",
"298 72 OFFCURVE",
"311 59 OFFCURVE",
"328 59 CURVE SMOOTH"
);
},
{
closed = 1;
nodes = (
"218 691 LINE",
"259 691 LINE",
"267 590 LINE SMOOTH",
"271 536 OFFCURVE",
"215 536 OFFCURVE",
"216 590 CURVE SMOOTH"
);
}
);
width = 486;
},
{
associatedMasterId = "DA12CC5E-F102-4B17-B99F-C66FBA9637B7";
layerId = "BC8D79AF-3BC0-4D56-AB49-78A14622A66E";
name = "Mar 10 20, 14:18";
paths = (
{
closed = 1;
nodes = (
"133 -15 OFFCURVE",
"59 14 OFFCURVE",
"29 78 CURVE SMOOTH",
"-8 157 OFFCURVE",
"31 234 OFFCURVE",
"87 234 CURVE SMOOTH",
"162 234 OFFCURVE",
"224 184 OFFCURVE",
"306 183 CURVE SMOOTH",
"356 183 OFFCURVE",
"371 207 OFFCURVE",
"371 253 CURVE SMOOTH",
"371 280 OFFCURVE",
"356 312 OFFCURVE",
"298 329 CURVE SMOOTH",
"162 368 LINE SMOOTH",
"94 387 OFFCURVE",
"45 439 OFFCURVE",
"45 527 CURVE SMOOTH",
"45 677 OFFCURVE",
"155 731 OFFCURVE",
"257 731 CURVE SMOOTH",
"336 731 OFFCURVE",
"393 699 OFFCURVE",
"393 663 CURVE SMOOTH",
"393 633 OFFCURVE",
"374 625 OFFCURVE",
"355 625 CURVE SMOOTH",
"328 625 OFFCURVE",
"298 640 OFFCURVE",
"251 640 CURVE SMOOTH",
"178 640 OFFCURVE",
"115 590 OFFCURVE",
"115 511 CURVE SMOOTH",
"115 471 OFFCURVE",
"140 439 OFFCURVE",
"200 422 CURVE SMOOTH",
"306 392 LINE SMOOTH",
"401 365 OFFCURVE",
"440 307 OFFCURVE",
"440 232 CURVE SMOOTH",
"440 72 OFFCURVE",
"367 -15 OFFCURVE",
"217 -15 CURVE SMOOTH"
);
},
{
closed = 1;
nodes = (
"131 100 OFFCURVE",
"144 113 OFFCURVE",
"144 131 CURVE SMOOTH",
"144 148 OFFCURVE",
"131 161 OFFCURVE",
"114 161 CURVE SMOOTH",
"96 161 OFFCURVE",
"83 148 OFFCURVE",
"83 131 CURVE SMOOTH",
"83 113 OFFCURVE",
"96 100 OFFCURVE",
"114 100 CURVE SMOOTH"
);
},
{
closed = 1;
nodes = (
"230 52 OFFCURVE",
"246 68 OFFCURVE",
"246 90 CURVE SMOOTH",
"246 111 OFFCURVE",
"230 127 OFFCURVE",
"209 127 CURVE SMOOTH",
"187 127 OFFCURVE",
"171 111 OFFCURVE",
"171 90 CURVE SMOOTH",
"171 68 OFFCURVE",
"187 52 OFFCURVE",
"209 52 CURVE SMOOTH"
);
},
{
closed = 1;
nodes = (
"325 67 OFFCURVE",
"337 80 OFFCURVE",
"337 97 CURVE SMOOTH",
"337 114 OFFCURVE",
"325 126 OFFCURVE",
"308 126 CURVE SMOOTH",
"291 126 OFFCURVE",
"278 114 OFFCURVE",
"278 97 CURVE SMOOTH",
"278 80 OFFCURVE",
"291 67 OFFCURVE",
"308 67 CURVE SMOOTH"
);
},
{
closed = 1;
nodes = (
"226 475 OFFCURVE",
"204 497 OFFCURVE",
"204 523 CURVE SMOOTH",
"204 551 OFFCURVE",
"226 572 OFFCURVE",
"253 572 CURVE SMOOTH",
"280 572 OFFCURVE",
"301 551 OFFCURVE",
"301 523 CURVE SMOOTH",
"301 497 OFFCURVE",
"280 475 OFFCURVE",
"253 475 CURVE SMOOTH"
);
}
);
width = 461;
}
);
unicode = 0053;
},
{
glyphname = T;
lastChange = "2020-05-19 00:34:23 +0000";
layers = (
{
associatedMasterId = "DA12CC5E-F102-4B17-B99F-C66FBA9637B7";
layerId = "8A879DE0-885C-43C5-9FD2-53FD95FC1C2B";
name = "Feb 15 20, 17:13";
paths = (
{
closed = 1;
nodes = (
"196 270 OFFCURVE",
"291 270 OFFCURVE",
"287 327 CURVE SMOOTH",
"272 544 LINE",
"202 524 LINE",
"197 327 LINE SMOOTH"
);
},
{
closed = 1;
nodes = (
"432 572 OFFCURVE",
"457 594 OFFCURVE",
"457 628 CURVE SMOOTH",
"457 675 OFFCURVE",
"433 704 OFFCURVE",
"382 702 CURVE SMOOTH",
"121 692 LINE SMOOTH",
"43 689 OFFCURVE",
"14 630 OFFCURVE",
"14 554 CURVE SMOOTH",
"14 475 OFFCURVE",
"74 412 OFFCURVE",
"157 449 CURVE SMOOTH",
"388 552 LINE SMOOTH"
);
},
{
closed = 1;
nodes = (
"313 615 LINE SMOOTH",
"319 582 OFFCURVE",
"249 559 OFFCURVE",
"245 608 CURVE SMOOTH",
"238 697 LINE",
"298 699 LINE"
);
},
{
closed = 1;
nodes = (
"199 596 LINE SMOOTH",
"198 551 OFFCURVE",
"120 547 OFFCURVE",
"126 593 CURVE SMOOTH",
"140 692 LINE",
"201 694 LINE"
);
},
{
closed = 1;
nodes = (
"272 146 OFFCURVE",
"294 168 OFFCURVE",
"294 195 CURVE SMOOTH",
"294 223 OFFCURVE",
"272 245 OFFCURVE",
"244 245 CURVE SMOOTH",
"217 245 OFFCURVE",
"195 223 OFFCURVE",
"195 195 CURVE SMOOTH",
"195 168 OFFCURVE",
"217 146 OFFCURVE",
"244 146 CURVE SMOOTH"
);
},
{
closed = 1;
nodes = (
"281 -15 OFFCURVE",
"309 13 OFFCURVE",
"309 48 CURVE SMOOTH",
"309 83 OFFCURVE",
"281 111 OFFCURVE",
"246 111 CURVE SMOOTH",
"211 111 OFFCURVE",
"183 83 OFFCURVE",
"183 48 CURVE SMOOTH",
"183 13 OFFCURVE",
"211 -15 OFFCURVE",
"246 -15 CURVE SMOOTH"
);
}
);
width = 474;
},
{
associatedMasterId = "DA12CC5E-F102-4B17-B99F-C66FBA9637B7";
layerId = "C501F5DD-2AA3-4F23-AD75-65325FC592AC";
name = "Feb 15 20, 17:15";
paths = (
{
closed = 1;
nodes = (
"196 180 OFFCURVE",
"290 180 OFFCURVE",
"287 237 CURVE SMOOTH",
"272 544 LINE",
"202 524 LINE",
"197 237 LINE SMOOTH"
);
},
{
closed = 1;
nodes = (
"432 572 OFFCURVE",
"457 594 OFFCURVE",
"457 628 CURVE SMOOTH",
"457 675 OFFCURVE",
"433 704 OFFCURVE",
"382 702 CURVE SMOOTH",
"121 692 LINE SMOOTH",
"43 689 OFFCURVE",
"14 630 OFFCURVE",
"14 554 CURVE SMOOTH",
"14 475 OFFCURVE",
"74 412 OFFCURVE",
"157 449 CURVE SMOOTH",
"388 552 LINE SMOOTH"
);
},
{
closed = 1;
nodes = (
"313 615 LINE SMOOTH",
"319 582 OFFCURVE",
"249 559 OFFCURVE",
"245 608 CURVE SMOOTH",
"238 697 LINE",
"298 699 LINE"
);
},
{
closed = 1;
nodes = (
"199 596 LINE SMOOTH",
"198 551 OFFCURVE",
"120 547 OFFCURVE",
"126 593 CURVE SMOOTH",
"140 692 LINE",
"201 694 LINE"
);
},
{
closed = 1;
nodes = (
"181 -50 OFFCURVE",
"315 -49 OFFCURVE",
"308 34 CURVE SMOOTH",
"300 91 LINE SMOOTH",
"293 154 OFFCURVE",
"191 155 OFFCURVE",
"188 91 CURVE SMOOTH",
"184 34 LINE SMOOTH"
);
}
);
width = 474;
},
{
associatedMasterId = "DA12CC5E-F102-4B17-B99F-C66FBA9637B7";
layerId = "D16A1AE3-8EBE-4FE0-88F0-F27D5E503172";
name = "Feb 15 20, 17:16";
paths = (
{
closed = 1;
nodes = (
"196 180 OFFCURVE",
"290 180 OFFCURVE",
"287 237 CURVE SMOOTH",
"272 544 LINE",
"202 524 LINE",
"197 237 LINE SMOOTH"
);
},
{
closed = 1;
nodes = (
"432 572 OFFCURVE",
"457 594 OFFCURVE",
"457 628 CURVE SMOOTH",
"457 675 OFFCURVE",
"433 704 OFFCURVE",
"382 702 CURVE SMOOTH",
"121 692 LINE SMOOTH",
"43 689 OFFCURVE",
"14 630 OFFCURVE",
"14 554 CURVE SMOOTH",
"14 475 OFFCURVE",
"74 412 OFFCURVE",
"157 449 CURVE SMOOTH",
"388 552 LINE SMOOTH"
);
},
{
closed = 1;
nodes = (
"181 -50 OFFCURVE",
"315 -49 OFFCURVE",
"308 34 CURVE SMOOTH",
"300 91 LINE SMOOTH",
"293 154 OFFCURVE",
"191 155 OFFCURVE",
"188 91 CURVE SMOOTH",
"184 34 LINE SMOOTH"
);
}
);
width = 474;
},
{
associatedMasterId = "DA12CC5E-F102-4B17-B99F-C66FBA9637B7";
layerId = "48D679AF-C4E3-4B78-9DF3-08D023D7EFB8";
name = "Feb 15 20, 17:16";
paths = (
{
closed = 1;
nodes = (
"239 -40 OFFCURVE",
"322 -31 OFFCURVE",
"318 26 CURVE SMOOTH",
"278 549 LINE",
"208 529 LINE",
"236 17 LINE SMOOTH"
);
},
{
closed = 1;
nodes = (
"432 572 OFFCURVE",
"457 594 OFFCURVE",
"457 628 CURVE SMOOTH",
"457 675 OFFCURVE",
"433 704 OFFCURVE",
"382 702 CURVE SMOOTH",
"121 692 LINE SMOOTH",
"43 689 OFFCURVE",
"14 630 OFFCURVE",
"14 554 CURVE SMOOTH",
"14 475 OFFCURVE",
"74 412 OFFCURVE",
"157 449 CURVE SMOOTH",
"388 552 LINE SMOOTH"
);
},
{
closed = 1;
nodes = (
"287 292 OFFCURVE",
"284 354 OFFCURVE",
"239 354 CURVE SMOOTH",
"134 354 LINE SMOOTH",
"85 354 OFFCURVE",
"88 284 OFFCURVE",
"131 286 CURVE SMOOTH",
"242 290 LINE SMOOTH"
);
},
{
closed = 1;
nodes = (
"284 163 OFFCURVE",
"288 230 OFFCURVE",
"243 233 CURVE SMOOTH",
"153 239 LINE SMOOTH",
"107 242 OFFCURVE",
"105 167 OFFCURVE",
"150 166 CURVE SMOOTH",
"239 164 LINE SMOOTH"
);
}
);
width = 474;
},
{
associatedMasterId = "DA12CC5E-F102-4B17-B99F-C66FBA9637B7";
layerId = "8DD5AC47-84B7-481F-917D-57504950C8EC";
name = "Feb 15 20, 18:07";
paths = (
{
closed = 1;
nodes = (
"139 -40 OFFCURVE",
"306 -41 OFFCURVE",
"301 46 CURVE SMOOTH",
"272 544 LINE",
"202 524 LINE",
"149 47 LINE SMOOTH"
);
},
{
closed = 1;
nodes = (
"432 572 OFFCURVE",
"457 594 OFFCURVE",
"457 628 CURVE SMOOTH",
"457 675 OFFCURVE",
"433 704 OFFCURVE",
"382 702 CURVE SMOOTH",
"121 692 LINE SMOOTH",
"43 689 OFFCURVE",
"14 630 OFFCURVE",
"14 554 CURVE SMOOTH",
"14 475 OFFCURVE",
"74 412 OFFCURVE",
"157 449 CURVE SMOOTH",
"388 552 LINE SMOOTH"
);
},
{
closed = 1;
nodes = (
"313 615 LINE SMOOTH",
"319 582 OFFCURVE",
"249 559 OFFCURVE",
"245 608 CURVE SMOOTH",
"238 697 LINE",
"298 699 LINE"
);
},
{
closed = 1;
nodes = (
"199 596 LINE SMOOTH",
"198 551 OFFCURVE",
"120 547 OFFCURVE",
"126 593 CURVE SMOOTH",
"140 692 LINE",
"201 694 LINE"
);
}
);
width = 474;
},
{
associatedMasterId = "DA12CC5E-F102-4B17-B99F-C66FBA9637B7";
layerId = "720B1362-E6F0-4340-98CA-BD40943AC819";
name = "Feb 18 20, 14:24";
paths = (
{
closed = 1;
nodes = (
"177 -50 OFFCURVE",
"407 -31 OFFCURVE",
"390 85 CURVE SMOOTH",
"308 645 LINE",
"218 635 LINE",
"185 77 LINE SMOOTH"
);
},
{
closed = 1;
nodes = (
"500 648 OFFCURVE",
"515 663 OFFCURVE",
"515 679 CURVE SMOOTH",
"515 707 OFFCURVE",
"497 725 OFFCURVE",
"460 723 CURVE SMOOTH",
"87 701 LINE SMOOTH",
"38 698 OFFCURVE",
"20 672 OFFCURVE",
"20 633 CURVE SMOOTH",
"20 594 OFFCURVE",
"43 579 OFFCURVE",
"89 586 CURVE SMOOTH",
"466 643 LINE SMOOTH"
);
},
{
closed = 1;
nodes = (
"263 334 LINE SMOOTH",
"298 338 OFFCURVE",
"316 251 OFFCURVE",
"265 250 CURVE SMOOTH",
"195 249 LINE",
"200 327 LINE"
);
},
{
closed = 1;
nodes = (
"271 182 LINE SMOOTH",
"331 179 OFFCURVE",
"319 94 OFFCURVE",
"261 108 CURVE SMOOTH",
"188 125 LINE",
"191 186 LINE"
);
}
);
width = 535;
},
{
associatedMasterId = "DA12CC5E-F102-4B17-B99F-C66FBA9637B7";
layerId = "FAF66D73-1E94-4D44-94A9-3A138013B750";
name = "Mar 10 20, 14:31";
paths = (
{
closed = 1;
nodes = (
"234 327 LINE SMOOTH",
"269 331 OFFCURVE",
"287 244 OFFCURVE",
"236 243 CURVE SMOOTH",
"160 242 LINE",
"166 320 LINE"
);
},
{
closed = 1;
nodes = (
"243 182 LINE SMOOTH",
"303 179 OFFCURVE",
"291 96 OFFCURVE",
"233 108 CURVE SMOOTH",
"151 125 LINE",
"156 186 LINE"
);
},
{
closed = 1;
nodes = (
"137 -55 OFFCURVE",
"387 -35 OFFCURVE",
"365 85 CURVE SMOOTH",
"271 590 LINE SMOOTH",
"268 608 OFFCURVE",
"276 618 OFFCURVE",
"296 621 CURVE SMOOTH",
"431 640 LINE SMOOTH",
"460 644 OFFCURVE",
"473 661 OFFCURVE",
"473 678 CURVE SMOOTH",
"473 699 OFFCURVE",
"457 709 OFFCURVE",
"425 707 CURVE SMOOTH",
"72 685 LINE SMOOTH",
"23 682 OFFCURVE",
"5 664 OFFCURVE",
"5 632 CURVE SMOOTH",
"5 593 OFFCURVE",
"28 575 OFFCURVE",
"74 583 CURVE SMOOTH",
"162 598 LINE SMOOTH",
"181 601 OFFCURVE",
"188 592 OFFCURVE",
"186 571 CURVE SMOOTH",
"147 77 LINE SMOOTH"
);
}
);
width = 478;
},
{
anchors = (
{
name = bottom;
position = "{234, 50}";
},
{
name = cedilla;
position = "{212, 40}";
},
{
name = top;
position = "{191, 684}";
}
);
associatedMasterId = "DA12CC5E-F102-4B17-B99F-C66FBA9637B7";
layerId = "FA28D3CD-BECF-49BD-9D41-170239E606A5";
name = "May 13 20, 16:28";
paths = (
{
closed = 1;
nodes = (
"161 61 LINE SMOOTH",
"157 -30 OFFCURVE",
"289 -4 OFFCURVE",
"278 74 CURVE SMOOTH",
"256 237 LINE",
"223 231 LINE SMOOTH",
"197 226 OFFCURVE",
"193 263 OFFCURVE",
"223 266 CURVE SMOOTH",
"252 269 LINE",
"202 641 LINE SMOOTH",
"200 659 OFFCURVE",
"204 669 OFFCURVE",
"221 671 CURVE SMOOTH",
"384 694 LINE SMOOTH",
"391 695 OFFCURVE",
"396 699 OFFCURVE",
"396 707 CURVE SMOOTH",
"396 716 OFFCURVE",
"392 721 OFFCURVE",
"382 720 CURVE SMOOTH",
"29 681 LINE SMOOTH",
"16 680 OFFCURVE",
"9 673 OFFCURVE",
"9 657 CURVE SMOOTH",
"9 645 OFFCURVE",
"18 637 OFFCURVE",
"34 640 CURVE SMOOTH",
"161 661 LINE SMOOTH",
"176 663 OFFCURVE",
"181 654 OFFCURVE",
"181 640 CURVE SMOOTH",
"165 185 LINE",
"210 191 LINE SMOOTH",
"231 194 OFFCURVE",
"236 165 OFFCURVE",
"210 158 CURVE SMOOTH",
"164 146 LINE",
"163 124 LINE",
"226 119 LINE SMOOTH",
"246 117 OFFCURVE",
"243 87 OFFCURVE",
"223 86 CURVE SMOOTH",
"162 84 LINE"
);
},
{
closed = 1;
nodes = (
"322 561 OFFCURVE",
"339 578 OFFCURVE",
"339 598 CURVE SMOOTH",
"339 618 OFFCURVE",
"322 635 OFFCURVE",
"302 635 CURVE SMOOTH",
"282 635 OFFCURVE",
"265 618 OFFCURVE",
"265 598 CURVE SMOOTH",
"265 578 OFFCURVE",
"282 561 OFFCURVE",
"302 561 CURVE SMOOTH"
);
},
{
closed = 1;
nodes = (
"112 522 LINE SMOOTH",
"85 519 OFFCURVE",
"87 487 OFFCURVE",
"114 489 CURVE SMOOTH",
"198 494 LINE",
"193 530 LINE"
);
},
{
closed = 1;
nodes = (
"127 448 LINE SMOOTH",
"104 448 OFFCURVE",
"104 418 OFFCURVE",
"127 415 CURVE SMOOTH",
"194 407 LINE",
"191 447 LINE"
);
}
);
width = 380;
},
{
anchors = (
{
name = bottom;
position = "{234, 50}";
},
{
name = cedilla;
position = "{212, 40}";
},
{
name = top;
position = "{191, 684}";
}
);
layerId = "DA12CC5E-F102-4B17-B99F-C66FBA9637B7";
paths = (
{
closed = 1;
nodes = (
"158 -30 OFFCURVE",
"288 -4 OFFCURVE",
"278 74 CURVE SMOOTH",
"202 641 LINE SMOOTH",
"200 659 OFFCURVE",
"204 669 OFFCURVE",
"221 671 CURVE SMOOTH",
"384 694 LINE SMOOTH",
"391 695 OFFCURVE",
"396 699 OFFCURVE",
"396 707 CURVE SMOOTH",
"396 716 OFFCURVE",
"392 721 OFFCURVE",
"382 720 CURVE SMOOTH",
"29 681 LINE SMOOTH",
"16 680 OFFCURVE",
"9 673 OFFCURVE",
"9 657 CURVE SMOOTH",
"9 645 OFFCURVE",
"18 637 OFFCURVE",
"34 640 CURVE SMOOTH",
"161 661 LINE SMOOTH",
"176 663 OFFCURVE",
"181 654 OFFCURVE",
"181 640 CURVE SMOOTH",
"161 61 LINE SMOOTH"
);
},
{
closed = 1;
nodes = (
"223 231 LINE SMOOTH",
"197 226 OFFCURVE",
"193 263 OFFCURVE",
"223 266 CURVE SMOOTH",
"252 269 LINE",
"256 237 LINE"
);
},
{
closed = 1;
nodes = (
"210 191 LINE SMOOTH",
"231 194 OFFCURVE",
"236 165 OFFCURVE",
"210 158 CURVE SMOOTH",
"164 146 LINE",
"165 185 LINE"
);
},
{
closed = 1;
nodes = (
"226 119 LINE SMOOTH",
"246 117 OFFCURVE",
"243 87 OFFCURVE",
"223 86 CURVE SMOOTH",
"162 84 LINE",
"163 124 LINE"
);
},
{
closed = 1;
nodes = (
"322 561 OFFCURVE",
"339 578 OFFCURVE",
"339 598 CURVE SMOOTH",
"339 618 OFFCURVE",
"322 635 OFFCURVE",
"302 635 CURVE SMOOTH",
"282 635 OFFCURVE",
"265 618 OFFCURVE",
"265 598 CURVE SMOOTH",
"265 578 OFFCURVE",
"282 561 OFFCURVE",
"302 561 CURVE SMOOTH"
);
},
{
closed = 1;
nodes = (
"112 522 LINE SMOOTH",
"85 519 OFFCURVE",
"87 487 OFFCURVE",
"114 489 CURVE SMOOTH",
"198 494 LINE",
"193 530 LINE"
);
},
{
closed = 1;
nodes = (
"127 448 LINE SMOOTH",
"104 448 OFFCURVE",
"104 418 OFFCURVE",
"127 415 CURVE SMOOTH",
"194 407 LINE",
"191 447 LINE"
);
}
);
width = 380;
}
);
unicode = 0054;
},
{
glyphname = U;
lastChange = "2020-05-25 23:43:20 +0000";
layers = (
{
anchors = (
{
name = ogonek;
position = "{359, 0}";
},
{
name = top;
position = "{316, 665}";
}
);
layerId = "DA12CC5E-F102-4B17-B99F-C66FBA9637B7";
paths = (
{
closed = 1;
nodes = (
"433 3 OFFCURVE",
"488 101 OFFCURVE",
"500 243 CURVE SMOOTH",
"530 599 LINE SMOOTH",
"537 679 OFFCURVE",
"393 690 OFFCURVE",
"402 598 CURVE SMOOTH",
"442 210 LINE SMOOTH",
"454 92 OFFCURVE",
"391 28 OFFCURVE",
"287 28 CURVE SMOOTH",
"173 28 OFFCURVE",
"109 113 OFFCURVE",
"118 246 CURVE SMOOTH",
"147 689 LINE SMOOTH",
"149 712 OFFCURVE",
"126 717 OFFCURVE",
"124 693 CURVE SMOOTH",
"81 244 LINE SMOOTH",
"65 72 OFFCURVE",
"148 3 OFFCURVE",
"280 3 CURVE SMOOTH"
);
},
{
closed = 1;
nodes = (
"460 560 LINE SMOOTH",
"490 565 OFFCURVE",
"491 531 OFFCURVE",
"465 525 CURVE SMOOTH",
"411 513 LINE",
"407 552 LINE"
);
},
{
closed = 1;
nodes = (
"460 489 LINE SMOOTH",
"490 492 OFFCURVE",
"488 451 OFFCURVE",
"463 451 CURVE SMOOTH",
"417 451 LINE",
"414 485 LINE"
);
},
{
closed = 1;
nodes = (
"511 373 LINE",
"472 369 LINE SMOOTH",
"445 366 OFFCURVE",
"446 400 OFFCURVE",
"470 403 CURVE SMOOTH",
"514 409 LINE"
);
},
{
closed = 1;
nodes = (
"319 199 OFFCURVE",
"339 219 OFFCURVE",
"339 245 CURVE SMOOTH",
"339 270 OFFCURVE",
"319 290 OFFCURVE",
"294 290 CURVE SMOOTH",
"268 290 OFFCURVE",
"248 270 OFFCURVE",
"248 245 CURVE SMOOTH",
"248 219 OFFCURVE",
"268 199 OFFCURVE",
"294 199 CURVE SMOOTH"
);
},
{
closed = 1;
nodes = (
"35 589 LINE SMOOTH",
"11 588 OFFCURVE",
"10 551 OFFCURVE",
"36 553 CURVE SMOOTH",
"260 569 LINE SMOOTH",
"285 571 OFFCURVE",
"280 600 OFFCURVE",
"258 599 CURVE SMOOTH"
);
},
{
closed = 1;
nodes = (
"125 490 LINE",
"123 461 LINE",
"247 452 LINE SMOOTH",
"277 450 OFFCURVE",
"279 484 OFFCURVE",
"252 485 CURVE SMOOTH"
);
},
{
closed = 1;
nodes = (
"51 373 LINE SMOOTH",
"27 372 OFFCURVE",
"28 339 OFFCURVE",
"54 341 CURVE SMOOTH",
"206 352 LINE SMOOTH",
"231 354 OFFCURVE",
"231 383 OFFCURVE",
"209 382 CURVE SMOOTH"
);
},
{
closed = 1;
nodes = (
"356 123 LINE SMOOTH",
"346 141 OFFCURVE",
"319 128 OFFCURVE",
"331 106 CURVE SMOOTH",
"412 -43 LINE SMOOTH",
"425 -66 OFFCURVE",
"448 -51 OFFCURVE",
"437 -31 CURVE SMOOTH"
);
}
);
width = 557;
},
{
associatedMasterId = "DA12CC5E-F102-4B17-B99F-C66FBA9637B7";
layerId = "A6375592-7B4D-4D49-8E32-45788B6F87D8";
name = "Mar 10 20, 14:48";
paths = (
{
closed = 1;
nodes = (
"511 3 OFFCURVE",
"599 122 OFFCURVE",
"602 293 CURVE SMOOTH",
"608 591 LINE SMOOTH",
"611 717 OFFCURVE",
"387 729 OFFCURVE",
"399 591 CURVE SMOOTH",
"434 200 LINE SMOOTH",
"441 125 OFFCURVE",
"406 86 OFFCURVE",
"339 86 CURVE SMOOTH",
"229 86 OFFCURVE",
"168 146 OFFCURVE",
"172 278 CURVE SMOOTH",
"186 703 LINE SMOOTH",
"187 746 OFFCURVE",
"118 746 OFFCURVE",
"116 703 CURVE SMOOTH",
"69 272 LINE SMOOTH",
"48 84 OFFCURVE",
"150 3 OFFCURVE",
"302 3 CURVE SMOOTH"
);
},
{
closed = 1;
nodes = (
"487 572 LINE SMOOTH",
"517 575 OFFCURVE",
"531 513 OFFCURVE",
"487 509 CURVE SMOOTH",
"407 502 LINE",
"401 563 LINE"
);
},
{
closed = 1;
nodes = (
"489 455 LINE SMOOTH",
"533 458 OFFCURVE",
"528 378 OFFCURVE",
"496 381 CURVE SMOOTH",
"417 388 LINE",
"412 450 LINE"
);
},
{
closed = 1;
nodes = (
"311 239 OFFCURVE",
"334 262 OFFCURVE",
"334 291 CURVE SMOOTH",
"334 320 OFFCURVE",
"311 343 OFFCURVE",
"282 343 CURVE SMOOTH",
"253 343 OFFCURVE",
"230 320 OFFCURVE",
"230 291 CURVE SMOOTH",
"230 262 OFFCURVE",
"253 239 OFFCURVE",
"282 239 CURVE SMOOTH"
);
},
{
closed = 1;
nodes = (
"47 589 LINE SMOOTH",
"11 587 OFFCURVE",
"6 525 OFFCURVE",
"48 528 CURVE SMOOTH",
"252 544 LINE SMOOTH",
"293 547 OFFCURVE",
"288 601 OFFCURVE",
"250 599 CURVE SMOOTH"
);
},
{
closed = 1;
nodes = (
"137 490 LINE",
"138 429 LINE",
"262 420 LINE SMOOTH",
"303 417 OFFCURVE",
"302 484 OFFCURVE",
"264 485 CURVE SMOOTH"
);
}
);
width = 645;
}
);
unicode = 0055;
},
{
glyphname = V;
lastChange = "2020-05-19 00:34:23 +0000";
layers = (
{
associatedMasterId = "DA12CC5E-F102-4B17-B99F-C66FBA9637B7";
layerId = "22B8D85D-679B-480B-B4FB-7C4FC8E51452";
name = "Mar 10 20, 14:52";
paths = (
{
closed = 1;
nodes = (
"127 125 LINE SMOOTH",
"153 13 OFFCURVE",
"220 -22 OFFCURVE",
"290 -22 CURVE SMOOTH",
"366 -22 OFFCURVE",
"392 31 OFFCURVE",
"417 105 CURVE SMOOTH",
"597 643 LINE SMOOTH",
"615 697 OFFCURVE",
"500 716 OFFCURVE",
"486 658 CURVE SMOOTH",
"362 145 LINE SMOOTH",
"346 81 OFFCURVE",
"347 49 OFFCURVE",
"312 49 CURVE SMOOTH",
"286 49 OFFCURVE",
"241 62 OFFCURVE",
"241 104 CURVE SMOOTH",
"240 655 LINE SMOOTH",
"240 773 OFFCURVE",
"-20 750 OFFCURVE",
"22 573 CURVE SMOOTH"
);
},
{
closed = 1;
nodes = (
"395 501 OFFCURVE",
"420 526 OFFCURVE",
"420 558 CURVE SMOOTH",
"420 589 OFFCURVE",
"395 614 OFFCURVE",
"364 614 CURVE SMOOTH",
"332 614 OFFCURVE",
"307 589 OFFCURVE",
"307 558 CURVE SMOOTH",
"307 526 OFFCURVE",
"332 501 OFFCURVE",
"364 501 CURVE SMOOTH"
);
},
{
closed = 1;
nodes = (
"367 379 LINE SMOOTH",
"323 375 OFFCURVE",
"329 314 OFFCURVE",
"371 318 CURVE SMOOTH",
"583 340 LINE SMOOTH",
"624 344 OFFCURVE",
"619 400 OFFCURVE",
"581 397 CURVE SMOOTH"
);
},
{
closed = 1;
nodes = (
"131 552 LINE SMOOTH",
"170 563 OFFCURVE",
"183 495 OFFCURVE",
"139 488 CURVE SMOOTH",
"69 477 LINE",
"45 527 LINE"
);
},
{
closed = 1;
nodes = (
"181 438 LINE SMOOTH",
"223 452 OFFCURVE",
"237 392 OFFCURVE",
"199 380 CURVE SMOOTH",
"128 357 LINE",
"102 411 LINE"
);
}
);
width = 626;
},
{
anchors = (
{
name = bottom;
position = "{285, 0}";
},
{
name = top;
position = "{327, 700}";
}
);
layerId = "DA12CC5E-F102-4B17-B99F-C66FBA9637B7";
paths = (
{
closed = 1;
nodes = (
"202 46 LINE SMOOTH",
"217 2 OFFCURVE",
"240 -21 OFFCURVE",
"281 -21 CURVE SMOOTH",
"318 -21 OFFCURVE",
"339 -8 OFFCURVE",
"353 37 CURVE SMOOTH",
"550 678 LINE SMOOTH",
"558 704 OFFCURVE",
"533 714 OFFCURVE",
"525 687 CURVE SMOOTH",
"330 45 LINE SMOOTH",
"321 15 OFFCURVE",
"305 4 OFFCURVE",
"282 4 CURVE SMOOTH",
"262 4 OFFCURVE",
"249 17 OFFCURVE",
"243 47 CURVE SMOOTH",
"126 659 LINE SMOOTH",
"110 740 OFFCURVE",
"-27 717 OFFCURVE",
"4 627 CURVE SMOOTH"
);
},
{
closed = 1;
nodes = (
"83 603 LINE SMOOTH",
"106 611 OFFCURVE",
"113 582 OFFCURVE",
"93 570 CURVE SMOOTH",
"35 536 LINE",
"20 580 LINE"
);
},
{
closed = 1;
nodes = (
"95 520 LINE SMOOTH",
"113 526 OFFCURVE",
"122 498 OFFCURVE",
"100 489 CURVE SMOOTH",
"57 471 LINE",
"46 504 LINE"
);
},
{
closed = 1;
nodes = (
"108 440 LINE SMOOTH",
"132 442 OFFCURVE",
"136 415 OFFCURVE",
"114 408 CURVE SMOOTH",
"82 398 LINE",
"69 436 LINE"
);
},
{
closed = 1;
nodes = (
"355 451 OFFCURVE",
"376 472 OFFCURVE",
"376 499 CURVE SMOOTH",
"376 526 OFFCURVE",
"355 547 OFFCURVE",
"328 547 CURVE SMOOTH",
"301 547 OFFCURVE",
"280 526 OFFCURVE",
"280 499 CURVE SMOOTH",
"280 472 OFFCURVE",
"301 451 OFFCURVE",
"328 451 CURVE SMOOTH"
);
},
{
closed = 1;
nodes = (
"351 655 LINE SMOOTH",
"327 659 OFFCURVE",
"323 628 OFFCURVE",
"345 624 CURVE SMOOTH",
"510 596 LINE",
"521 629 LINE"
);
},
{
closed = 1;
nodes = (
"483 516 LINE",
"471 477 LINE",
"547 472 LINE SMOOTH",
"570 470 OFFCURVE",
"573 502 OFFCURVE",
"554 505 CURVE SMOOTH"
);
},
{
closed = 1;
nodes = (
"461 435 LINE",
"449 405 LINE",
"510 386 LINE SMOOTH",
"532 379 OFFCURVE",
"540 414 OFFCURVE",
"521 419 CURVE SMOOTH"
);
},
{
closed = 1;
nodes = (
"327 325 LINE SMOOTH",
"303 324 OFFCURVE",
"306 288 OFFCURVE",
"328 290 CURVE SMOOTH",
"527 304 LINE SMOOTH",
"550 306 OFFCURVE",
"548 336 OFFCURVE",
"528 335 CURVE SMOOTH"
);
},
{
closed = 1;
nodes = (
"320 229 LINE SMOOTH",
"297 235 OFFCURVE",
"286 205 OFFCURVE",
"309 198 CURVE SMOOTH",
"472 150 LINE SMOOTH",
"495 143 OFFCURVE",
"503 181 OFFCURVE",
"483 186 CURVE SMOOTH"
);
},
{
closed = 1;
nodes = (
"369 108 LINE",
"356 68 LINE",
"421 53 LINE SMOOTH",
"444 48 OFFCURVE",
"450 80 OFFCURVE",
"430 87 CURVE SMOOTH"
);
}
);
width = 558;
}
);
unicode = 0056;
},
{
glyphname = W;
lastChange = "2020-05-25 23:46:22 +0000";
layers = (
{
anchors = (
{
name = bottom;
position = "{419, 12}";
},
{
name = top;
position = "{409, 685}";
}
);
associatedMasterId = "DA12CC5E-F102-4B17-B99F-C66FBA9637B7";
layerId = "65B671DB-0733-4A2A-8BC3-043F6B683FE7";
name = "Apr 15 20, 14:16";
paths = (
{
closed = 1;
nodes = (
"165 98 LINE SMOOTH",
"172 66 OFFCURVE",
"188 45 OFFCURVE",
"219 45 CURVE SMOOTH",
"243 45 OFFCURVE",
"260 58 OFFCURVE",
"273 90 CURVE SMOOTH",
"385 377 LINE SMOOTH",
"396 406 OFFCURVE",
"423 404 OFFCURVE",
"436 374 CURVE SMOOTH",
"575 46 LINE SMOOTH",
"585 22 OFFCURVE",
"600 11 OFFCURVE",
"620 11 CURVE SMOOTH",
"651 11 OFFCURVE",
"667 27 OFFCURVE",
"675 58 CURVE SMOOTH",
"819 621 LINE SMOOTH",
"842 712 OFFCURVE",
"685 737 OFFCURVE",
"678 638 CURVE SMOOTH",
"635 63 LINE SMOOTH",
"632 29 OFFCURVE",
"605 33 OFFCURVE",
"598 63 CURVE SMOOTH",
"475 576 LINE SMOOTH",
"465 619 OFFCURVE",
"411 625 OFFCURVE",
"398 583 CURVE SMOOTH",
"252 101 LINE SMOOTH",
"239 59 OFFCURVE",
"200 57 OFFCURVE",
"189 108 CURVE SMOOTH",
"82 619 LINE SMOOTH",
"78 640 OFFCURVE",
"52 635 OFFCURVE",
"56 615 CURVE SMOOTH"
);
},
{
closed = 1;
nodes = (
"19 509 LINE SMOOTH",
"-6 505 OFFCURVE",
"1 465 OFFCURVE",
"26 470 CURVE SMOOTH",
"213 510 LINE SMOOTH",
"236 515 OFFCURVE",
"230 542 OFFCURVE",
"208 539 CURVE SMOOTH"
);
},
{
closed = 1;
nodes = (
"73 317 LINE SMOOTH",
"47 316 OFFCURVE",
"50 281 OFFCURVE",
"74 284 CURVE SMOOTH",
"137 291 LINE",
"133 319 LINE"
);
},
{
closed = 1;
nodes = (
"730 584 OFFCURVE",
"717 597 OFFCURVE",
"717 615 CURVE SMOOTH",
"717 631 OFFCURVE",
"730 644 OFFCURVE",
"748 644 CURVE SMOOTH",
"764 644 OFFCURVE",
"777 631 OFFCURVE",
"777 615 CURVE SMOOTH",
"777 597 OFFCURVE",
"764 584 OFFCURVE",
"748 584 CURVE SMOOTH"
);
},
{
closed = 1;
nodes = (
"444 488 LINE SMOOTH",
"415 483 OFFCURVE",
"409 516 OFFCURVE",
"433 522 CURVE SMOOTH",
"485 534 LINE",
"494 497 LINE"
);
},
{
closed = 1;
nodes = (
"475 402 LINE SMOOTH",
"451 395 OFFCURVE",
"441 438 OFFCURVE",
"466 443 CURVE SMOOTH",
"505 451 LINE",
"514 413 LINE"
);
},
{
closed = 1;
nodes = (
"55 220 LINE SMOOTH",
"29 210 OFFCURVE",
"41 181 OFFCURVE",
"65 190 CURVE SMOOTH",
"209 246 LINE SMOOTH",
"233 255 OFFCURVE",
"221 284 OFFCURVE",
"198 275 CURVE SMOOTH"
);
},
{
closed = 1;
nodes = (
"380 163 LINE SMOOTH",
"403 153 OFFCURVE",
"417 185 OFFCURVE",
"393 194 CURVE SMOOTH",
"305 228 LINE",
"295 201 LINE"
);
},
{
closed = 1;
nodes = (
"264 369 OFFCURVE",
"283 388 OFFCURVE",
"283 412 CURVE SMOOTH",
"283 434 OFFCURVE",
"264 453 OFFCURVE",
"242 453 CURVE SMOOTH",
"218 453 OFFCURVE",
"199 434 OFFCURVE",
"199 412 CURVE SMOOTH",
"199 388 OFFCURVE",
"218 369 OFFCURVE",
"242 369 CURVE SMOOTH"
);
},
{
closed = 1;
nodes = (
"550 138 LINE",
"437 104 LINE SMOOTH",
"415 97 OFFCURVE",
"424 66 OFFCURVE",
"446 71 CURVE SMOOTH",
"565 100 LINE"
);
},
{
closed = 1;
nodes = (
"670 533 LINE",
"728 521 LINE SMOOTH",
"747 517 OFFCURVE",
"742 482 OFFCURVE",
"722 485 CURVE SMOOTH",
"667 492 LINE"
);
},
{
closed = 1;
nodes = (
"664 450 LINE",
"712 447 LINE SMOOTH",
"738 445 OFFCURVE",
"733 402 OFFCURVE",
"709 405 CURVE SMOOTH",
"661 412 LINE"
);
}
);
width = 872;
},
{
anchors = (
{
name = bottom;
position = "{426, 12}";
},
{
name = top;
position = "{446, 627}";
}
);
associatedMasterId = "DA12CC5E-F102-4B17-B99F-C66FBA9637B7";
layerId = "1C7BFACA-923E-4975-A309-D6CF913C1D6C";
name = "May 13 20, 16:28";
paths = (
{
closed = 1;
nodes = (
"26 509 LINE SMOOTH",
"1 505 OFFCURVE",
"8 465 OFFCURVE",
"33 470 CURVE SMOOTH",
"220 510 LINE SMOOTH",
"243 515 OFFCURVE",
"237 542 OFFCURVE",
"215 539 CURVE SMOOTH"
);
},
{
closed = 1;
nodes = (
"80 317 LINE SMOOTH",
"54 316 OFFCURVE",
"57 281 OFFCURVE",
"81 284 CURVE SMOOTH",
"144 291 LINE",
"140 319 LINE"
);
},
{
closed = 1;
nodes = (
"753 606 OFFCURVE",
"742 617 OFFCURVE",
"742 634 CURVE SMOOTH",
"742 648 OFFCURVE",
"753 660 OFFCURVE",
"770 660 CURVE SMOOTH",
"784 660 OFFCURVE",
"796 648 OFFCURVE",
"796 634 CURVE SMOOTH",
"796 617 OFFCURVE",
"784 606 OFFCURVE",
"770 606 CURVE SMOOTH"
);
},
{
closed = 1;
nodes = (
"479 415 LINE SMOOTH",
"455 408 OFFCURVE",
"445 451 OFFCURVE",
"470 456 CURVE SMOOTH",
"509 463 LINE",
"501 497 LINE",
"451 488 LINE SMOOTH",
"422 483 OFFCURVE",
"416 516 OFFCURVE",
"440 522 CURVE SMOOTH",
"492 534 LINE",
"482 576 LINE SMOOTH",
"472 619 OFFCURVE",
"418 625 OFFCURVE",
"405 583 CURVE SMOOTH",
"259 101 LINE SMOOTH",
"246 59 OFFCURVE",
"206 57 OFFCURVE",
"195 108 CURVE SMOOTH",
"88 619 LINE SMOOTH",
"84 640 OFFCURVE",
"59 635 OFFCURVE",
"63 615 CURVE SMOOTH",
"172 98 LINE SMOOTH",
"179 66 OFFCURVE",
"195 45 OFFCURVE",
"226 45 CURVE SMOOTH",
"249 45 OFFCURVE",
"267 58 OFFCURVE",
"278 90 CURVE SMOOTH",
"384 398 LINE SMOOTH",
"394 427 OFFCURVE",
"430 424 OFFCURVE",
"442 394 CURVE SMOOTH",
"582 46 LINE SMOOTH",
"592 22 OFFCURVE",
"607 11 OFFCURVE",
"627 11 CURVE SMOOTH",
"656 11 OFFCURVE",
"671 27 OFFCURVE",
"679 58 CURVE SMOOTH",
"826 637 LINE SMOOTH",
"845 713 OFFCURVE",
"724 737 OFFCURVE",
"715 654 CURVE SMOOTH",
"652 63 LINE SMOOTH",
"648 29 OFFCURVE",
"612 33 OFFCURVE",
"605 63 CURVE SMOOTH",
"518 426 LINE"
);
},
{
closed = 1;
nodes = (
"62 220 LINE SMOOTH",
"36 210 OFFCURVE",
"48 181 OFFCURVE",
"72 190 CURVE SMOOTH",
"216 246 LINE SMOOTH",
"240 255 OFFCURVE",
"228 284 OFFCURVE",
"205 275 CURVE SMOOTH"
);
},
{
closed = 1;
nodes = (
"387 163 LINE SMOOTH",
"410 153 OFFCURVE",
"425 188 OFFCURVE",
"401 197 CURVE SMOOTH",
"313 231 LINE",
"302 201 LINE"
);
},
{
closed = 1;
nodes = (
"271 369 OFFCURVE",
"290 388 OFFCURVE",
"290 412 CURVE SMOOTH",
"290 434 OFFCURVE",
"271 453 OFFCURVE",
"249 453 CURVE SMOOTH",
"225 453 OFFCURVE",
"206 434 OFFCURVE",
"206 412 CURVE SMOOTH",
"206 388 OFFCURVE",
"225 369 OFFCURVE",
"249 369 CURVE SMOOTH"
);
},
{
closed = 1;
nodes = (
"548 151 LINE",
"435 117 LINE SMOOTH",
"413 110 OFFCURVE",
"422 80 OFFCURVE",
"444 85 CURVE SMOOTH",
"563 114 LINE"
);
},
{
closed = 1;
nodes = (
"744 532 OFFCURVE",
"733 543 OFFCURVE",
"733 557 CURVE SMOOTH",
"733 570 OFFCURVE",
"744 581 OFFCURVE",
"758 581 CURVE SMOOTH",
"772 581 OFFCURVE",
"782 570 OFFCURVE",
"782 557 CURVE SMOOTH",
"782 543 OFFCURVE",
"772 532 OFFCURVE",
"758 532 CURVE SMOOTH"
);
},
{
closed = 1;
nodes = (
"733 460 OFFCURVE",
"723 470 OFFCURVE",
"723 482 CURVE SMOOTH",
"723 494 OFFCURVE",
"733 504 OFFCURVE",
"745 504 CURVE SMOOTH",
"758 504 OFFCURVE",
"767 494 OFFCURVE",
"767 482 CURVE SMOOTH",
"767 470 OFFCURVE",
"758 460 OFFCURVE",
"745 460 CURVE SMOOTH"
);
}
);
width = 820;
},
{
anchors = (
{
name = bottom;
position = "{426, 12}";
},
{
name = top;
position = "{446, 627}";
}
);
layerId = "DA12CC5E-F102-4B17-B99F-C66FBA9637B7";
paths = (
{
closed = 1;
nodes = (
"172 98 LINE SMOOTH",
"179 66 OFFCURVE",
"195 45 OFFCURVE",
"226 45 CURVE SMOOTH",
"249 45 OFFCURVE",
"267 58 OFFCURVE",
"278 90 CURVE SMOOTH",
"384 398 LINE SMOOTH",
"394 427 OFFCURVE",
"430 424 OFFCURVE",
"442 394 CURVE SMOOTH",
"582 46 LINE SMOOTH",
"592 22 OFFCURVE",
"607 11 OFFCURVE",
"627 11 CURVE SMOOTH",
"656 11 OFFCURVE",
"671 27 OFFCURVE",
"679 58 CURVE SMOOTH",
"826 637 LINE SMOOTH",
"845 713 OFFCURVE",
"724 737 OFFCURVE",
"715 654 CURVE SMOOTH",
"652 63 LINE SMOOTH",
"648 29 OFFCURVE",
"612 33 OFFCURVE",
"605 63 CURVE SMOOTH",
"482 576 LINE SMOOTH",
"472 619 OFFCURVE",
"418 625 OFFCURVE",
"405 583 CURVE SMOOTH",
"259 101 LINE SMOOTH",
"246 59 OFFCURVE",
"206 57 OFFCURVE",
"195 108 CURVE SMOOTH",
"88 619 LINE SMOOTH",
"84 640 OFFCURVE",
"59 635 OFFCURVE",
"63 615 CURVE SMOOTH"
);
},
{
closed = 1;
nodes = (
"26 509 LINE SMOOTH",
"1 505 OFFCURVE",
"8 465 OFFCURVE",
"33 470 CURVE SMOOTH",
"220 510 LINE SMOOTH",
"243 515 OFFCURVE",
"237 542 OFFCURVE",
"215 539 CURVE SMOOTH"
);
},
{
closed = 1;
nodes = (
"80 317 LINE SMOOTH",
"54 316 OFFCURVE",
"57 281 OFFCURVE",
"81 284 CURVE SMOOTH",
"144 291 LINE",
"140 319 LINE"
);
},
{
closed = 1;
nodes = (
"753 606 OFFCURVE",
"742 617 OFFCURVE",
"742 634 CURVE SMOOTH",
"742 648 OFFCURVE",
"753 660 OFFCURVE",
"770 660 CURVE SMOOTH",
"784 660 OFFCURVE",
"796 648 OFFCURVE",
"796 634 CURVE SMOOTH",
"796 617 OFFCURVE",
"784 606 OFFCURVE",
"770 606 CURVE SMOOTH"
);
},
{
closed = 1;
nodes = (
"451 488 LINE SMOOTH",
"422 483 OFFCURVE",
"416 516 OFFCURVE",
"440 522 CURVE SMOOTH",
"492 534 LINE",
"501 497 LINE"
);
},
{
closed = 1;
nodes = (
"479 415 LINE SMOOTH",
"455 408 OFFCURVE",
"445 451 OFFCURVE",
"470 456 CURVE SMOOTH",
"509 463 LINE",
"518 426 LINE"
);
},
{
closed = 1;
nodes = (
"62 220 LINE SMOOTH",
"36 210 OFFCURVE",
"48 181 OFFCURVE",
"72 190 CURVE SMOOTH",
"216 246 LINE SMOOTH",
"240 255 OFFCURVE",
"228 284 OFFCURVE",
"205 275 CURVE SMOOTH"
);
},
{
closed = 1;
nodes = (
"387 163 LINE SMOOTH",
"410 153 OFFCURVE",
"425 188 OFFCURVE",
"401 197 CURVE SMOOTH",
"313 231 LINE",
"302 201 LINE"
);
},
{
closed = 1;
nodes = (
"271 369 OFFCURVE",
"290 388 OFFCURVE",
"290 412 CURVE SMOOTH",
"290 434 OFFCURVE",
"271 453 OFFCURVE",
"249 453 CURVE SMOOTH",
"225 453 OFFCURVE",
"206 434 OFFCURVE",
"206 412 CURVE SMOOTH",
"206 388 OFFCURVE",
"225 369 OFFCURVE",
"249 369 CURVE SMOOTH"
);
},
{
closed = 1;
nodes = (
"548 151 LINE",
"435 117 LINE SMOOTH",
"413 110 OFFCURVE",
"422 80 OFFCURVE",
"444 85 CURVE SMOOTH",
"563 114 LINE"
);
},
{
closed = 1;
nodes = (
"744 532 OFFCURVE",
"733 543 OFFCURVE",
"733 557 CURVE SMOOTH",
"733 570 OFFCURVE",
"744 581 OFFCURVE",
"758 581 CURVE SMOOTH",
"772 581 OFFCURVE",
"782 570 OFFCURVE",
"782 557 CURVE SMOOTH",
"782 543 OFFCURVE",
"772 532 OFFCURVE",
"758 532 CURVE SMOOTH"
);
},
{
closed = 1;
nodes = (
"733 460 OFFCURVE",
"723 470 OFFCURVE",
"723 482 CURVE SMOOTH",
"723 494 OFFCURVE",
"733 504 OFFCURVE",
"745 504 CURVE SMOOTH",
"758 504 OFFCURVE",
"767 494 OFFCURVE",
"767 482 CURVE SMOOTH",
"767 470 OFFCURVE",
"758 460 OFFCURVE",
"745 460 CURVE SMOOTH"
);
}
);
width = 820;
}
);
unicode = 0057;
},
{
glyphname = X;
lastChange = "2020-05-19 00:34:23 +0000";
layers = (
{
associatedMasterId = "DA12CC5E-F102-4B17-B99F-C66FBA9637B7";
layerId = "30FBC556-3009-4CDF-AF7D-764844BC3719";
name = "Feb 16 20, 16:44";
paths = (
{
closed = 1;
nodes = (
"127 388 LINE SMOOTH",
"148 343 OFFCURVE",
"187 316 OFFCURVE",
"259 316 CURVE SMOOTH",
"331 316 OFFCURVE",
"374 343 OFFCURVE",
"391 388 CURVE SMOOTH",
"500 675 LINE SMOOTH",
"519 726 OFFCURVE",
"455 753 OFFCURVE",
"439 706 CURVE SMOOTH",
"376 524 LINE SMOOTH",
"355 464 OFFCURVE",
"320 428 OFFCURVE",
"254 428 CURVE SMOOTH",
"207 428 OFFCURVE",
"168 456 OFFCURVE",
"132 531 CURVE SMOOTH",
"69 661 LINE SMOOTH",
"46 708 OFFCURVE",
"-12 685 OFFCURVE",
"8 642 CURVE SMOOTH"
);
},
{
closed = 1;
nodes = (
"391 318 LINE SMOOTH",
"369 361 OFFCURVE",
"331 390 OFFCURVE",
"259 390 CURVE SMOOTH",
"187 390 OFFCURVE",
"146 363 OFFCURVE",
"127 318 CURVE SMOOTH",
"12 38 LINE SMOOTH",
"-6 -5 OFFCURVE",
"51 -27 OFFCURVE",
"73 11 CURVE SMOOTH",
"188 210 LINE SMOOTH",
"212 252 OFFCURVE",
"244 279 OFFCURVE",
"292 279 CURVE SMOOTH",
"323 279 OFFCURVE",
"342 265 OFFCURVE",
"358 230 CURVE SMOOTH",
"465 -13 LINE SMOOTH",
"490 -69 OFFCURVE",
"570 -33 OFFCURVE",
"544 18 CURVE SMOOTH"
);
},
{
closed = 1;
nodes = (
"308 38 OFFCURVE",
"335 64 OFFCURVE",
"335 96 CURVE SMOOTH",
"335 127 OFFCURVE",
"308 154 OFFCURVE",
"277 154 CURVE SMOOTH",
"245 154 OFFCURVE",
"219 127 OFFCURVE",
"219 96 CURVE SMOOTH",
"219 64 OFFCURVE",
"245 38 OFFCURVE",
"277 38 CURVE SMOOTH"
);
},
{
closed = 1;
nodes = (
"340 638 LINE SMOOTH",
"297 644 OFFCURVE",
"290 587 OFFCURVE",
"333 582 CURVE SMOOTH",
"525 558 LINE SMOOTH",
"563 553 OFFCURVE",
"572 607 OFFCURVE",
"534 612 CURVE SMOOTH"
);
}
);
width = 537;
},
{
associatedMasterId = "DA12CC5E-F102-4B17-B99F-C66FBA9637B7";
layerId = "F28BA8E0-0A9A-4BE1-A7AB-7F23867AD978";
name = "Feb 16 20, 16:46";
paths = (
{
closed = 1;
nodes = (
"127 388 LINE SMOOTH",
"148 343 OFFCURVE",
"187 316 OFFCURVE",
"259 316 CURVE SMOOTH",
"331 316 OFFCURVE",
"374 343 OFFCURVE",
"391 388 CURVE SMOOTH",
"500 675 LINE SMOOTH",
"519 726 OFFCURVE",
"455 753 OFFCURVE",
"439 706 CURVE SMOOTH",
"376 524 LINE SMOOTH",
"359 475 OFFCURVE",
"320 448 OFFCURVE",
"254 448 CURVE SMOOTH",
"207 448 OFFCURVE",
"163 468 OFFCURVE",
"132 531 CURVE SMOOTH",
"69 661 LINE SMOOTH",
"46 708 OFFCURVE",
"-12 685 OFFCURVE",
"8 642 CURVE SMOOTH"
);
},
{
closed = 1;
nodes = (
"391 318 LINE SMOOTH",
"377 353 OFFCURVE",
"322 389 OFFCURVE",
"240 389 CURVE SMOOTH",
"182 389 OFFCURVE",
"136 378 OFFCURVE",
"119 341 CURVE SMOOTH",
"0 79 LINE SMOOTH",
"-47 -25 OFFCURVE",
"130 -66 OFFCURVE",
"156 23 CURVE SMOOTH",
"210 210 LINE SMOOTH",
"223 255 OFFCURVE",
"254 279 OFFCURVE",
"292 279 CURVE SMOOTH",
"323 279 OFFCURVE",
"344 266 OFFCURVE",
"358 230 CURVE SMOOTH",
"452 -16 LINE SMOOTH",
"470 -62 OFFCURVE",
"531 -35 OFFCURVE",
"514 8 CURVE SMOOTH"
);
},
{
closed = 1;
nodes = (
"340 638 LINE SMOOTH",
"297 644 OFFCURVE",
"290 587 OFFCURVE",
"333 582 CURVE SMOOTH",
"525 558 LINE SMOOTH",
"563 553 OFFCURVE",
"572 607 OFFCURVE",
"534 612 CURVE SMOOTH"
);
},
{
closed = 1;
nodes = (
"333 35 OFFCURVE",
"360 62 OFFCURVE",
"360 95 CURVE SMOOTH",
"360 128 OFFCURVE",
"333 155 OFFCURVE",
"300 155 CURVE SMOOTH",
"267 155 OFFCURVE",
"240 128 OFFCURVE",
"240 95 CURVE SMOOTH",
"240 62 OFFCURVE",
"267 35 OFFCURVE",
"300 35 CURVE SMOOTH"
);
}
);
width = 537;
},
{
associatedMasterId = "DA12CC5E-F102-4B17-B99F-C66FBA9637B7";
layerId = "F7C4159C-4CAD-41B9-8644-2DCB6257E943";
name = "Feb 16 20, 17:20";
paths = (
{
closed = 1;
nodes = (
"147 388 LINE SMOOTH",
"168 343 OFFCURVE",
"207 316 OFFCURVE",
"279 316 CURVE SMOOTH",
"351 316 OFFCURVE",
"394 343 OFFCURVE",
"411 388 CURVE SMOOTH",
"520 675 LINE SMOOTH",
"539 726 OFFCURVE",
"475 753 OFFCURVE",
"459 706 CURVE SMOOTH",
"396 524 LINE SMOOTH",
"379 475 OFFCURVE",
"340 448 OFFCURVE",
"274 448 CURVE SMOOTH",
"227 448 OFFCURVE",
"183 468 OFFCURVE",
"152 531 CURVE SMOOTH",
"89 661 LINE SMOOTH",
"66 708 OFFCURVE",
"8 685 OFFCURVE",
"28 642 CURVE SMOOTH"
);
},
{
closed = 1;
nodes = (
"411 318 LINE SMOOTH",
"397 353 OFFCURVE",
"342 389 OFFCURVE",
"260 389 CURVE SMOOTH",
"202 389 OFFCURVE",
"156 378 OFFCURVE",
"139 341 CURVE SMOOTH",
"25 90 LINE SMOOTH",
"-26 -23 OFFCURVE",
"165 -70 OFFCURVE",
"187 24 CURVE SMOOTH",
"230 210 LINE SMOOTH",
"241 256 OFFCURVE",
"274 279 OFFCURVE",
"312 279 CURVE SMOOTH",
"343 279 OFFCURVE",
"364 266 OFFCURVE",
"378 230 CURVE SMOOTH",
"472 -16 LINE SMOOTH",
"490 -62 OFFCURVE",
"551 -35 OFFCURVE",
"534 8 CURVE SMOOTH"
);
},
{
closed = 1;
nodes = (
"551 428 OFFCURVE",
"571 490 OFFCURVE",
"534 499 CURVE SMOOTH",
"442 521 LINE",
"425 468 LINE",
"514 440 LINE SMOOTH"
);
},
{
closed = 1;
nodes = (
"583 557 OFFCURVE",
"588 606 OFFCURVE",
"552 612 CURVE SMOOTH",
"365 642 LINE SMOOTH",
"331 647 OFFCURVE",
"318 584 OFFCURVE",
"356 580 CURVE SMOOTH",
"547 561 LINE SMOOTH"
);
},
{
closed = 1;
nodes = (
"189 34 LINE",
"115 42 LINE SMOOTH",
"72 47 OFFCURVE",
"85 116 OFFCURVE",
"129 104 CURVE SMOOTH",
"201 84 LINE"
);
},
{
closed = 1;
nodes = (
"213 135 LINE",
"153 150 LINE SMOOTH",
"109 161 OFFCURVE",
"117 217 OFFCURVE",
"162 203 CURVE SMOOTH",
"224 184 LINE"
);
},
{
closed = 1;
nodes = (
"580 106 OFFCURVE",
"564 167 OFFCURVE",
"530 155 CURVE SMOOTH",
"373 97 LINE SMOOTH",
"340 85 OFFCURVE",
"354 26 OFFCURVE",
"391 39 CURVE SMOOTH",
"547 94 LINE SMOOTH"
);
}
);
width = 587;
},
{
associatedMasterId = "DA12CC5E-F102-4B17-B99F-C66FBA9637B7";
layerId = "ABA6CCB7-D13D-4FBB-8CBF-8AEE8CB0E357";
name = "Feb 16 20, 17:23";
paths = (
{
closed = 1;
nodes = (
"147 388 LINE SMOOTH",
"168 343 OFFCURVE",
"207 316 OFFCURVE",
"279 316 CURVE SMOOTH",
"351 316 OFFCURVE",
"394 343 OFFCURVE",
"411 388 CURVE SMOOTH",
"520 675 LINE SMOOTH",
"539 726 OFFCURVE",
"475 753 OFFCURVE",
"459 706 CURVE SMOOTH",
"396 524 LINE SMOOTH",
"379 475 OFFCURVE",
"340 448 OFFCURVE",
"274 448 CURVE SMOOTH",
"227 448 OFFCURVE",
"183 468 OFFCURVE",
"152 531 CURVE SMOOTH",
"89 661 LINE SMOOTH",
"66 708 OFFCURVE",
"8 685 OFFCURVE",
"28 642 CURVE SMOOTH"
);
},
{
closed = 1;
nodes = (
"411 318 LINE SMOOTH",
"397 353 OFFCURVE",
"342 389 OFFCURVE",
"260 389 CURVE SMOOTH",
"202 389 OFFCURVE",
"156 378 OFFCURVE",
"139 341 CURVE SMOOTH",
"25 90 LINE SMOOTH",
"-26 -23 OFFCURVE",
"165 -70 OFFCURVE",
"187 24 CURVE SMOOTH",
"230 210 LINE SMOOTH",
"241 256 OFFCURVE",
"274 279 OFFCURVE",
"312 279 CURVE SMOOTH",
"343 279 OFFCURVE",
"364 266 OFFCURVE",
"378 230 CURVE SMOOTH",
"472 -16 LINE SMOOTH",
"490 -62 OFFCURVE",
"551 -35 OFFCURVE",
"534 8 CURVE SMOOTH"
);
},
{
closed = 1;
nodes = (
"551 428 OFFCURVE",
"571 490 OFFCURVE",
"534 499 CURVE SMOOTH",
"442 521 LINE",
"425 468 LINE",
"514 440 LINE SMOOTH"
);
},
{
closed = 1;
nodes = (
"583 557 OFFCURVE",
"588 606 OFFCURVE",
"552 612 CURVE SMOOTH",
"365 642 LINE SMOOTH",
"331 647 OFFCURVE",
"318 584 OFFCURVE",
"356 580 CURVE SMOOTH",
"547 561 LINE SMOOTH"
);
},
{
closed = 1;
nodes = (
"189 34 LINE",
"115 42 LINE SMOOTH",
"72 47 OFFCURVE",
"85 116 OFFCURVE",
"129 104 CURVE SMOOTH",
"201 84 LINE"
);
},
{
closed = 1;
nodes = (
"213 135 LINE",
"153 150 LINE SMOOTH",
"109 161 OFFCURVE",
"117 217 OFFCURVE",
"162 203 CURVE SMOOTH",
"224 184 LINE"
);
},
{
closed = 1;
nodes = (
"348 56 OFFCURVE",
"370 78 OFFCURVE",
"370 105 CURVE SMOOTH",
"370 131 OFFCURVE",
"348 153 OFFCURVE",
"322 153 CURVE SMOOTH",
"295 153 OFFCURVE",
"273 131 OFFCURVE",
"273 105 CURVE SMOOTH",
"273 78 OFFCURVE",
"295 56 OFFCURVE",
"322 56 CURVE SMOOTH"
);
}
);
width = 587;
},
{
anchors = (
{
name = bottom;
position = "{283, -8}";
},
{
name = top;
position = "{343, 707}";
}
);
layerId = "DA12CC5E-F102-4B17-B99F-C66FBA9637B7";
paths = (
{
closed = 1;
nodes = (
"43 -19 OFFCURVE",
"67 -27 OFFCURVE",
"75 -9 CURVE SMOOTH",
"191 258 LINE SMOOTH",
"202 284 OFFCURVE",
"236 318 OFFCURVE",
"288 318 CURVE SMOOTH",
"334 318 OFFCURVE",
"358 296 OFFCURVE",
"370 257 CURVE SMOOTH",
"440 30 LINE SMOOTH",
"457 -24 OFFCURVE",
"514 7 OFFCURVE",
"496 47 CURVE SMOOTH",
"395 266 LINE SMOOTH",
"385 288 OFFCURVE",
"365 312 OFFCURVE",
"355 318 CURVE SMOOTH",
"346 324 OFFCURVE",
"346 335 OFFCURVE",
"356 341 CURVE SMOOTH",
"379 355 OFFCURVE",
"398 377 OFFCURVE",
"409 412 CURVE SMOOTH",
"484 655 LINE SMOOTH",
"491 677 OFFCURVE",
"466 685 OFFCURVE",
"460 665 CURVE SMOOTH",
"393 426 LINE SMOOTH",
"374 360 OFFCURVE",
"333 338 OFFCURVE",
"288 338 CURVE SMOOTH",
"245 338 OFFCURVE",
"215 351 OFFCURVE",
"201 441 CURVE SMOOTH",
"164 684 LINE SMOOTH",
"154 752 OFFCURVE",
"36 720 OFFCURVE",
"63 651 CURVE SMOOTH",
"164 397 LINE SMOOTH",
"174 371 OFFCURVE",
"193 350 OFFCURVE",
"216 342 CURVE SMOOTH",
"228 338 OFFCURVE",
"227 323 OFFCURVE",
"215 318 CURVE SMOOTH",
"200 312 OFFCURVE",
"180 291 OFFCURVE",
"169 266 CURVE SMOOTH",
"52 2 LINE SMOOTH"
);
},
{
closed = 1;
nodes = (
"555 534 OFFCURVE",
"560 563 OFFCURVE",
"534 566 CURVE SMOOTH",
"347 584 LINE SMOOTH",
"323 586 OFFCURVE",
"318 550 OFFCURVE",
"346 548 CURVE SMOOTH",
"529 536 LINE SMOOTH"
);
},
{
closed = 1;
nodes = (
"489 430 OFFCURVE",
"499 468 OFFCURVE",
"475 474 CURVE SMOOTH",
"415 488 LINE",
"407 457 LINE",
"465 438 LINE SMOOTH"
);
},
{
closed = 1;
nodes = (
"174 619 LINE",
"123 606 LINE SMOOTH",
"101 600 OFFCURVE",
"92 642 OFFCURVE",
"117 645 CURVE SMOOTH",
"169 651 LINE"
);
},
{
closed = 1;
nodes = (
"184 552 LINE",
"160 544 LINE SMOOTH",
"134 535 OFFCURVE",
"123 579 OFFCURVE",
"152 581 CURVE SMOOTH",
"179 583 LINE"
);
},
{
closed = 1;
nodes = (
"297 101 OFFCURVE",
"316 120 OFFCURVE",
"316 142 CURVE SMOOTH",
"316 164 OFFCURVE",
"297 183 OFFCURVE",
"275 183 CURVE SMOOTH",
"253 183 OFFCURVE",
"234 164 OFFCURVE",
"234 142 CURVE SMOOTH",
"234 120 OFFCURVE",
"253 101 OFFCURVE",
"275 101 CURVE SMOOTH"
);
},
{
closed = 1;
nodes = (
"183 5 OFFCURVE",
"195 34 OFFCURVE",
"175 43 CURVE SMOOTH",
"44 104 LINE SMOOTH",
"25 113 OFFCURVE",
"13 82 OFFCURVE",
"33 73 CURVE SMOOTH",
"162 15 LINE SMOOTH"
);
},
{
closed = 1;
nodes = (
"187 101 OFFCURVE",
"196 134 OFFCURVE",
"176 140 CURVE SMOOTH",
"43 181 LINE SMOOTH",
"24 187 OFFCURVE",
"15 158 OFFCURVE",
"32 152 CURVE SMOOTH",
"165 108 LINE SMOOTH"
);
},
{
closed = 1;
nodes = (
"494 302 OFFCURVE",
"509 317 OFFCURVE",
"509 335 CURVE SMOOTH",
"509 353 OFFCURVE",
"494 368 OFFCURVE",
"476 368 CURVE SMOOTH",
"458 368 OFFCURVE",
"443 353 OFFCURVE",
"443 335 CURVE SMOOTH",
"443 317 OFFCURVE",
"458 302 OFFCURVE",
"476 302 CURVE SMOOTH"
);
},
{
closed = 1;
nodes = (
"164 234 LINE",
"97 272 LINE SMOOTH",
"80 282 OFFCURVE",
"64 258 OFFCURVE",
"79 247 CURVE SMOOTH",
"150 198 LINE"
);
}
);
width = 552;
}
);
unicode = 0058;
},
{
glyphname = Y;
lastChange = "2020-05-19 00:34:23 +0000";
layers = (
{
anchors = (
{
name = bottom;
position = "{256, 0}";
},
{
name = top;
position = "{253, 682}";
}
);
layerId = "DA12CC5E-F102-4B17-B99F-C66FBA9637B7";
paths = (
{
closed = 1;
nodes = (
"40 633 OFFCURVE",
"30 643 OFFCURVE",
"30 654 CURVE SMOOTH",
"30 666 OFFCURVE",
"40 676 OFFCURVE",
"51 676 CURVE SMOOTH",
"63 676 OFFCURVE",
"73 666 OFFCURVE",
"73 654 CURVE SMOOTH",
"73 643 OFFCURVE",
"63 633 OFFCURVE",
"51 633 CURVE SMOOTH"
);
},
{
closed = 1;
nodes = (
"67 568 OFFCURVE",
"55 580 OFFCURVE",
"55 594 CURVE SMOOTH",
"55 609 OFFCURVE",
"66 619 OFFCURVE",
"82 619 CURVE SMOOTH",
"96 619 OFFCURVE",
"107 609 OFFCURVE",
"107 594 CURVE SMOOTH",
"107 580 OFFCURVE",
"97 568 OFFCURVE",
"83 568 CURVE SMOOTH"
);
},
{
closed = 1;
nodes = (
"100 514 OFFCURVE",
"90 523 OFFCURVE",
"90 534 CURVE SMOOTH",
"90 545 OFFCURVE",
"100 554 OFFCURVE",
"111 554 CURVE SMOOTH",
"122 554 OFFCURVE",
"130 545 OFFCURVE",
"130 534 CURVE SMOOTH",
"130 523 OFFCURVE",
"122 514 OFFCURVE",
"111 514 CURVE SMOOTH"
);
},
{
closed = 1;
nodes = (
"492 543 OFFCURVE",
"506 567 OFFCURVE",
"484 579 CURVE SMOOTH",
"348 650 LINE SMOOTH",
"326 662 OFFCURVE",
"310 632 OFFCURVE",
"334 620 CURVE SMOOTH",
"469 554 LINE SMOOTH"
);
},
{
closed = 1;
nodes = (
"461 400 OFFCURVE",
"478 431 OFFCURVE",
"458 444 CURVE SMOOTH",
"325 532 LINE SMOOTH",
"307 544 OFFCURVE",
"295 526 OFFCURVE",
"312 513 CURVE SMOOTH",
"443 414 LINE SMOOTH"
);
},
{
closed = 1;
nodes = (
"210 301 LINE SMOOTH",
"229 271 OFFCURVE",
"241 233 OFFCURVE",
"240 209 CURVE SMOOTH",
"235 14 LINE SMOOTH",
"234 -13 OFFCURVE",
"265 -14 OFFCURVE",
"264 15 CURVE SMOOTH",
"258 259 LINE SMOOTH",
"258 278 OFFCURVE",
"268 300 OFFCURVE",
"278 316 CURVE SMOOTH",
"498 667 LINE SMOOTH",
"511 688 OFFCURVE",
"484 704 OFFCURVE",
"472 683 CURVE SMOOTH",
"267 340 LINE SMOOTH",
"253 317 OFFCURVE",
"238 318 OFFCURVE",
"227 347 CURVE SMOOTH",
"101 679 LINE SMOOTH",
"75 747 OFFCURVE",
"-45 704 OFFCURVE",
"2 629 CURVE SMOOTH"
);
},
{
closed = 1;
nodes = (
"385 328 OFFCURVE",
"397 367 OFFCURVE",
"373 375 CURVE SMOOTH",
"315 395 LINE",
"304 376 LINE",
"365 340 LINE SMOOTH"
);
},
{
closed = 1;
nodes = (
"266 555 OFFCURVE",
"285 574 OFFCURVE",
"285 598 CURVE SMOOTH",
"285 621 OFFCURVE",
"266 640 OFFCURVE",
"243 640 CURVE SMOOTH",
"219 640 OFFCURVE",
"200 621 OFFCURVE",
"200 598 CURVE SMOOTH",
"200 574 OFFCURVE",
"219 555 OFFCURVE",
"243 555 CURVE SMOOTH"
);
},
{
closed = 1;
nodes = (
"246 87 LINE",
"247 117 LINE",
"157 111 LINE SMOOTH",
"129 109 OFFCURVE",
"132 68 OFFCURVE",
"160 73 CURVE SMOOTH"
);
},
{
closed = 1;
nodes = (
"247 152 LINE",
"248 190 LINE",
"193 201 LINE SMOOTH",
"166 206 OFFCURVE",
"163 172 OFFCURVE",
"184 167 CURVE SMOOTH"
);
}
);
width = 474;
},
{
associatedMasterId = "DA12CC5E-F102-4B17-B99F-C66FBA9637B7";
layerId = "C0CB15FF-11EA-4BD2-AEB1-D1BB7557BD07";
name = "Feb 17 20, 18:10";
paths = (
{
closed = 1;
nodes = (
"279 206 LINE",
"317 287 LINE",
"576 629 LINE SMOOTH",
"622 689 OFFCURVE",
"539 741 OFFCURVE",
"507 685 CURVE SMOOTH",
"361 425 LINE SMOOTH",
"341 389 OFFCURVE",
"309 391 OFFCURVE",
"297 418 CURVE SMOOTH",
"191 661 LINE SMOOTH",
"143 772 OFFCURVE",
"-54 693 OFFCURVE",
"31 569 CURVE SMOOTH"
);
},
{
closed = 1;
nodes = (
"275 -43 OFFCURVE",
"373 -40 OFFCURVE",
"365 20 CURVE SMOOTH",
"316 366 LINE",
"261 367 LINE",
"273 17 LINE SMOOTH"
);
},
{
closed = 1;
nodes = (
"88 588 OFFCURVE",
"72 604 OFFCURVE",
"72 624 CURVE SMOOTH",
"72 643 OFFCURVE",
"88 659 OFFCURVE",
"108 659 CURVE SMOOTH",
"127 659 OFFCURVE",
"143 643 OFFCURVE",
"143 624 CURVE SMOOTH",
"143 604 OFFCURVE",
"127 588 OFFCURVE",
"108 588 CURVE SMOOTH"
);
},
{
closed = 1;
nodes = (
"138 488 OFFCURVE",
"118 507 OFFCURVE",
"118 531 CURVE SMOOTH",
"118 555 OFFCURVE",
"138 575 OFFCURVE",
"163 575 CURVE SMOOTH",
"186 575 OFFCURVE",
"205 555 OFFCURVE",
"205 531 CURVE SMOOTH",
"205 507 OFFCURVE",
"186 488 OFFCURVE",
"163 488 CURVE SMOOTH"
);
},
{
closed = 1;
nodes = (
"194 403 OFFCURVE",
"179 417 OFFCURVE",
"179 435 CURVE SMOOTH",
"179 453 OFFCURVE",
"194 468 OFFCURVE",
"213 468 CURVE SMOOTH",
"230 468 OFFCURVE",
"244 453 OFFCURVE",
"244 435 CURVE SMOOTH",
"244 417 OFFCURVE",
"230 403 OFFCURVE",
"213 403 CURVE SMOOTH"
);
},
{
closed = 1;
nodes = (
"591 507 OFFCURVE",
"613 546 OFFCURVE",
"584 564 CURVE SMOOTH",
"428 661 LINE SMOOTH",
"394 682 OFFCURVE",
"359 632 OFFCURVE",
"397 611 CURVE SMOOTH",
"561 523 LINE SMOOTH"
);
},
{
closed = 1;
nodes = (
"524 374 OFFCURVE",
"561 417 OFFCURVE",
"532 440 CURVE SMOOTH",
"392 554 LINE SMOOTH",
"367 575 OFFCURVE",
"338 548 OFFCURVE",
"364 523 CURVE SMOOTH",
"499 398 LINE SMOOTH"
);
}
);
width = 608;
}
);
unicode = 0059;
},
{
glyphname = Z;
lastChange = "2020-05-19 00:34:23 +0000";
layers = (
{
associatedMasterId = "DA12CC5E-F102-4B17-B99F-C66FBA9637B7";
layerId = "2C8F3584-3829-486D-AB49-D75BD961700A";
name = "Mar 10 20, 14:59";
paths = (
{
closed = 1;
nodes = (
"-19 105 OFFCURVE",
"15 47 OFFCURVE",
"67 39 CURVE SMOOTH",
"436 -15 LINE SMOOTH",
"493 -23 OFFCURVE",
"503 53 OFFCURVE",
"439 60 CURVE SMOOTH",
"161 92 LINE SMOOTH",
"133 95 OFFCURVE",
"125 117 OFFCURVE",
"142 135 CURVE SMOOTH",
"481 502 LINE SMOOTH",
"536 562 OFFCURVE",
"508 685 OFFCURVE",
"430 692 CURVE SMOOTH",
"129 720 LINE SMOOTH",
"-25 734 OFFCURVE",
"-17 492 OFFCURVE",
"124 509 CURVE SMOOTH",
"319 532 LINE SMOOTH",
"356 536 OFFCURVE",
"381 505 OFFCURVE",
"350 474 CURVE SMOOTH",
"31 155 LINE SMOOTH"
);
},
{
closed = 1;
nodes = (
"462 293 OFFCURVE",
"485 317 OFFCURVE",
"485 345 CURVE SMOOTH",
"485 373 OFFCURVE",
"462 396 OFFCURVE",
"434 396 CURVE SMOOTH",
"406 396 OFFCURVE",
"382 373 OFFCURVE",
"382 345 CURVE SMOOTH",
"382 317 OFFCURVE",
"406 293 OFFCURVE",
"434 293 CURVE SMOOTH"
);
},
{
closed = 1;
nodes = (
"338 -101 OFFCURVE",
"396 -104 OFFCURVE",
"398 -64 CURVE SMOOTH",
"410 159 LINE SMOOTH",
"412 204 OFFCURVE",
"343 210 OFFCURVE",
"342 161 CURVE SMOOTH",
"339 -60 LINE SMOOTH"
);
},
{
closed = 1;
nodes = (
"186 -63 OFFCURVE",
"256 -75 OFFCURVE",
"267 -34 CURVE SMOOTH",
"303 99 LINE SMOOTH",
"316 149 OFFCURVE",
"259 158 OFFCURVE",
"246 120 CURVE SMOOTH",
"201 -16 LINE SMOOTH"
);
},
{
closed = 1;
nodes = (
"289 796 LINE",
"232 849 LINE SMOOTH",
"204 875 OFFCURVE",
"235 920 OFFCURVE",
"266 893 CURVE SMOOTH",
"327 839 LINE"
);
},
{
closed = 1;
nodes = (
"219 716 LINE",
"183 742 LINE SMOOTH",
"147 768 OFFCURVE",
"180 813 OFFCURVE",
"217 784 CURVE SMOOTH",
"253 755 LINE"
);
}
);
width = 512;
},
{
anchors = (
{
name = bottom;
position = "{251, -50}";
},
{
name = top;
position = "{274, 710}";
}
);
layerId = "DA12CC5E-F102-4B17-B99F-C66FBA9637B7";
paths = (
{
closed = 1;
nodes = (
"46 110 OFFCURVE",
"65 83 OFFCURVE",
"104 73 CURVE SMOOTH",
"436 -15 LINE SMOOTH",
"466 -23 OFFCURVE",
"469 4 OFFCURVE",
"437 12 CURVE SMOOTH",
"112 95 LINE SMOOTH",
"91 100 OFFCURVE",
"84 122 OFFCURVE",
"105 146 CURVE SMOOTH",
"457 559 LINE SMOOTH",
"521 635 OFFCURVE",
"509 716 OFFCURVE",
"402 713 CURVE SMOOTH",
"63 703 LINE SMOOTH",
"42 702 OFFCURVE",
"45 674 OFFCURVE",
"69 675 CURVE SMOOTH",
"323 690 LINE SMOOTH",
"350 692 OFFCURVE",
"367 656 OFFCURVE",
"351 629 CURVE SMOOTH",
"76 162 LINE SMOOTH"
);
},
{
closed = 1;
nodes = (
"201 512 OFFCURVE",
"224 536 OFFCURVE",
"224 564 CURVE SMOOTH",
"224 592 OFFCURVE",
"201 615 OFFCURVE",
"173 615 CURVE SMOOTH",
"145 615 OFFCURVE",
"121 592 OFFCURVE",
"121 564 CURVE SMOOTH",
"121 536 OFFCURVE",
"145 512 OFFCURVE",
"173 512 CURVE SMOOTH"
);
},
{
closed = 1;
nodes = (
"349 -81 OFFCURVE",
"377 -85 OFFCURVE",
"378 -62 CURVE SMOOTH",
"388 148 LINE SMOOTH",
"389 173 OFFCURVE",
"350 179 OFFCURVE",
"350 150 CURVE SMOOTH",
"349 -60 LINE SMOOTH"
);
},
{
closed = 1;
nodes = (
"121 -21 OFFCURVE",
"157 -32 OFFCURVE",
"168 -1 CURVE SMOOTH",
"214 133 LINE SMOOTH",
"225 164 OFFCURVE",
"198 172 OFFCURVE",
"187 144 CURVE SMOOTH",
"132 7 LINE SMOOTH"
);
},
{
closed = 1;
nodes = (
"380 469 LINE",
"343 515 LINE SMOOTH",
"327 535 OFFCURVE",
"350 558 OFFCURVE",
"371 537 CURVE SMOOTH",
"407 500 LINE"
);
},
{
closed = 1;
nodes = (
"331 411 LINE",
"307 427 LINE SMOOTH",
"280 445 OFFCURVE",
"305 487 OFFCURVE",
"330 462 CURVE SMOOTH",
"354 438 LINE"
);
},
{
closed = 1;
nodes = (
"231 -116 OFFCURVE",
"259 -126 OFFCURVE",
"264 -94 CURVE SMOOTH",
"313 201 LINE SMOOTH",
"318 233 OFFCURVE",
"282 236 OFFCURVE",
"278 207 CURVE SMOOTH",
"235 -86 LINE SMOOTH"
);
},
{
closed = 1;
nodes = (
"75 396 OFFCURVE",
"69 372 OFFCURVE",
"85 367 CURVE SMOOTH",
"410 263 LINE SMOOTH",
"436 255 OFFCURVE",
"443 290 OFFCURVE",
"420 297 CURVE SMOOTH",
"95 390 LINE SMOOTH"
);
},
{
closed = 1;
nodes = (
"430 527 LINE",
"386 592 LINE SMOOTH",
"372 613 OFFCURVE",
"405 637 OFFCURVE",
"420 614 CURVE SMOOTH",
"456 558 LINE"
);
}
);
width = 512;
}
);
unicode = 005A;
},
{
glyphname = R.blah;
lastChange = "2020-05-20 00:10:53 +0000";
layers = (
{
anchors = (
{
name = bottom;
position = "{270, 0}";
},
{
name = top;
position = "{302, 700}";
}
);
associatedMasterId = "DA12CC5E-F102-4B17-B99F-C66FBA9637B7";
layerId = "AA2F978F-83BB-4942-AFA6-394EC8F04DB1";
name = "Apr 17 20, 12:43";
paths = (
{
closed = 1;
nodes = (
"68 -59 OFFCURVE",
"112 -51 OFFCURVE",
"109 -27 CURVE SMOOTH",
"73 281 LINE SMOOTH",
"72 288 OFFCURVE",
"80 295 OFFCURVE",
"88 295 CURVE SMOOTH",
"89 295 LINE SMOOTH",
"95 295 OFFCURVE",
"102 293 OFFCURVE",
"111 286 CURVE SMOOTH",
"431 16 LINE SMOOTH",
"474 -20 OFFCURVE",
"545 -12 OFFCURVE",
"545 57 CURVE SMOOTH",
"545 88 OFFCURVE",
"533 119 OFFCURVE",
"500 135 CURVE SMOOTH",
"97 327 LINE SMOOTH",
"74 338 OFFCURVE",
"78 378 OFFCURVE",
"119 358 CURVE SMOOTH",
"169 333 OFFCURVE",
"230 319 OFFCURVE",
"314 319 CURVE SMOOTH",
"439 319 OFFCURVE",
"539 383 OFFCURVE",
"540 509 CURVE SMOOTH",
"541 634 OFFCURVE",
"459 716 OFFCURVE",
"292 716 CURVE SMOOTH",
"292 716 LINE SMOOTH",
"149 716 OFFCURVE",
"37 631 OFFCURVE",
"44 485 CURVE SMOOTH",
"67 -28 LINE SMOOTH"
);
},
{
closed = 1;
nodes = (
"71 482 LINE SMOOTH",
"71 617 OFFCURVE",
"169 689 OFFCURVE",
"286 689 CURVE SMOOTH",
"290 689 LINE SMOOTH",
"437 689 OFFCURVE",
"512 618 OFFCURVE",
"512 508 CURVE SMOOTH",
"512 412 OFFCURVE",
"439 347 OFFCURVE",
"317 347 CURVE SMOOTH",
"317 347 LINE SMOOTH",
"226 347 OFFCURVE",
"71 370 OFFCURVE",
"71 461 CURVE SMOOTH"
);
},
{
closed = 1;
nodes = (
"457 94 LINE SMOOTH",
"457 68 OFFCURVE",
"410 68 OFFCURVE",
"413 99 CURVE SMOOTH",
"421 173 LINE",
"457 156 LINE"
);
},
{
closed = 1;
nodes = (
"378 155 LINE SMOOTH",
"379 123 OFFCURVE",
"331 138 OFFCURVE",
"338 161 CURVE SMOOTH",
"352 206 LINE",
"377 193 LINE"
);
},
{
closed = 1;
nodes = (
"485 216 OFFCURVE",
"506 237 OFFCURVE",
"506 263 CURVE SMOOTH",
"506 289 OFFCURVE",
"485 310 OFFCURVE",
"459 310 CURVE SMOOTH",
"433 310 OFFCURVE",
"412 289 OFFCURVE",
"412 263 CURVE SMOOTH",
"412 237 OFFCURVE",
"433 216 OFFCURVE",
"459 216 CURVE SMOOTH"
);
},
{
closed = 1;
nodes = (
"202 23 OFFCURVE",
"194 55 OFFCURVE",
"169 53 CURVE SMOOTH",
"17 41 LINE SMOOTH",
"-7 39 OFFCURVE",
"-1 11 OFFCURVE",
"20 12 CURVE SMOOTH",
"171 21 LINE SMOOTH"
);
},
{
closed = 1;
nodes = (
"171 118 OFFCURVE",
"169 142 OFFCURVE",
"143 144 CURVE SMOOTH",
"27 153 LINE SMOOTH",
"0 155 OFFCURVE",
"0 118 OFFCURVE",
"24 118 CURVE SMOOTH",
"142 118 LINE SMOOTH"
);
},
{
closed = 1;
nodes = (
"382 394 OFFCURVE",
"459 446 OFFCURVE",
"459 509 CURVE SMOOTH",
"459 573 OFFCURVE",
"387 628 OFFCURVE",
"299 628 CURVE SMOOTH",
"207 628 OFFCURVE",
"133 568 OFFCURVE",
"133 496 CURVE SMOOTH",
"133 440 OFFCURVE",
"203 394 OFFCURVE",
"289 394 CURVE SMOOTH"
);
},
{
closed = 1;
nodes = (
"222 417 OFFCURVE",
"162 454 OFFCURVE",
"162 500 CURVE SMOOTH",
"162 553 OFFCURVE",
"227 598 OFFCURVE",
"306 598 CURVE SMOOTH",
"375 598 OFFCURVE",
"431 557 OFFCURVE",
"431 509 CURVE SMOOTH",
"431 458 OFFCURVE",
"370 417 OFFCURVE",
"296 417 CURVE SMOOTH"
);
},
{
closed = 1;
nodes = (
"316 475 OFFCURVE",
"335 491 OFFCURVE",
"335 510 CURVE SMOOTH",
"335 528 OFFCURVE",
"318 544 OFFCURVE",
"297 544 CURVE SMOOTH",
"275 544 OFFCURVE",
"257 529 OFFCURVE",
"257 510 CURVE SMOOTH",
"257 490 OFFCURVE",
"274 475 OFFCURVE",
"293 475 CURVE SMOOTH"
);
}
);
width = 600;
},
{
anchors = (
{
name = bottom;
position = "{298, 0}";
},
{
name = top;
position = "{330, 700}";
}
);
associatedMasterId = "DA12CC5E-F102-4B17-B99F-C66FBA9637B7";
layerId = "2A4AB242-756E-4EC1-8EB7-FCB7339AD54E";
name = "May 19 20, 15:14";
paths = (
{
closed = 1;
nodes = (
"96 -59 OFFCURVE",
"139 -51 OFFCURVE",
"137 -27 CURVE SMOOTH",
"111 299 LINE SMOOTH",
"110 310 OFFCURVE",
"113 322 OFFCURVE",
"122 322 CURVE SMOOTH",
"126 322 LINE SMOOTH",
"139 322 OFFCURVE",
"155 309 OFFCURVE",
"163 301 CURVE SMOOTH",
"459 16 LINE SMOOTH",
"500 -24 OFFCURVE",
"573 -12 OFFCURVE",
"573 57 CURVE SMOOTH",
"573 88 OFFCURVE",
"561 118 OFFCURVE",
"528 135 CURVE SMOOTH",
"199 305 LINE SMOOTH",
"179 315 OFFCURVE",
"182 321 OFFCURVE",
"199 321 CURVE SMOOTH",
"248 321 OFFCURVE",
"258 321 OFFCURVE",
"342 321 CURVE SMOOTH",
"467 321 OFFCURVE",
"567 383 OFFCURVE",
"568 509 CURVE SMOOTH",
"569 634 OFFCURVE",
"487 716 OFFCURVE",
"320 716 CURVE SMOOTH",
"320 716 LINE SMOOTH",
"177 716 OFFCURVE",
"65 631 OFFCURVE",
"72 485 CURVE SMOOTH",
"95 -28 LINE SMOOTH"
);
},
{
closed = 1;
nodes = (
"99 482 LINE SMOOTH",
"94 617 OFFCURVE",
"197 689 OFFCURVE",
"314 689 CURVE SMOOTH",
"318 689 LINE SMOOTH",
"465 689 OFFCURVE",
"540 618 OFFCURVE",
"540 508 CURVE SMOOTH",
"540 412 OFFCURVE",
"467 347 OFFCURVE",
"345 347 CURVE SMOOTH",
"137 347 LINE SMOOTH",
"111 347 OFFCURVE",
"104 354 OFFCURVE",
"103 380 CURVE SMOOTH"
);
},
{
closed = 1;
nodes = (
"485 94 LINE SMOOTH",
"485 68 OFFCURVE",
"438 68 OFFCURVE",
"441 99 CURVE SMOOTH",
"449 173 LINE",
"485 156 LINE"
);
},
{
closed = 1;
nodes = (
"406 155 LINE SMOOTH",
"407 123 OFFCURVE",
"359 138 OFFCURVE",
"366 161 CURVE SMOOTH",
"380 206 LINE",
"405 193 LINE"
);
},
{
closed = 1;
nodes = (
"523 236 OFFCURVE",
"544 257 OFFCURVE",
"544 283 CURVE SMOOTH",
"544 309 OFFCURVE",
"523 330 OFFCURVE",
"497 330 CURVE SMOOTH",
"471 330 OFFCURVE",
"450 309 OFFCURVE",
"450 283 CURVE SMOOTH",
"450 257 OFFCURVE",
"471 236 OFFCURVE",
"497 236 CURVE SMOOTH"
);
},
{
closed = 1;
nodes = (
"230 23 OFFCURVE",
"222 55 OFFCURVE",
"197 53 CURVE SMOOTH",
"45 41 LINE SMOOTH",
"21 39 OFFCURVE",
"27 11 OFFCURVE",
"48 12 CURVE SMOOTH",
"199 21 LINE SMOOTH"
);
},
{
closed = 1;
nodes = (
"199 118 OFFCURVE",
"197 142 OFFCURVE",
"171 144 CURVE SMOOTH",
"55 153 LINE SMOOTH",
"28 155 OFFCURVE",
"28 118 OFFCURVE",
"52 118 CURVE SMOOTH",
"170 118 LINE SMOOTH"
);
}
);
width = 582;
},
{
anchors = (
{
name = bottom;
position = "{277, 0}";
},
{
name = top;
position = "{326, 721}";
}
);
layerId = "DA12CC5E-F102-4B17-B99F-C66FBA9637B7";
paths = (
{
closed = 1;
nodes = (
"70 -23 OFFCURVE",
"144 -19 OFFCURVE",
"144 22 CURVE SMOOTH",
"144 239 LINE SMOOTH",
"144 277 OFFCURVE",
"213 279 OFFCURVE",
"233 243 CURVE SMOOTH",
"355 25 LINE SMOOTH",
"399 -54 OFFCURVE",
"517 -7 OFFCURVE",
"517 53 CURVE SMOOTH",
"517 83 OFFCURVE",
"512 100 OFFCURVE",
"501 119 CURVE SMOOTH",
"403 280 LINE SMOOTH",
"391 299 OFFCURVE",
"353 330 OFFCURVE",
"309 330 CURVE SMOOTH",
"179 330 LINE SMOOTH",
"156 330 OFFCURVE",
"144 344 OFFCURVE",
"144 367 CURVE SMOOTH",
"144 462 LINE SMOOTH",
"144 492 OFFCURVE",
"155 505 OFFCURVE",
"183 505 CURVE SMOOTH",
"325 505 LINE SMOOTH",
"387 505 OFFCURVE",
"431 475 OFFCURVE",
"431 418 CURVE SMOOTH",
"431 336 OFFCURVE",
"379 310 OFFCURVE",
"284 310 CURVE SMOOTH",
"136 310 OFFCURVE",
"133 324 OFFCURVE",
"133 431 CURVE SMOOTH",
"133 511 OFFCURVE",
"165 567 OFFCURVE",
"285 567 CURVE SMOOTH",
"386 567 OFFCURVE",
"431 514 OFFCURVE",
"431 419 CURVE SMOOTH",
"431 352 OFFCURVE",
"389 330 OFFCURVE",
"292 330 CURVE SMOOTH",
"261 330 OFFCURVE",
"260 292 OFFCURVE",
"291 292 CURVE SMOOTH",
"412 292 OFFCURVE",
"464 367 OFFCURVE",
"464 486 CURVE SMOOTH",
"464 577 OFFCURVE",
"384 619 OFFCURVE",
"284 619 CURVE SMOOTH",
"167 619 OFFCURVE",
"89 535 OFFCURVE",
"89 433 CURVE SMOOTH",
"89 292 OFFCURVE",
"136 272 OFFCURVE",
"284 272 CURVE SMOOTH",
"417 272 OFFCURVE",
"501 327 OFFCURVE",
"501 493 CURVE SMOOTH",
"501 615 OFFCURVE",
"434 699 OFFCURVE",
"310 699 CURVE SMOOTH",
"164 699 LINE SMOOTH",
"107 699 OFFCURVE",
"73 676 OFFCURVE",
"73 594 CURVE SMOOTH",
"70 25 LINE SMOOTH"
);
}
);
width = 582;
}
);
},
{
glyphname = zero;
lastChange = "2020-05-19 00:34:23 +0000";
layers = (
{
layerId = "DA12CC5E-F102-4B17-B99F-C66FBA9637B7";
paths = (
{
closed = 1;
nodes = (
"524 -11 OFFCURVE",
"641 126 OFFCURVE",
"641 367 CURVE SMOOTH",
"641 565 OFFCURVE",
"537 714 OFFCURVE",
"365 714 CURVE SMOOTH",
"211 714 OFFCURVE",
"75 578 OFFCURVE",
"75 314 CURVE SMOOTH",
"75 114 OFFCURVE",
"189 -17 OFFCURVE",
"352 -14 CURVE SMOOTH"
);
},
{
closed = 1;
nodes = (
"528 685 OFFCURVE",
"580 549 OFFCURVE",
"580 444 CURVE SMOOTH",
"580 237 OFFCURVE",
"478 60 OFFCURVE",
"300 60 CURVE SMOOTH",
"192 60 OFFCURVE",
"105 164 OFFCURVE",
"105 318 CURVE SMOOTH",
"105 543 OFFCURVE",
"211 685 OFFCURVE",
"365 685 CURVE SMOOTH"
);
},
{
closed = 1;
nodes = (
"426 284 OFFCURVE",
"463 321 OFFCURVE",
"463 368 CURVE SMOOTH",
"463 412 OFFCURVE",
"426 451 OFFCURVE",
"380 451 CURVE SMOOTH",
"335 451 OFFCURVE",
"296 412 OFFCURVE",
"296 368 CURVE SMOOTH",
"296 321 OFFCURVE",
"335 284 OFFCURVE",
"380 284 CURVE SMOOTH"
);
},
{
closed = 1;
nodes = (
"523 142 LINE SMOOTH",
"546 116 OFFCURVE",
"513 77 OFFCURVE",
"490 100 CURVE SMOOTH",
"465 125 LINE",
"481 141 OFFCURVE",
"488 149 OFFCURVE",
"501 166 CURVE"
);
},
{
closed = 1;
nodes = (
"574 216 LINE SMOOTH",
"597 199 OFFCURVE",
"570 163 OFFCURVE",
"547 180 CURVE SMOOTH",
"522 199 LINE",
"527 208 OFFCURVE",
"535 223 OFFCURVE",
"542 240 CURVE"
);
},
{
closed = 1;
nodes = (
"81 679 OFFCURVE",
"59 644 OFFCURVE",
"86 627 CURVE SMOOTH",
"264 519 LINE SMOOTH",
"285 506 OFFCURVE",
"297 529 OFFCURVE",
"277 543 CURVE SMOOTH",
"108 660 LINE SMOOTH"
);
},
{
closed = 1;
nodes = (
"42 67 OFFCURVE",
"61 39 OFFCURVE",
"83 58 CURVE SMOOTH",
"245 198 LINE SMOOTH",
"262 213 OFFCURVE",
"246 237 OFFCURVE",
"227 221 CURVE SMOOTH",
"60 82 LINE SMOOTH"
);
},
{
closed = 1;
nodes = (
"14 516 OFFCURVE",
"6 482 OFFCURVE",
"32 475 CURVE SMOOTH",
"186 435 LINE SMOOTH",
"213 428 OFFCURVE",
"220 458 OFFCURVE",
"195 465 CURVE SMOOTH",
"45 507 LINE SMOOTH"
);
},
{
closed = 1;
nodes = (
"599 697 OFFCURVE",
"574 720 OFFCURVE",
"557 700 CURVE SMOOTH",
"451 576 LINE SMOOTH",
"436 558 OFFCURVE",
"458 542 OFFCURVE",
"471 557 CURVE SMOOTH",
"582 678 LINE SMOOTH"
);
},
{
closed = 1;
nodes = (
"357 319 OFFCURVE",
"338 338 OFFCURVE",
"338 361 CURVE SMOOTH",
"338 384 OFFCURVE",
"357 403 OFFCURVE",
"380 403 CURVE SMOOTH",
"403 403 OFFCURVE",
"422 384 OFFCURVE",
"422 361 CURVE SMOOTH",
"422 338 OFFCURVE",
"403 319 OFFCURVE",
"380 319 CURVE SMOOTH"
);
},
{
closed = 1;
nodes = (
"449 69 LINE SMOOTH",
"459 37 OFFCURVE",
"417 23 OFFCURVE",
"406 51 CURVE SMOOTH",
"395 79 LINE",
"409 85 OFFCURVE",
"424 93 OFFCURVE",
"438 103 CURVE"
);
}
);
width = 680;
},
{
associatedMasterId = "DA12CC5E-F102-4B17-B99F-C66FBA9637B7";
layerId = "4DD8420B-2319-4CD9-94F6-9FE2AAC3AACC";
name = "Apr 29 20, 17:01";
paths = (
{
closed = 1;
nodes = (
"490 -14 OFFCURVE",
"607 143 OFFCURVE",
"607 359 CURVE SMOOTH",
"607 590 OFFCURVE",
"493 714 OFFCURVE",
"331 714 CURVE SMOOTH",
"177 714 OFFCURVE",
"41 575 OFFCURVE",
"41 305 CURVE SMOOTH",
"41 110 OFFCURVE",
"145 -14 OFFCURVE",
"302 -14 CURVE SMOOTH"
);
},
{
closed = 1;
nodes = (
"457 685 OFFCURVE",
"527 533 OFFCURVE",
"527 368 CURVE SMOOTH",
"527 212 OFFCURVE",
"421 18 OFFCURVE",
"293 18 CURVE SMOOTH",
"177 18 OFFCURVE",
"71 131 OFFCURVE",
"71 309 CURVE SMOOTH",
"71 544 OFFCURVE",
"177 685 OFFCURVE",
"331 685 CURVE SMOOTH"
);
},
{
closed = 1;
nodes = (
"308 321 OFFCURVE",
"335 348 OFFCURVE",
"335 382 CURVE SMOOTH",
"335 415 OFFCURVE",
"308 443 OFFCURVE",
"274 443 CURVE SMOOTH",
"241 443 OFFCURVE",
"213 415 OFFCURVE",
"213 382 CURVE SMOOTH",
"213 348 OFFCURVE",
"241 321 OFFCURVE",
"274 321 CURVE SMOOTH"
);
},
{
closed = 1;
nodes = (
"497 118 LINE SMOOTH",
"515 101 OFFCURVE",
"493 77 OFFCURVE",
"476 91 CURVE SMOOTH",
"439 121 LINE",
"449 134 OFFCURVE",
"453 143 OFFCURVE",
"458 156 CURVE"
);
},
{
closed = 1;
nodes = (
"556 271 LINE SMOOTH",
"581 258 OFFCURVE",
"564 211 OFFCURVE",
"544 222 CURVE SMOOTH",
"502 244 LINE",
"506 256 OFFCURVE",
"516 278 OFFCURVE",
"519 290 CURVE"
);
},
{
closed = 1;
nodes = (
"47 679 OFFCURVE",
"25 644 OFFCURVE",
"52 627 CURVE SMOOTH",
"230 519 LINE SMOOTH",
"254 504 OFFCURVE",
"265 528 OFFCURVE",
"241 545 CURVE SMOOTH",
"74 660 LINE SMOOTH"
);
},
{
closed = 1;
nodes = (
"3 63 OFFCURVE",
"27 33 OFFCURVE",
"52 55 CURVE SMOOTH",
"213 196 LINE SMOOTH",
"232 212 OFFCURVE",
"210 237 OFFCURVE",
"190 220 CURVE SMOOTH",
"26 82 LINE SMOOTH"
);
}
);
width = 650;
}
);
unicode = 0030;
},
{
glyphname = one;
lastChange = "2020-05-19 00:34:23 +0000";
layers = (
{
layerId = "DA12CC5E-F102-4B17-B99F-C66FBA9637B7";
paths = (
{
closed = 1;
nodes = (
"119 669 LINE SMOOTH",
"137 675 OFFCURVE",
"149 664 OFFCURVE",
"147 636 CURVE SMOOTH",
"94 31 LINE SMOOTH",
"87 -54 OFFCURVE",
"219 -50 OFFCURVE",
"213 35 CURVE SMOOTH",
"171 648 LINE SMOOTH",
"168 692 OFFCURVE",
"146 705 OFFCURVE",
"109 692 CURVE SMOOTH",
"30 664 LINE SMOOTH",
"9 656 OFFCURVE",
"18 634 OFFCURVE",
"38 641 CURVE SMOOTH"
);
},
{
closed = 1;
nodes = (
"210 73 LINE",
"168 68 LINE SMOOTH",
"137 64 OFFCURVE",
"128 113 OFFCURVE",
"159 114 CURVE SMOOTH",
"207 115 LINE"
);
},
{
closed = 1;
nodes = (
"205 143 LINE",
"155 148 LINE SMOOTH",
"124 151 OFFCURVE",
"124 185 OFFCURVE",
"153 186 CURVE SMOOTH",
"202 187 LINE"
);
},
{
closed = 1;
nodes = (
"200 228 LINE",
"168 223 LINE SMOOTH",
"140 219 OFFCURVE",
"132 256 OFFCURVE",
"161 261 CURVE SMOOTH",
"197 267 LINE"
);
}
);
width = 265;
}
);
unicode = 0031;
},
{
glyphname = two;
lastChange = "2020-05-19 00:34:23 +0000";
layers = (
{
layerId = "DA12CC5E-F102-4B17-B99F-C66FBA9637B7";
paths = (
{
closed = 1;
nodes = (
"422 669 OFFCURVE",
"367 714 OFFCURVE",
"252 714 CURVE SMOOTH",
"153 714 OFFCURVE",
"67 665 OFFCURVE",
"67 643 CURVE SMOOTH",
"67 635 OFFCURVE",
"71 633 OFFCURVE",
"78 633 CURVE SMOOTH",
"94 633 OFFCURVE",
"135 673 OFFCURVE",
"208 673 CURVE SMOOTH",
"259 673 OFFCURVE",
"311 638 OFFCURVE",
"312 562 CURVE SMOOTH",
"313 483 OFFCURVE",
"295 410 OFFCURVE",
"235 334 CURVE SMOOTH",
"46 94 LINE SMOOTH",
"-4 30 OFFCURVE",
"40 -15 OFFCURVE",
"93 -10 CURVE SMOOTH",
"436 21 LINE SMOOTH",
"463 23 OFFCURVE",
"459 50 OFFCURVE",
"434 48 CURVE SMOOTH",
"96 15 LINE SMOOTH",
"57 11 OFFCURVE",
"32 40 OFFCURVE",
"65 80 CURVE SMOOTH",
"267 321 LINE SMOOTH",
"397 476 OFFCURVE",
"422 526 OFFCURVE",
"422 602 CURVE SMOOTH"
);
},
{
closed = 1;
nodes = (
"314 635 OFFCURVE",
"305 643 OFFCURVE",
"305 654 CURVE SMOOTH",
"305 664 OFFCURVE",
"314 673 OFFCURVE",
"325 673 CURVE SMOOTH",
"335 673 OFFCURVE",
"343 664 OFFCURVE",
"343 654 CURVE SMOOTH",
"343 643 OFFCURVE",
"335 635 OFFCURVE",
"325 635 CURVE SMOOTH"
);
},
{
closed = 1;
nodes = (
"350 584 OFFCURVE",
"340 595 OFFCURVE",
"340 608 CURVE SMOOTH",
"340 621 OFFCURVE",
"350 631 OFFCURVE",
"363 631 CURVE SMOOTH",
"376 631 OFFCURVE",
"387 621 OFFCURVE",
"387 608 CURVE SMOOTH",
"387 595 OFFCURVE",
"376 584 OFFCURVE",
"363 584 CURVE SMOOTH"
);
},
{
closed = 1;
nodes = (
"348 519 OFFCURVE",
"339 529 OFFCURVE",
"339 540 CURVE SMOOTH",
"339 552 OFFCURVE",
"348 561 OFFCURVE",
"360 561 CURVE SMOOTH",
"372 561 OFFCURVE",
"381 552 OFFCURVE",
"381 540 CURVE SMOOTH",
"381 529 OFFCURVE",
"372 519 OFFCURVE",
"360 519 CURVE SMOOTH"
);
},
{
closed = 1;
nodes = (
"373 183 OFFCURVE",
"351 180 OFFCURVE",
"351 162 CURVE SMOOTH",
"350 -57 LINE SMOOTH",
"350 -76 OFFCURVE",
"373 -82 OFFCURVE",
"373 -55 CURVE SMOOTH",
"373 162 LINE SMOOTH"
);
},
{
closed = 1;
nodes = (
"202 19 OFFCURVE",
"178 19 OFFCURVE",
"177 7 CURVE SMOOTH",
"170 -98 LINE SMOOTH",
"169 -116 OFFCURVE",
"194 -122 OFFCURVE",
"195 -98 CURVE SMOOTH",
"201 7 LINE SMOOTH"
);
},
{
closed = 1;
nodes = (
"275 194 OFFCURVE",
"252 190 OFFCURVE",
"254 171 CURVE SMOOTH",
"280 -149 LINE SMOOTH",
"281 -165 OFFCURVE",
"305 -168 OFFCURVE",
"303 -144 CURVE SMOOTH",
"277 175 LINE SMOOTH"
);
},
{
closed = 1;
nodes = (
"137 402 OFFCURVE",
"126 381 OFFCURVE",
"143 372 CURVE SMOOTH",
"356 259 LINE SMOOTH",
"370 251 OFFCURVE",
"383 272 OFFCURVE",
"362 283 CURVE SMOOTH",
"152 394 LINE SMOOTH"
);
},
{
closed = 1;
nodes = (
"216 510 OFFCURVE",
"232 526 OFFCURVE",
"232 546 CURVE SMOOTH",
"232 566 OFFCURVE",
"216 582 OFFCURVE",
"196 582 CURVE SMOOTH",
"176 582 OFFCURVE",
"160 566 OFFCURVE",
"160 546 CURVE SMOOTH",
"160 526 OFFCURVE",
"176 510 OFFCURVE",
"196 510 CURVE SMOOTH"
);
}
);
width = 458;
}
);
unicode = 0032;
},
{
glyphname = three;
lastChange = "2020-05-19 00:34:23 +0000";
layers = (
{
layerId = "DA12CC5E-F102-4B17-B99F-C66FBA9637B7";
paths = (
{
closed = 1;
nodes = (
"298 0 OFFCURVE",
"399 79 OFFCURVE",
"399 220 CURVE SMOOTH",
"399 313 OFFCURVE",
"338 353 OFFCURVE",
"185 389 CURVE SMOOTH",
"168 393 OFFCURVE",
"168 405 OFFCURVE",
"186 418 CURVE SMOOTH",
"372 556 LINE SMOOTH",
"413 587 OFFCURVE",
"406 645 OFFCURVE",
"362 656 CURVE SMOOTH",
"75 729 LINE SMOOTH",
"14 745 OFFCURVE",
"-11 641 OFFCURVE",
"59 631 CURVE SMOOTH",
"339 593 LINE SMOOTH",
"359 590 OFFCURVE",
"360 579 OFFCURVE",
"348 570 CURVE SMOOTH",
"160 430 LINE SMOOTH",
"130 408 OFFCURVE",
"134 374 OFFCURVE",
"167 366 CURVE SMOOTH",
"192 360 LINE SMOOTH",
"355 321 OFFCURVE",
"372 275 OFFCURVE",
"372 220 CURVE SMOOTH",
"372 116 OFFCURVE",
"295 86 OFFCURVE",
"222 86 CURVE SMOOTH",
"167 86 OFFCURVE",
"127 109 OFFCURVE",
"75 109 CURVE SMOOTH",
"38 109 OFFCURVE",
"20 90 OFFCURVE",
"20 60 CURVE SMOOTH",
"20 20 OFFCURVE",
"66 0 OFFCURVE",
"139 0 CURVE SMOOTH"
);
},
{
closed = 1;
nodes = (
"67 39 OFFCURVE",
"58 48 OFFCURVE",
"58 60 CURVE SMOOTH",
"58 72 OFFCURVE",
"67 81 OFFCURVE",
"79 81 CURVE SMOOTH",
"90 81 OFFCURVE",
"100 72 OFFCURVE",
"100 60 CURVE SMOOTH",
"100 48 OFFCURVE",
"90 39 OFFCURVE",
"79 39 CURVE SMOOTH"
);
},
{
closed = 1;
nodes = (
"124 35 OFFCURVE",
"116 43 OFFCURVE",
"116 54 CURVE SMOOTH",
"116 65 OFFCURVE",
"124 73 OFFCURVE",
"135 73 CURVE SMOOTH",
"146 73 OFFCURVE",
"154 65 OFFCURVE",
"154 54 CURVE SMOOTH",
"154 43 OFFCURVE",
"146 35 OFFCURVE",
"135 35 CURVE SMOOTH"
);
},
{
closed = 1;
nodes = (
"159 708 LINE",
"151 667 LINE SMOOTH",
"146 643 OFFCURVE",
"107 647 OFFCURVE",
"112 678 CURVE SMOOTH",
"118 718 LINE"
);
},
{
closed = 1;
nodes = (
"229 690 LINE",
"215 653 LINE SMOOTH",
"205 627 OFFCURVE",
"175 638 OFFCURVE",
"182 660 CURVE SMOOTH",
"194 699 LINE"
);
},
{
closed = 1;
nodes = (
"232 169 OFFCURVE",
"254 191 OFFCURVE",
"254 219 CURVE SMOOTH",
"254 246 OFFCURVE",
"232 268 OFFCURVE",
"205 268 CURVE SMOOTH",
"177 268 OFFCURVE",
"155 246 OFFCURVE",
"155 219 CURVE SMOOTH",
"155 191 OFFCURVE",
"177 169 OFFCURVE",
"205 169 CURVE SMOOTH"
);
},
{
closed = 1;
nodes = (
"271 343 OFFCURVE",
"289 333 OFFCURVE",
"295 345 CURVE SMOOTH",
"328 412 LINE SMOOTH",
"333 423 OFFCURVE",
"316 433 OFFCURVE",
"310 421 CURVE SMOOTH",
"277 355 LINE SMOOTH"
);
},
{
closed = 1;
nodes = (
"150 543 OFFCURVE",
"137 524 OFFCURVE",
"150 516 CURVE SMOOTH",
"230 466 LINE SMOOTH",
"239 460 OFFCURVE",
"252 480 OFFCURVE",
"242 486 CURVE SMOOTH",
"163 535 LINE SMOOTH"
);
},
{
closed = 1;
nodes = (
"290 268 OFFCURVE",
"302 256 OFFCURVE",
"311 265 CURVE SMOOTH",
"386 346 LINE SMOOTH",
"397 357 OFFCURVE",
"381 375 OFFCURVE",
"369 361 CURVE SMOOTH",
"298 277 LINE SMOOTH"
);
},
{
closed = 1;
nodes = (
"316 547 OFFCURVE",
"297 529 OFFCURVE",
"308 519 CURVE SMOOTH",
"349 479 LINE SMOOTH",
"357 472 OFFCURVE",
"368 483 OFFCURVE",
"361 492 CURVE SMOOTH",
"326 534 LINE SMOOTH"
);
}
);
width = 435;
}
);
unicode = 0033;
},
{
glyphname = four;
lastChange = "2020-05-19 00:34:23 +0000";
layers = (
{
layerId = "DA12CC5E-F102-4B17-B99F-C66FBA9637B7";
paths = (
{
closed = 1;
nodes = (
"490 217 LINE SMOOTH",
"510 219 OFFCURVE",
"507 244 OFFCURVE",
"486 242 CURVE SMOOTH",
"98 198 LINE SMOOTH",
"83 196 OFFCURVE",
"73 210 OFFCURVE",
"86 228 CURVE SMOOTH",
"368 616 LINE SMOOTH",
"378 629 OFFCURVE",
"395 622 OFFCURVE",
"394 608 CURVE SMOOTH",
"360 -23 LINE SMOOTH",
"359 -47 OFFCURVE",
"385 -48 OFFCURVE",
"387 -22 CURVE SMOOTH",
"428 646 LINE SMOOTH",
"433 729 OFFCURVE",
"321 739 OFFCURVE",
"279 668 CURVE SMOOTH",
"25 239 LINE SMOOTH",
"-1 196 OFFCURVE",
"26 164 OFFCURVE",
"73 169 CURVE SMOOTH"
);
},
{
closed = 1;
nodes = (
"486 64 OFFCURVE",
"484 93 OFFCURVE",
"461 91 CURVE SMOOTH",
"274 78 LINE SMOOTH",
"254 77 OFFCURVE",
"256 51 OFFCURVE",
"277 52 CURVE SMOOTH",
"461 63 LINE SMOOTH"
);
},
{
closed = 1;
nodes = (
"254 626 LINE",
"297 613 LINE SMOOTH",
"329 603 OFFCURVE",
"306 563 OFFCURVE",
"280 576 CURVE SMOOTH",
"237 597 LINE"
);
},
{
closed = 1;
nodes = (
"218 565 LINE",
"247 539 LINE SMOOTH",
"265 523 OFFCURVE",
"249 499 OFFCURVE",
"230 511 CURVE SMOOTH",
"198 531 LINE"
);
},
{
closed = 1;
nodes = (
"506 314 OFFCURVE",
"504 340 OFFCURVE",
"481 340 CURVE SMOOTH",
"324 339 LINE SMOOTH",
"307 339 OFFCURVE",
"306 315 OFFCURVE",
"327 315 CURVE SMOOTH",
"481 314 LINE SMOOTH"
);
},
{
closed = 1;
nodes = (
"493 398 OFFCURVE",
"491 426 OFFCURVE",
"468 424 CURVE SMOOTH",
"405 418 LINE SMOOTH",
"385 416 OFFCURVE",
"387 391 OFFCURVE",
"408 392 CURVE SMOOTH",
"468 396 LINE SMOOTH"
);
},
{
closed = 1;
nodes = (
"508 460 OFFCURVE",
"506 489 OFFCURVE",
"483 491 CURVE SMOOTH",
"413 497 LINE",
"408 471 LINE",
"483 463 LINE SMOOTH"
);
},
{
closed = 1;
nodes = (
"219 411 LINE",
"200 427 LINE SMOOTH",
"180 444 OFFCURVE",
"196 478 OFFCURVE",
"222 459 CURVE SMOOTH",
"243 444 LINE"
);
}
);
width = 521;
}
);
unicode = 0034;
},
{
glyphname = five;
lastChange = "2020-05-19 00:34:23 +0000";
layers = (
{
layerId = "DA12CC5E-F102-4B17-B99F-C66FBA9637B7";
paths = (
{
closed = 1;
nodes = (
"63 357 OFFCURVE",
"91 339 OFFCURVE",
"130 347 CURVE SMOOTH",
"238 368 LINE SMOOTH",
"369 393 OFFCURVE",
"406 303 OFFCURVE",
"406 221 CURVE SMOOTH",
"406 104 OFFCURVE",
"349 17 OFFCURVE",
"234 17 CURVE SMOOTH",
"100 17 OFFCURVE",
"63 90 OFFCURVE",
"42 90 CURVE SMOOTH",
"34 90 OFFCURVE",
"31 87 OFFCURVE",
"31 80 CURVE SMOOTH",
"31 66 OFFCURVE",
"101 -8 OFFCURVE",
"229 -8 CURVE SMOOTH",
"341 -8 OFFCURVE",
"431 63 OFFCURVE",
"431 220 CURVE SMOOTH",
"431 339 OFFCURVE",
"369 416 OFFCURVE",
"236 392 CURVE SMOOTH",
"153 377 LINE SMOOTH",
"125 372 OFFCURVE",
"113 383 OFFCURVE",
"116 417 CURVE SMOOTH",
"132 579 LINE SMOOTH",
"135 613 OFFCURVE",
"150 630 OFFCURVE",
"180 637 CURVE SMOOTH",
"371 679 LINE SMOOTH",
"392 684 OFFCURVE",
"387 707 OFFCURVE",
"369 704 CURVE SMOOTH",
"59 657 LINE SMOOTH",
"26 652 OFFCURVE",
"17 631 OFFCURVE",
"23 593 CURVE SMOOTH",
"57 391 LINE SMOOTH"
);
},
{
closed = 1;
nodes = (
"68 565 OFFCURVE",
"58 575 OFFCURVE",
"58 588 CURVE SMOOTH",
"58 601 OFFCURVE",
"68 611 OFFCURVE",
"81 611 CURVE SMOOTH",
"94 611 OFFCURVE",
"104 601 OFFCURVE",
"104 588 CURVE SMOOTH",
"104 575 OFFCURVE",
"94 565 OFFCURVE",
"81 565 CURVE SMOOTH"
);
},
{
closed = 1;
nodes = (
"73 499 OFFCURVE",
"64 508 OFFCURVE",
"64 519 CURVE SMOOTH",
"64 530 OFFCURVE",
"73 539 OFFCURVE",
"84 539 CURVE SMOOTH",
"95 539 OFFCURVE",
"104 530 OFFCURVE",
"104 519 CURVE SMOOTH",
"104 508 OFFCURVE",
"95 499 OFFCURVE",
"84 499 CURVE SMOOTH"
);
},
{
closed = 1;
nodes = (
"464 16 OFFCURVE",
"480 37 OFFCURVE",
"461 52 CURVE SMOOTH",
"328 156 LINE SMOOTH",
"312 169 OFFCURVE",
"294 149 OFFCURVE",
"312 135 CURVE SMOOTH",
"444 31 LINE SMOOTH"
);
},
{
closed = 1;
nodes = (
"137 -83 OFFCURVE",
"163 -87 OFFCURVE",
"166 -69 CURVE SMOOTH",
"208 160 LINE SMOOTH",
"211 179 OFFCURVE",
"188 185 OFFCURVE",
"184 165 CURVE SMOOTH",
"141 -63 LINE SMOOTH"
);
},
{
closed = 1;
nodes = (
"318 -94 OFFCURVE",
"345 -82 OFFCURVE",
"337 -62 CURVE SMOOTH",
"310 9 LINE SMOOTH",
"303 27 OFFCURVE",
"280 19 OFFCURVE",
"285 4 CURVE SMOOTH",
"310 -71 LINE SMOOTH"
);
},
{
closed = 1;
nodes = (
"323 574 OFFCURVE",
"344 582 OFFCURVE",
"339 600 CURVE SMOOTH",
"306 727 LINE SMOOTH",
"301 745 OFFCURVE",
"279 736 OFFCURVE",
"283 721 CURVE SMOOTH",
"318 592 LINE SMOOTH"
);
},
{
closed = 1;
nodes = (
"211 489 OFFCURVE",
"232 491 OFFCURVE",
"232 509 CURVE SMOOTH",
"234 659 LINE SMOOTH",
"234 677 OFFCURVE",
"211 675 OFFCURVE",
"211 660 CURVE SMOOTH",
"211 507 LINE SMOOTH"
);
},
{
closed = 1;
nodes = (
"320 379 LINE",
"360 489 LINE SMOOTH",
"366 505 OFFCURVE",
"349 512 OFFCURVE",
"343 497 CURVE SMOOTH",
"301 388 LINE"
);
},
{
closed = 1;
nodes = (
"368 362 LINE",
"410 415 LINE SMOOTH",
"421 429 OFFCURVE",
"402 442 OFFCURVE",
"392 429 CURVE SMOOTH",
"352 376 LINE"
);
},
{
closed = 1;
nodes = (
"167 664 LINE",
"164 730 LINE SMOOTH",
"163 748 OFFCURVE",
"139 743 OFFCURVE",
"141 728 CURVE SMOOTH",
"148 661 LINE"
);
}
);
width = 459;
}
);
unicode = 0035;
},
